G04*
G04 #@! TF.GenerationSoftware,Altium Limited,Altium Designer,18.0.7 (293)*
G04*
G04 Layer_Color=8388736*
%FSLAX42Y42*%
%MOMM*%
G71*
G01*
G75*
%ADD16R,2.13X2.13*%
%ADD17R,1.15X1.75*%
%ADD18R,1.60X1.00*%
%ADD19R,1.10X1.60*%
%ADD20R,1.10X0.90*%
%ADD21R,1.00X1.60*%
%ADD22R,1.60X1.10*%
%ADD23R,0.50X1.65*%
%ADD24R,1.65X0.50*%
%ADD25R,0.90X1.10*%
%ADD26R,1.35X1.70*%
%ADD27R,2.40X1.35*%
%ADD28R,1.40X1.36*%
%ADD29R,1.45X1.36*%
%ADD30R,2.70X1.15*%
%ADD31R,1.44X1.00*%
%ADD32R,1.60X0.90*%
%ADD33R,2.10X1.30*%
%ADD34R,1.90X0.60*%
%ADD35R,0.90X2.00*%
%ADD36R,1.05X0.45*%
%ADD37R,1.29X2.00*%
%ADD38R,1.75X1.15*%
%ADD39C,1.47*%
G04:AMPARAMS|DCode=40|XSize=1.4mm|YSize=1.73mm|CornerRadius=0.7mm|HoleSize=0mm|Usage=FLASHONLY|Rotation=90.000|XOffset=0mm|YOffset=0mm|HoleType=Round|Shape=RoundedRectangle|*
%AMROUNDEDRECTD40*
21,1,1.40,0.32,0,0,90.0*
21,1,0.00,1.73,0,0,90.0*
1,1,1.40,0.16,0.00*
1,1,1.40,0.16,0.00*
1,1,1.40,-0.16,0.00*
1,1,1.40,-0.16,0.00*
%
%ADD40ROUNDEDRECTD40*%
G04:AMPARAMS|DCode=41|XSize=1.5mm|YSize=1.73mm|CornerRadius=0.75mm|HoleSize=0mm|Usage=FLASHONLY|Rotation=90.000|XOffset=0mm|YOffset=0mm|HoleType=Round|Shape=RoundedRectangle|*
%AMROUNDEDRECTD41*
21,1,1.50,0.22,0,0,90.0*
21,1,0.00,1.73,0,0,90.0*
1,1,1.50,0.11,0.00*
1,1,1.50,0.11,0.00*
1,1,1.50,-0.11,0.00*
1,1,1.50,-0.11,0.00*
%
%ADD41ROUNDEDRECTD41*%
G04:AMPARAMS|DCode=42|XSize=1.3mm|YSize=1.5mm|CornerRadius=0.38mm|HoleSize=0mm|Usage=FLASHONLY|Rotation=90.000|XOffset=0mm|YOffset=0mm|HoleType=Round|Shape=RoundedRectangle|*
%AMROUNDEDRECTD42*
21,1,1.30,0.75,0,0,90.0*
21,1,0.55,1.50,0,0,90.0*
1,1,0.75,0.38,0.28*
1,1,0.75,0.38,-0.28*
1,1,0.75,-0.38,-0.28*
1,1,0.75,-0.38,0.28*
%
%ADD42ROUNDEDRECTD42*%
%ADD43C,1.15*%
%ADD44C,1.30*%
%ADD45C,0.70*%
%ADD46C,3.70*%
%ADD47C,2.70*%
D16*
X4890Y10224D02*
D03*
Y9969D02*
D03*
Y9715D02*
D03*
Y9461D02*
D03*
Y9207D02*
D03*
Y8954D02*
D03*
X6668D02*
D03*
Y9207D02*
D03*
Y9461D02*
D03*
Y9715D02*
D03*
Y9969D02*
D03*
Y10224D02*
D03*
D17*
X5156Y8623D02*
D03*
X5438D02*
D03*
X4917D02*
D03*
X4635D02*
D03*
D18*
X4915Y8208D02*
D03*
Y8429D02*
D03*
X4712Y8208D02*
D03*
Y8429D02*
D03*
X5093Y6087D02*
D03*
Y5867D02*
D03*
X6439Y6693D02*
D03*
Y6473D02*
D03*
X6210D02*
D03*
Y6693D02*
D03*
D19*
X5985Y8153D02*
D03*
X5775D02*
D03*
D20*
X6414Y7225D02*
D03*
Y7075D02*
D03*
X6280Y7225D02*
D03*
Y7075D02*
D03*
D21*
X5304Y5613D02*
D03*
X5084D02*
D03*
D22*
X5436Y6480D02*
D03*
Y6270D02*
D03*
X5296Y5859D02*
D03*
Y6069D02*
D03*
D23*
X5149Y6809D02*
D03*
X5199D02*
D03*
X5249D02*
D03*
X5299D02*
D03*
X5349D02*
D03*
X5399D02*
D03*
X5449D02*
D03*
X5499D02*
D03*
X5549D02*
D03*
X5599D02*
D03*
X5649D02*
D03*
X5699D02*
D03*
X5749D02*
D03*
X5799D02*
D03*
X5849D02*
D03*
X5899D02*
D03*
Y7949D02*
D03*
X5849D02*
D03*
X5799D02*
D03*
X5749D02*
D03*
X5699D02*
D03*
X5649D02*
D03*
X5599D02*
D03*
X5549D02*
D03*
X5499D02*
D03*
X5449D02*
D03*
X5399D02*
D03*
X5349D02*
D03*
X5299D02*
D03*
X5249D02*
D03*
X5199D02*
D03*
X5149D02*
D03*
D24*
X6094Y7004D02*
D03*
Y7054D02*
D03*
Y7104D02*
D03*
Y7154D02*
D03*
Y7204D02*
D03*
Y7254D02*
D03*
Y7304D02*
D03*
Y7354D02*
D03*
Y7404D02*
D03*
Y7454D02*
D03*
Y7504D02*
D03*
Y7554D02*
D03*
Y7604D02*
D03*
Y7654D02*
D03*
Y7704D02*
D03*
Y7754D02*
D03*
X4954D02*
D03*
Y7704D02*
D03*
Y7654D02*
D03*
Y7604D02*
D03*
Y7554D02*
D03*
Y7504D02*
D03*
Y7454D02*
D03*
Y7404D02*
D03*
Y7354D02*
D03*
Y7304D02*
D03*
Y7254D02*
D03*
Y7204D02*
D03*
Y7154D02*
D03*
Y7104D02*
D03*
Y7054D02*
D03*
Y7004D02*
D03*
D25*
X5625Y4635D02*
D03*
X5475D02*
D03*
X5625Y4216D02*
D03*
X5475D02*
D03*
D26*
X5339Y4507D02*
D03*
Y3729D02*
D03*
D27*
X5260Y3299D02*
D03*
X4112Y4728D02*
D03*
D28*
X5226Y4687D02*
D03*
D29*
X4326D02*
D03*
D30*
X4126Y3289D02*
D03*
D31*
X4063Y4493D02*
D03*
Y4383D02*
D03*
Y4273D02*
D03*
Y4163D02*
D03*
Y4053D02*
D03*
Y3943D02*
D03*
Y3833D02*
D03*
Y3723D02*
D03*
D32*
X4369Y5258D02*
D03*
Y5410D02*
D03*
Y5715D02*
D03*
Y5563D02*
D03*
Y6020D02*
D03*
Y5867D02*
D03*
Y6325D02*
D03*
Y6172D02*
D03*
Y7252D02*
D03*
Y7404D02*
D03*
Y7709D02*
D03*
Y7557D02*
D03*
Y8014D02*
D03*
Y7861D02*
D03*
Y8318D02*
D03*
Y8166D02*
D03*
D33*
X3950Y5042D02*
D03*
Y6540D02*
D03*
Y7036D02*
D03*
Y8534D02*
D03*
D34*
X6414Y3556D02*
D03*
Y3619D02*
D03*
Y3683D02*
D03*
Y3747D02*
D03*
Y3810D02*
D03*
D35*
X6528Y4026D02*
D03*
Y3340D02*
D03*
D36*
X8931Y3799D02*
D03*
Y3849D02*
D03*
Y3899D02*
D03*
Y3949D02*
D03*
X8697Y3799D02*
D03*
Y3849D02*
D03*
Y3899D02*
D03*
Y3949D02*
D03*
D37*
X8814Y3874D02*
D03*
D38*
X7620Y8496D02*
D03*
Y8215D02*
D03*
Y6198D02*
D03*
Y5916D02*
D03*
Y3912D02*
D03*
Y3630D02*
D03*
D39*
X5940Y3658D02*
D03*
X5740D02*
D03*
D40*
X6706Y3404D02*
D03*
D41*
Y3950D02*
D03*
D42*
X6401Y3924D02*
D03*
Y3442D02*
D03*
D43*
X9042Y7607D02*
D03*
X8788D02*
D03*
X8661D02*
D03*
X8534D02*
D03*
X9042Y7734D02*
D03*
X8915D02*
D03*
X8788D02*
D03*
X8661D02*
D03*
X8534D02*
D03*
X8915Y7607D02*
D03*
D44*
X3848Y9500D02*
D03*
Y9195D02*
D03*
Y9347D02*
D03*
Y9652D02*
D03*
Y9804D02*
D03*
X8509Y5550D02*
D03*
Y5702D02*
D03*
X4902Y5017D02*
D03*
X4280Y4928D02*
D03*
X7518Y7544D02*
D03*
X7620Y4661D02*
D03*
X7899Y7925D02*
D03*
X7620Y4242D02*
D03*
X7793Y7650D02*
D03*
X7429Y6744D02*
D03*
X4407Y9004D02*
D03*
Y8776D02*
D03*
X6642Y5575D02*
D03*
Y5397D02*
D03*
X6210Y3988D02*
D03*
X4826Y3124D02*
D03*
X3797Y6794D02*
D03*
X4381Y3150D02*
D03*
X4724Y5499D02*
D03*
X4559Y4902D02*
D03*
X4750Y4864D02*
D03*
X4610Y9779D02*
D03*
Y9635D02*
D03*
Y9491D02*
D03*
Y9347D02*
D03*
D45*
X5576Y4979D02*
D03*
X5676D02*
D03*
X5576Y5079D02*
D03*
X5676D02*
D03*
D46*
X7912Y9271D02*
D03*
X7620Y2959D02*
D03*
X6604Y2819D02*
D03*
X4001Y2832D02*
D03*
X3988Y10160D02*
D03*
D47*
X8788Y5486D02*
D03*
Y4864D02*
D03*
X8776Y2731D02*
D03*
M02*
