G04*
G04 #@! TF.GenerationSoftware,Altium Limited,Altium Designer,18.0.7 (293)*
G04*
G04 Layer_Physical_Order=2*
G04 Layer_Color=16711680*
%FSLAX42Y42*%
%MOMM*%
G71*
G01*
G75*
%ADD15C,0.25*%
%ADD50R,1.40X0.80*%
%ADD51R,0.90X1.40*%
%ADD53R,0.80X1.40*%
%ADD54R,1.40X0.90*%
%ADD64R,1.40X0.70*%
%ADD65R,1.90X1.10*%
%ADD71C,0.40*%
%ADD72C,1.27*%
G04:AMPARAMS|DCode=73|XSize=1.2mm|YSize=1.52mm|CornerRadius=0.6mm|HoleSize=0mm|Usage=FLASHONLY|Rotation=90.000|XOffset=0mm|YOffset=0mm|HoleType=Round|Shape=RoundedRectangle|*
%AMROUNDEDRECTD73*
21,1,1.20,0.32,0,0,90.0*
21,1,0.00,1.52,0,0,90.0*
1,1,1.20,0.16,0.00*
1,1,1.20,0.16,0.00*
1,1,1.20,-0.16,0.00*
1,1,1.20,-0.16,0.00*
%
%ADD73ROUNDEDRECTD73*%
G04:AMPARAMS|DCode=74|XSize=1.3mm|YSize=1.52mm|CornerRadius=0.65mm|HoleSize=0mm|Usage=FLASHONLY|Rotation=90.000|XOffset=0mm|YOffset=0mm|HoleType=Round|Shape=RoundedRectangle|*
%AMROUNDEDRECTD74*
21,1,1.30,0.22,0,0,90.0*
21,1,0.00,1.52,0,0,90.0*
1,1,1.30,0.11,0.00*
1,1,1.30,0.11,0.00*
1,1,1.30,-0.11,0.00*
1,1,1.30,-0.11,0.00*
%
%ADD74ROUNDEDRECTD74*%
G04:AMPARAMS|DCode=75|XSize=1.1mm|YSize=1.3mm|CornerRadius=0.28mm|HoleSize=0mm|Usage=FLASHONLY|Rotation=90.000|XOffset=0mm|YOffset=0mm|HoleType=Round|Shape=RoundedRectangle|*
%AMROUNDEDRECTD75*
21,1,1.10,0.75,0,0,90.0*
21,1,0.55,1.30,0,0,90.0*
1,1,0.55,0.38,0.28*
1,1,0.55,0.38,-0.28*
1,1,0.55,-0.38,-0.28*
1,1,0.55,-0.38,0.28*
%
%ADD75ROUNDEDRECTD75*%
%ADD76C,0.95*%
%ADD77C,0.50*%
%ADD78C,0.80*%
%ADD79C,1.10*%
%ADD80C,3.50*%
%ADD81C,2.50*%
%ADD82R,0.55X1.05*%
%ADD83R,2.00X3.40*%
%ADD84R,0.40X0.85*%
%ADD85R,1.05X0.60*%
%ADD86R,3.32X3.23*%
%ADD87R,2.40X1.80*%
%ADD88R,0.90X0.25*%
%ADD89R,1.57X1.88*%
%ADD90R,1.50X0.25*%
%ADD91O,1.50X0.25*%
%ADD92O,0.80X0.30*%
%ADD93C,0.30*%
G36*
X6794Y8630D02*
X6782Y8627D01*
X6777Y8640D01*
X6766Y8654D01*
X6752Y8664D01*
X6737Y8671D01*
X6732Y8671D01*
Y8607D01*
Y8543D01*
X6737Y8543D01*
X6752Y8550D01*
X6766Y8560D01*
X6777Y8574D01*
X6782Y8587D01*
X6794Y8584D01*
X6794Y8396D01*
X6783Y8391D01*
X6741Y8433D01*
Y8528D01*
X6611D01*
Y8338D01*
X6705D01*
X6728Y8316D01*
X6722Y8303D01*
X6547D01*
Y8173D01*
X6589D01*
X6594Y8160D01*
X6568Y8135D01*
X6261D01*
X6240Y8155D01*
X6233Y8160D01*
X6237Y8173D01*
X6280D01*
Y8303D01*
X6090D01*
Y8173D01*
X6144D01*
X6146Y8160D01*
X6137Y8148D01*
X6134Y8128D01*
X6137Y8108D01*
X6146Y8096D01*
X6140Y8083D01*
X6090D01*
Y8031D01*
X6280D01*
Y8057D01*
X6306D01*
Y7953D01*
X6355D01*
Y7837D01*
X6155D01*
X6146Y7850D01*
X6148Y7861D01*
X6144Y7881D01*
X6133Y7898D01*
X6116Y7909D01*
X6101Y7912D01*
X6021Y7992D01*
Y8326D01*
X6023Y8338D01*
X6153D01*
Y8528D01*
X6122D01*
Y8547D01*
X6119Y8562D01*
X6111Y8575D01*
X6098Y8587D01*
X6085Y8596D01*
X6081Y8597D01*
X6065Y8607D01*
X6045Y8611D01*
X6041Y8610D01*
X6032Y8619D01*
X6033Y8623D01*
X6029Y8643D01*
X6018Y8660D01*
X6017Y8661D01*
X6020Y8673D01*
X6207D01*
X6269Y8612D01*
Y8528D01*
X6243D01*
Y8338D01*
X6373D01*
Y8394D01*
X6391D01*
Y8338D01*
X6521D01*
Y8528D01*
X6391D01*
Y8472D01*
X6373D01*
Y8528D01*
X6346D01*
Y8574D01*
X6359Y8577D01*
X6360Y8574D01*
X6371Y8560D01*
X6385Y8550D01*
X6400Y8543D01*
X6405Y8543D01*
Y8607D01*
Y8671D01*
X6400Y8671D01*
X6385Y8664D01*
X6371Y8654D01*
X6360Y8640D01*
X6358Y8634D01*
X6345Y8636D01*
X6343Y8642D01*
X6335Y8655D01*
X6293Y8697D01*
X6301Y8707D01*
X6309Y8701D01*
X6325Y8694D01*
X6329Y8694D01*
Y8745D01*
X6278D01*
X6278Y8741D01*
X6285Y8725D01*
X6291Y8717D01*
X6281Y8709D01*
X6250Y8740D01*
X6238Y8748D01*
X6223Y8751D01*
X5582D01*
X5570Y8760D01*
X5550Y8764D01*
X5530Y8760D01*
X5514Y8749D01*
X5502Y8732D01*
X5499Y8712D01*
X5502Y8693D01*
X5514Y8676D01*
X5530Y8665D01*
X5550Y8661D01*
X5570Y8665D01*
X5582Y8673D01*
X5854D01*
X5858Y8661D01*
X5856Y8660D01*
X5845Y8643D01*
X5841Y8623D01*
X5845Y8604D01*
X5847Y8602D01*
Y8528D01*
X5795D01*
Y8433D01*
Y8337D01*
X5847D01*
Y8302D01*
X5845Y8300D01*
X5841Y8280D01*
X5845Y8261D01*
X5841Y8248D01*
X5832D01*
Y8058D01*
X5847D01*
Y7902D01*
X5839Y7893D01*
X5699D01*
Y7823D01*
X5688Y7817D01*
X5684Y7820D01*
X5677Y7821D01*
Y7772D01*
X5651D01*
Y7821D01*
X5645Y7820D01*
X5641Y7817D01*
X5630Y7823D01*
Y7893D01*
X5572D01*
Y7798D01*
X5559D01*
Y7785D01*
X5489D01*
Y7730D01*
X5458D01*
Y7893D01*
X5328D01*
Y7863D01*
X5317Y7857D01*
X5316Y7858D01*
X5296Y7862D01*
X5276Y7858D01*
X5260Y7847D01*
X5253Y7837D01*
X5238D01*
Y7893D01*
X5108D01*
Y7730D01*
X4883D01*
X4779Y7834D01*
X4784Y7846D01*
X5013D01*
X5022Y7839D01*
X5042Y7835D01*
X5062Y7839D01*
X5078Y7850D01*
X5089Y7867D01*
X5093Y7887D01*
X5089Y7906D01*
X5085Y7912D01*
X5091Y7926D01*
X5100Y7928D01*
X5116Y7939D01*
X5127Y7956D01*
X5131Y7976D01*
X5127Y7995D01*
X5116Y8012D01*
X5100Y8023D01*
X5080Y8027D01*
X5060Y8023D01*
X5047Y8014D01*
X5029D01*
X5014Y8011D01*
X5013Y8011D01*
X5000Y8008D01*
X4997Y8014D01*
X4989Y8025D01*
X4974Y8035D01*
X4942Y8067D01*
X4930Y8075D01*
X4915Y8078D01*
X4902D01*
X4892Y8091D01*
X4895Y8102D01*
X4891Y8122D01*
X4885Y8131D01*
X4892Y8143D01*
X4925D01*
X4993Y8075D01*
X5006Y8067D01*
X5021Y8064D01*
X5385D01*
X5400Y8067D01*
X5412Y8075D01*
X5491Y8154D01*
X5500Y8156D01*
X5515Y8148D01*
X5515Y8146D01*
X5526Y8130D01*
X5543Y8119D01*
X5563Y8115D01*
X5582Y8119D01*
X5599Y8130D01*
X5599Y8130D01*
X5612Y8126D01*
Y8058D01*
X5742D01*
Y8248D01*
X5716D01*
Y8311D01*
X5724Y8324D01*
X5727Y8337D01*
X5769D01*
Y8433D01*
Y8528D01*
X5719D01*
X5712Y8540D01*
X5712Y8541D01*
X5716Y8560D01*
X5712Y8579D01*
X5701Y8596D01*
X5684Y8607D01*
X5664Y8611D01*
X5645Y8607D01*
X5632Y8599D01*
X5613D01*
X5599Y8596D01*
X5586Y8587D01*
X5535Y8536D01*
X5529Y8528D01*
X5502D01*
Y8338D01*
X5524D01*
Y8255D01*
X5511Y8248D01*
X5506Y8252D01*
X5486Y8256D01*
X5467Y8252D01*
X5450Y8241D01*
X5439Y8224D01*
X5436Y8209D01*
X5369Y8141D01*
X5225D01*
X5213Y8143D01*
Y8274D01*
X5160D01*
X5151Y8288D01*
X5151Y8288D01*
X5088Y8351D01*
X5088Y8353D01*
X5092Y8364D01*
X5213D01*
Y8493D01*
X5023D01*
Y8467D01*
X5010D01*
Y8493D01*
X4952D01*
X4951Y8498D01*
X4942Y8511D01*
X4826Y8628D01*
X4823Y8643D01*
X4812Y8660D01*
X4795Y8671D01*
X4775Y8675D01*
X4756Y8671D01*
X4739Y8660D01*
X4728Y8643D01*
X4724Y8623D01*
X4728Y8604D01*
X4739Y8587D01*
X4756Y8576D01*
X4771Y8573D01*
X4838Y8505D01*
X4833Y8493D01*
X4820D01*
Y8364D01*
X4870D01*
X4876Y8351D01*
X4867Y8338D01*
X4864Y8318D01*
X4867Y8299D01*
X4876Y8286D01*
X4870Y8274D01*
X4820D01*
Y8252D01*
X4807D01*
Y8283D01*
X4617D01*
X4611Y8294D01*
Y8343D01*
X4616Y8353D01*
X4624Y8353D01*
X4699D01*
Y8424D01*
Y8494D01*
X4624D01*
X4616Y8494D01*
X4611Y8504D01*
Y8849D01*
X5118Y9356D01*
X5130Y9351D01*
Y8999D01*
X5121Y8986D01*
X5118Y8966D01*
X5121Y8947D01*
X5133Y8930D01*
X5149Y8919D01*
X5169Y8915D01*
X5175Y8916D01*
X5182Y8915D01*
X6051D01*
X6064Y8906D01*
X6083Y8902D01*
X6103Y8906D01*
X6120Y8917D01*
X6131Y8934D01*
X6135Y8954D01*
X6131Y8973D01*
X6120Y8990D01*
X6103Y9001D01*
X6083Y9005D01*
X6064Y9001D01*
X6051Y8992D01*
X5777D01*
X5777Y8992D01*
X5774Y9005D01*
X5785Y9013D01*
X5795Y9027D01*
X5802Y9043D01*
X5802Y9047D01*
X5674D01*
X5674Y9043D01*
X5681Y9027D01*
X5691Y9013D01*
X5702Y9005D01*
X5699Y8992D01*
X5699Y8992D01*
X5626D01*
X5626Y8992D01*
X5623Y9005D01*
X5634Y9013D01*
X5644Y9027D01*
X5651Y9043D01*
X5651Y9047D01*
X5523D01*
X5523Y9043D01*
X5530Y9027D01*
X5540Y9013D01*
X5551Y9005D01*
X5548Y8992D01*
X5548Y8992D01*
X5475D01*
X5475Y8992D01*
X5472Y9005D01*
X5483Y9013D01*
X5493Y9027D01*
X5500Y9043D01*
X5500Y9047D01*
X5372D01*
X5372Y9043D01*
X5379Y9027D01*
X5389Y9013D01*
X5400Y9005D01*
X5397Y8992D01*
X5397Y8992D01*
X5212D01*
X5208Y8999D01*
Y9382D01*
X5222Y9396D01*
X5230Y9409D01*
X5233Y9423D01*
Y9605D01*
X5246Y9612D01*
X5252Y9607D01*
X5268Y9600D01*
X5272Y9600D01*
Y9664D01*
Y9728D01*
X5268Y9728D01*
X5252Y9721D01*
X5246Y9716D01*
X5233Y9723D01*
Y9907D01*
X5246Y9914D01*
X5252Y9909D01*
X5268Y9902D01*
X5272Y9902D01*
Y9966D01*
X5298D01*
Y9902D01*
X5302Y9902D01*
X5318Y9909D01*
X5332Y9919D01*
X5342Y9933D01*
X5348Y9946D01*
X5360Y9952D01*
X5573Y9739D01*
X5567Y9727D01*
X5554Y9721D01*
X5540Y9711D01*
X5530Y9697D01*
X5523Y9681D01*
X5523Y9677D01*
X5587D01*
Y9664D01*
X5600D01*
Y9600D01*
X5604Y9600D01*
X5620Y9607D01*
X5634Y9617D01*
X5644Y9631D01*
X5650Y9644D01*
X5662Y9650D01*
X6109Y9203D01*
X6112Y9188D01*
X6123Y9171D01*
X6140Y9160D01*
X6160Y9156D01*
X6179Y9160D01*
X6196Y9171D01*
X6207Y9188D01*
X6211Y9207D01*
X6207Y9227D01*
X6196Y9244D01*
X6179Y9255D01*
X6164Y9258D01*
X5311Y10111D01*
X5298Y10120D01*
X5283Y10123D01*
X4851D01*
X4837Y10120D01*
X4824Y10111D01*
X4583Y9870D01*
X4574Y9857D01*
X4573Y9851D01*
X4570Y9849D01*
X4553Y9836D01*
X4540Y9820D01*
X4532Y9800D01*
X4529Y9779D01*
X4532Y9758D01*
X4540Y9738D01*
X4553Y9722D01*
X4561Y9715D01*
Y9699D01*
X4553Y9692D01*
X4540Y9676D01*
X4532Y9656D01*
X4529Y9635D01*
X4532Y9614D01*
X4540Y9595D01*
X4553Y9578D01*
X4561Y9571D01*
Y9555D01*
X4553Y9548D01*
X4540Y9532D01*
X4533Y9515D01*
X4520Y9516D01*
X4518Y9530D01*
X4512Y9546D01*
X4501Y9560D01*
X4487Y9570D01*
X4472Y9577D01*
X4467Y9577D01*
Y9513D01*
Y9449D01*
X4472Y9449D01*
X4487Y9456D01*
X4501Y9466D01*
X4512Y9480D01*
X4514Y9487D01*
X4517Y9487D01*
X4531Y9477D01*
X4532Y9470D01*
X4540Y9451D01*
X4553Y9434D01*
X4561Y9427D01*
Y9411D01*
X4553Y9405D01*
X4540Y9388D01*
X4532Y9368D01*
X4529Y9347D01*
X4532Y9326D01*
X4540Y9307D01*
X4553Y9290D01*
X4570Y9277D01*
X4589Y9269D01*
X4610Y9266D01*
X4631Y9269D01*
X4651Y9277D01*
X4667Y9290D01*
X4680Y9307D01*
X4688Y9326D01*
X4691Y9347D01*
X4688Y9368D01*
X4680Y9388D01*
X4667Y9405D01*
X4659Y9411D01*
Y9427D01*
X4667Y9434D01*
X4680Y9451D01*
X4688Y9470D01*
X4691Y9491D01*
X4688Y9512D01*
X4680Y9532D01*
X4667Y9548D01*
X4659Y9555D01*
Y9571D01*
X4667Y9578D01*
X4680Y9595D01*
X4688Y9614D01*
X4691Y9635D01*
X4688Y9656D01*
X4688Y9658D01*
X4999Y9969D01*
X5104D01*
X5104Y9968D01*
X5098Y9953D01*
X5082Y9942D01*
X5071Y9926D01*
X5067Y9906D01*
X5071Y9886D01*
X5079Y9873D01*
Y9757D01*
X5002Y9679D01*
X4993Y9667D01*
X4990Y9652D01*
Y9395D01*
X4504Y8909D01*
X4496Y8896D01*
X4493Y8881D01*
Y8812D01*
X4480Y8809D01*
X4477Y8816D01*
X4464Y8833D01*
X4447Y8846D01*
X4428Y8854D01*
X4407Y8857D01*
X4386Y8854D01*
X4366Y8846D01*
X4350Y8833D01*
X4337Y8816D01*
X4329Y8797D01*
X4326Y8776D01*
X4329Y8755D01*
X4330Y8751D01*
Y8379D01*
X4293D01*
Y8591D01*
X4302Y8604D01*
X4306Y8623D01*
X4302Y8643D01*
X4291Y8660D01*
X4274Y8671D01*
X4254Y8675D01*
X4243Y8672D01*
X4230Y8682D01*
Y8861D01*
X4326Y8958D01*
X4343Y8956D01*
X4350Y8947D01*
X4366Y8934D01*
X4386Y8926D01*
X4407Y8923D01*
X4428Y8926D01*
X4447Y8934D01*
X4464Y8947D01*
X4477Y8964D01*
X4485Y8983D01*
X4487Y8995D01*
X4490Y8998D01*
X4500Y9001D01*
X4513Y8996D01*
X4517Y8996D01*
Y9060D01*
Y9124D01*
X4513Y9124D01*
X4497Y9117D01*
X4483Y9107D01*
X4473Y9093D01*
X4466Y9077D01*
X4466Y9076D01*
X4453Y9071D01*
X4447Y9075D01*
X4428Y9083D01*
X4407Y9085D01*
X4386Y9083D01*
X4366Y9075D01*
X4350Y9062D01*
X4337Y9045D01*
X4336Y9043D01*
X4318D01*
X4303Y9040D01*
X4291Y9032D01*
X4197Y8938D01*
X4185Y8943D01*
Y9341D01*
X4182Y9356D01*
X4174Y9368D01*
X3922Y9620D01*
X3926Y9631D01*
X3929Y9652D01*
X3926Y9673D01*
X3918Y9693D01*
X3905Y9709D01*
X3890Y9721D01*
X3889Y9728D01*
X3890Y9735D01*
X3905Y9747D01*
X3918Y9764D01*
X3926Y9783D01*
X3927Y9790D01*
X3940Y9792D01*
X3944Y9782D01*
X3955Y9768D01*
X3969Y9758D01*
X3984Y9751D01*
X3989Y9751D01*
Y9815D01*
Y9879D01*
X3984Y9879D01*
X3969Y9872D01*
X3955Y9862D01*
X3944Y9848D01*
X3938Y9832D01*
X3938Y9831D01*
X3925Y9830D01*
X3918Y9845D01*
X3905Y9862D01*
X3889Y9875D01*
X3869Y9883D01*
X3848Y9885D01*
X3827Y9883D01*
X3808Y9875D01*
X3791Y9862D01*
X3778Y9845D01*
X3770Y9825D01*
X3767Y9804D01*
X3770Y9783D01*
X3778Y9764D01*
X3791Y9747D01*
X3806Y9735D01*
X3807Y9728D01*
X3806Y9721D01*
X3791Y9709D01*
X3778Y9693D01*
X3770Y9673D01*
X3767Y9652D01*
X3770Y9631D01*
X3778Y9611D01*
X3791Y9595D01*
X3806Y9583D01*
X3807Y9576D01*
X3806Y9569D01*
X3791Y9557D01*
X3778Y9540D01*
X3770Y9521D01*
X3767Y9500D01*
X3770Y9479D01*
X3778Y9459D01*
X3791Y9442D01*
X3806Y9431D01*
X3807Y9423D01*
X3806Y9416D01*
X3791Y9405D01*
X3778Y9388D01*
X3770Y9368D01*
X3767Y9347D01*
X3770Y9326D01*
X3778Y9307D01*
X3791Y9290D01*
X3806Y9278D01*
X3807Y9271D01*
X3806Y9264D01*
X3791Y9252D01*
X3778Y9235D01*
X3770Y9216D01*
X3769Y9207D01*
X3928D01*
X3926Y9216D01*
X3921Y9229D01*
X3932Y9236D01*
X4053Y9115D01*
Y8968D01*
X4040Y8962D01*
X4034Y8966D01*
X4019Y8973D01*
X4014Y8973D01*
Y8909D01*
Y8845D01*
X4019Y8845D01*
X4034Y8852D01*
X4040Y8856D01*
X4053Y8850D01*
Y8614D01*
X3830D01*
Y8454D01*
X4053D01*
Y8363D01*
X4040Y8355D01*
X4029Y8338D01*
X4029Y8336D01*
X4006Y8313D01*
X3996Y8298D01*
X3992Y8280D01*
X3992Y8280D01*
Y7880D01*
X3765Y7653D01*
X3759Y7645D01*
X3747Y7649D01*
Y9957D01*
X4254Y9957D01*
Y10056D01*
X4267Y10062D01*
X4271Y10060D01*
X4286Y10053D01*
X4291Y10053D01*
Y10117D01*
Y10181D01*
X4286Y10181D01*
X4271Y10174D01*
X4267Y10172D01*
X4254Y10178D01*
Y10338D01*
X6794D01*
Y8630D01*
D02*
G37*
G36*
X6599Y7893D02*
Y7523D01*
X6521D01*
Y7268D01*
X6303Y7051D01*
X6004D01*
X6000Y7064D01*
X6005Y7067D01*
X6016Y7084D01*
X6020Y7104D01*
X6017Y7120D01*
X6024Y7133D01*
X6201D01*
Y7523D01*
X5973D01*
X5969Y7536D01*
X5978Y7550D01*
X5980Y7557D01*
X5931D01*
Y7582D01*
X5980D01*
X5978Y7589D01*
X5967Y7606D01*
X5951Y7617D01*
X5931Y7621D01*
X5931Y7621D01*
X5926Y7633D01*
X5929Y7634D01*
X5940Y7651D01*
X5944Y7671D01*
X5940Y7690D01*
X5929Y7707D01*
X5912Y7718D01*
X5893Y7722D01*
X5873Y7718D01*
X5856Y7707D01*
X5854Y7704D01*
X5852Y7704D01*
X5839Y7714D01*
Y7745D01*
X6252D01*
Y7475D01*
X6251Y7473D01*
X6247Y7454D01*
X6251Y7434D01*
X6262Y7417D01*
X6278Y7406D01*
X6298Y7402D01*
X6318Y7406D01*
X6334Y7417D01*
X6345Y7434D01*
X6349Y7454D01*
X6345Y7473D01*
X6354Y7483D01*
X6357Y7483D01*
X6375Y7480D01*
X6395Y7484D01*
X6412Y7495D01*
X6423Y7511D01*
X6427Y7531D01*
X6423Y7551D01*
X6414Y7564D01*
Y7651D01*
X6423Y7664D01*
X6427Y7683D01*
X6423Y7703D01*
X6412Y7720D01*
X6395Y7731D01*
X6390Y7732D01*
X6392Y7745D01*
X6415D01*
X6415Y7745D01*
X6433Y7748D01*
X6448Y7758D01*
X6588Y7898D01*
X6599Y7893D01*
D02*
G37*
G36*
X4092Y7802D02*
X4089Y7785D01*
X4093Y7765D01*
X4104Y7749D01*
X4121Y7738D01*
X4140Y7734D01*
X4160Y7738D01*
X4177Y7749D01*
X4177Y7749D01*
X4274D01*
Y7649D01*
X4464D01*
Y7670D01*
X4543D01*
X4559Y7655D01*
Y7487D01*
X4550Y7475D01*
X4546Y7455D01*
X4550Y7435D01*
X4561Y7419D01*
X4578Y7407D01*
X4597Y7404D01*
X4609Y7406D01*
X4612Y7404D01*
X4617Y7390D01*
X4613Y7386D01*
X4610Y7366D01*
X4613Y7346D01*
X4625Y7330D01*
X4641Y7319D01*
X4661Y7315D01*
X4676Y7318D01*
X4686Y7310D01*
X4687Y7308D01*
X4686Y7303D01*
X4690Y7283D01*
X4701Y7266D01*
X4717Y7255D01*
X4737Y7251D01*
X4752Y7254D01*
X4755Y7252D01*
X4801D01*
Y7288D01*
X4798Y7287D01*
X4789Y7295D01*
X4787Y7297D01*
X4788Y7303D01*
X4785Y7322D01*
X4776Y7335D01*
Y7524D01*
X4785Y7537D01*
X4788Y7557D01*
X4785Y7576D01*
X4795Y7583D01*
X4799Y7580D01*
X4811Y7571D01*
X4826Y7568D01*
X5048D01*
Y7522D01*
X5144D01*
X5239D01*
Y7579D01*
X5174D01*
X5166Y7592D01*
X5169Y7607D01*
X5166Y7625D01*
X5173Y7637D01*
X5264D01*
Y7528D01*
X5264D01*
X5267Y7522D01*
X5261Y7513D01*
X5257Y7493D01*
X5261Y7473D01*
X5267Y7464D01*
X5264Y7458D01*
X5264D01*
Y7401D01*
X5359D01*
Y7388D01*
X5372D01*
Y7318D01*
X5374D01*
X5379Y7306D01*
X5354Y7281D01*
X5342Y7286D01*
Y7297D01*
X5238D01*
Y7369D01*
X5152D01*
X5144Y7371D01*
X5135Y7369D01*
X5049D01*
Y7229D01*
X5085D01*
X5086Y7229D01*
X5095Y7216D01*
X5092Y7204D01*
X5096Y7184D01*
X5107Y7167D01*
X5124Y7156D01*
X5144Y7152D01*
X5156Y7155D01*
X5162Y7145D01*
X5162Y7143D01*
X5152Y7130D01*
X5146Y7114D01*
X5145Y7110D01*
X5274D01*
X5273Y7114D01*
X5267Y7129D01*
X5270Y7138D01*
X5272Y7142D01*
X5312D01*
X5369Y7085D01*
X5382Y7076D01*
X5397Y7073D01*
X5604D01*
X5610Y7060D01*
X5607Y7056D01*
X5600Y7040D01*
X5600Y7036D01*
X5664D01*
Y7023D01*
X5677D01*
Y6959D01*
X5681Y6959D01*
X5697Y6966D01*
X5709Y6975D01*
X5716Y6973D01*
X5722Y6970D01*
Y6905D01*
X5668Y6851D01*
X5658Y6836D01*
X5655Y6818D01*
X5655Y6818D01*
Y6711D01*
X5645Y6701D01*
X5495D01*
X5493Y6702D01*
X5474Y6706D01*
X5454Y6702D01*
X5437Y6691D01*
X5426Y6674D01*
X5422Y6655D01*
X5426Y6635D01*
X5437Y6618D01*
X5454Y6607D01*
X5474Y6603D01*
X5493Y6607D01*
X5495Y6609D01*
X5664D01*
X5664Y6609D01*
X5682Y6612D01*
X5697Y6622D01*
X5734Y6659D01*
X5734Y6659D01*
X5742Y6672D01*
X5785D01*
Y6671D01*
X5818D01*
Y6739D01*
X5831D01*
Y6752D01*
X5876D01*
Y6781D01*
X5944D01*
X5959Y6784D01*
X5971Y6792D01*
X6036Y6857D01*
X6188D01*
X6193Y6845D01*
X6145Y6797D01*
X6136Y6784D01*
X6133Y6769D01*
Y6710D01*
X6128Y6699D01*
X6121Y6699D01*
X6075D01*
Y6604D01*
Y6509D01*
X6121D01*
X6128Y6509D01*
X6133Y6498D01*
Y6078D01*
X6110Y6054D01*
X6101Y6042D01*
X6098Y6027D01*
Y5957D01*
X6094Y5954D01*
X6082Y5961D01*
Y5977D01*
X6082D01*
Y6020D01*
X6004D01*
X5926D01*
Y6010D01*
X5914Y6003D01*
X5906Y6008D01*
X5903Y6010D01*
X5899Y6020D01*
X5902Y6026D01*
X5906Y6045D01*
X5902Y6065D01*
X5894Y6078D01*
Y6270D01*
X5934Y6311D01*
X5936D01*
X5949Y6303D01*
X5969Y6299D01*
X5980Y6301D01*
X5993Y6291D01*
Y6183D01*
X5927D01*
Y6088D01*
X5926D01*
Y6045D01*
X6004D01*
X6082D01*
Y6088D01*
X6082D01*
Y6144D01*
X6082Y6145D01*
X6086Y6163D01*
X6086Y6163D01*
Y6381D01*
X6086Y6381D01*
X6082Y6399D01*
X6072Y6414D01*
X6072Y6414D01*
X5934Y6552D01*
X5919Y6562D01*
X5901Y6566D01*
X5901Y6566D01*
X5876D01*
Y6587D01*
X5786D01*
Y6526D01*
X5785Y6519D01*
X5786Y6513D01*
Y6452D01*
X5876D01*
Y6461D01*
X5888Y6467D01*
X5946Y6409D01*
X5944Y6394D01*
X5936Y6389D01*
X5918D01*
X5903Y6386D01*
X5891Y6377D01*
X5830Y6317D01*
X5819Y6320D01*
X5817Y6321D01*
Y6342D01*
X5826Y6355D01*
X5830Y6375D01*
X5826Y6394D01*
X5815Y6411D01*
X5798Y6422D01*
X5778Y6426D01*
X5761Y6423D01*
X5749Y6429D01*
Y6518D01*
X5746Y6532D01*
Y6587D01*
X5656D01*
Y6587D01*
X5077D01*
Y6634D01*
X5090Y6638D01*
X5094Y6631D01*
X5111Y6620D01*
X5131Y6616D01*
X5150Y6620D01*
X5158Y6625D01*
X5267D01*
X5280Y6616D01*
X5299Y6613D01*
X5319Y6616D01*
X5336Y6628D01*
X5347Y6644D01*
X5351Y6664D01*
X5347Y6684D01*
X5336Y6700D01*
X5319Y6711D01*
X5299Y6715D01*
X5280Y6711D01*
X5267Y6703D01*
X5168D01*
X5167Y6704D01*
X5150Y6715D01*
X5131Y6719D01*
X5111Y6715D01*
X5094Y6704D01*
X5088Y6694D01*
X5078Y6687D01*
X5071Y6686D01*
X5062Y6686D01*
X5053Y6695D01*
Y6750D01*
X5077D01*
Y6799D01*
X5181D01*
X5181Y6799D01*
X5181Y6799D01*
X5410D01*
X5410Y6799D01*
X5428Y6803D01*
X5443Y6813D01*
X5507Y6877D01*
X5532D01*
Y7032D01*
X5438D01*
Y7032D01*
X5397D01*
Y6954D01*
X5372D01*
Y7032D01*
X5332D01*
Y7032D01*
X5253D01*
X5248Y7044D01*
X5256Y7050D01*
X5267Y7064D01*
X5273Y7080D01*
X5274Y7084D01*
X5222D01*
Y7033D01*
X5225Y7033D01*
X5228Y7032D01*
X5237Y7024D01*
Y6967D01*
X5162Y6892D01*
X5077D01*
Y6940D01*
X4937D01*
Y6750D01*
X4961D01*
Y6686D01*
X4937D01*
Y6496D01*
X5047D01*
X5058Y6494D01*
X5058Y6494D01*
X5130D01*
Y6160D01*
X4508D01*
X4494Y6157D01*
X4481Y6149D01*
X4476Y6143D01*
X4464Y6148D01*
Y6232D01*
X4274D01*
Y6112D01*
X4428D01*
X4433Y6100D01*
X4412Y6080D01*
X4280D01*
X4275Y6087D01*
X4261Y6097D01*
X4245Y6104D01*
X4241Y6104D01*
Y6040D01*
Y5976D01*
X4245Y5976D01*
X4261Y5983D01*
X4262Y5984D01*
X4274Y5978D01*
Y5960D01*
X4464D01*
Y6022D01*
X4525Y6083D01*
X4546D01*
X4553Y6070D01*
X4550Y6065D01*
X4546Y6045D01*
X4550Y6026D01*
X4561Y6009D01*
X4578Y5998D01*
X4580Y5997D01*
X4584Y5985D01*
X4505Y5906D01*
X4464D01*
Y5927D01*
X4274D01*
Y5807D01*
X4464D01*
Y5829D01*
X4521D01*
X4536Y5832D01*
X4546Y5838D01*
X4554Y5828D01*
X4480Y5754D01*
X4464D01*
Y5775D01*
X4282D01*
X4275Y5785D01*
X4261Y5795D01*
X4245Y5802D01*
X4241Y5802D01*
Y5738D01*
Y5674D01*
X4245Y5674D01*
X4261Y5681D01*
X4262Y5682D01*
X4274Y5676D01*
Y5655D01*
X4464D01*
Y5676D01*
X4496D01*
X4511Y5679D01*
X4523Y5688D01*
X4715Y5879D01*
X4728D01*
X4728Y5879D01*
X4732Y5867D01*
X4476Y5611D01*
X4464Y5616D01*
Y5623D01*
X4274D01*
Y5503D01*
X4464D01*
Y5524D01*
X4483D01*
X4498Y5527D01*
X4511Y5535D01*
X4779Y5804D01*
X4898D01*
X4903Y5792D01*
X4875Y5764D01*
X4865Y5749D01*
X4862Y5731D01*
X4862Y5731D01*
Y5689D01*
X4749Y5576D01*
X4745Y5577D01*
X4724Y5580D01*
X4703Y5577D01*
X4684Y5569D01*
X4667Y5556D01*
X4654Y5540D01*
X4646Y5520D01*
X4643Y5499D01*
X4646Y5478D01*
X4647Y5475D01*
X4477Y5304D01*
X4464D01*
Y5318D01*
X4274D01*
Y5198D01*
X4464D01*
Y5212D01*
X4496D01*
X4496Y5211D01*
X4502Y5200D01*
X4306Y5004D01*
X4301Y5006D01*
X4280Y5009D01*
X4259Y5006D01*
X4239Y4998D01*
X4230Y4991D01*
X4217Y4996D01*
X4216Y5000D01*
X4210Y5016D01*
X4199Y5030D01*
X4185Y5040D01*
X4170Y5047D01*
X4165Y5047D01*
Y4983D01*
Y4919D01*
X4170Y4919D01*
X4185Y4926D01*
X4186Y4927D01*
X4200Y4921D01*
X4202Y4907D01*
X4204Y4902D01*
X4181Y4879D01*
X4172Y4866D01*
X4169Y4851D01*
Y4718D01*
X4143D01*
Y4662D01*
X4051D01*
X4036Y4659D01*
X4024Y4650D01*
X3897Y4523D01*
X3888Y4511D01*
X3885Y4496D01*
Y4414D01*
X3877Y4401D01*
X3873Y4381D01*
X3877Y4362D01*
X3888Y4345D01*
X3905Y4334D01*
X3924Y4330D01*
X3944Y4334D01*
X3961Y4345D01*
X3972Y4362D01*
X3976Y4381D01*
X3972Y4401D01*
X3963Y4414D01*
Y4480D01*
X4067Y4584D01*
X4143D01*
Y4528D01*
X4273D01*
Y4718D01*
X4247D01*
Y4835D01*
X4261Y4849D01*
X4280Y4847D01*
X4301Y4849D01*
X4320Y4857D01*
X4337Y4870D01*
X4350Y4887D01*
X4358Y4907D01*
X4361Y4928D01*
X4358Y4947D01*
X5006Y5594D01*
X5014Y5607D01*
X5017Y5621D01*
Y5670D01*
X5026Y5683D01*
X5030Y5702D01*
X5026Y5722D01*
X5023Y5727D01*
X5029Y5738D01*
X6010D01*
Y5556D01*
X6034D01*
Y5505D01*
X6010D01*
Y5456D01*
X5512D01*
Y5582D01*
X5583D01*
X5598Y5585D01*
X5610Y5593D01*
X5631Y5614D01*
X5646Y5617D01*
X5662Y5628D01*
X5674Y5645D01*
X5677Y5664D01*
X5674Y5684D01*
X5662Y5701D01*
X5646Y5712D01*
X5626Y5716D01*
X5606Y5712D01*
X5590Y5701D01*
X5579Y5684D01*
X5576Y5669D01*
X5567Y5660D01*
X5144D01*
X5129Y5657D01*
X5116Y5648D01*
X4800Y5332D01*
X4788Y5335D01*
X4768Y5331D01*
X4752Y5320D01*
X4740Y5303D01*
X4737Y5283D01*
X4740Y5264D01*
X4752Y5247D01*
X4768Y5236D01*
X4788Y5232D01*
X4808Y5236D01*
X4824Y5247D01*
X4827Y5251D01*
X4834Y5256D01*
X5119Y5541D01*
X5130Y5536D01*
Y5316D01*
X5118Y5313D01*
X5116Y5318D01*
X5105Y5332D01*
X5091Y5342D01*
X5076Y5349D01*
X5071Y5349D01*
Y5285D01*
X5058D01*
Y5272D01*
X4994D01*
X4995Y5268D01*
X5001Y5252D01*
X5006Y5246D01*
X5000Y5233D01*
X4850D01*
X4835Y5230D01*
X4823Y5222D01*
X4581Y4980D01*
X4580Y4981D01*
X4559Y4983D01*
X4538Y4981D01*
X4519Y4972D01*
X4502Y4960D01*
X4489Y4943D01*
X4481Y4923D01*
X4478Y4902D01*
X4481Y4881D01*
X4481Y4880D01*
X4316Y4715D01*
X4308Y4702D01*
X4305Y4687D01*
Y4513D01*
X4248Y4456D01*
X4143D01*
Y4346D01*
X3999Y4202D01*
X3959D01*
X3946Y4211D01*
X3927Y4215D01*
X3907Y4211D01*
X3890Y4200D01*
X3880Y4183D01*
X3878Y4182D01*
X3866Y4179D01*
X3844Y4201D01*
Y4962D01*
X4070D01*
Y5122D01*
X3844D01*
Y6275D01*
X3854Y6282D01*
X3856Y6282D01*
X3874Y6278D01*
X3874Y6278D01*
X4144D01*
X4146Y6277D01*
X4166Y6273D01*
X4185Y6277D01*
X4202Y6288D01*
X4213Y6305D01*
X4217Y6325D01*
X4213Y6344D01*
X4202Y6361D01*
X4185Y6372D01*
X4166Y6376D01*
X4146Y6372D01*
X4144Y6371D01*
X3893D01*
X3844Y6420D01*
Y6461D01*
X4070D01*
Y6621D01*
X3844D01*
Y6729D01*
X3855Y6737D01*
X3868Y6754D01*
X3876Y6774D01*
X3878Y6794D01*
X3876Y6815D01*
X3868Y6835D01*
X3855Y6852D01*
X3844Y6860D01*
Y6956D01*
X4070D01*
Y7116D01*
X3844D01*
Y7601D01*
X3926Y7683D01*
X3940Y7679D01*
X3944Y7668D01*
X3955Y7654D01*
X3969Y7644D01*
X3984Y7637D01*
X3989Y7637D01*
Y7701D01*
X4001D01*
Y7714D01*
X4066D01*
X4065Y7718D01*
X4059Y7734D01*
X4048Y7748D01*
X4034Y7758D01*
X4023Y7763D01*
X4019Y7776D01*
X4058Y7815D01*
X4085D01*
X4092Y7802D01*
D02*
G37*
G36*
X5721Y7509D02*
X5817D01*
Y7484D01*
X5721D01*
Y7438D01*
X5587D01*
X5587Y7438D01*
X5569Y7434D01*
X5554Y7424D01*
X5554Y7424D01*
X5524Y7395D01*
X5513Y7399D01*
Y7452D01*
X5617Y7556D01*
X5721D01*
Y7509D01*
D02*
G37*
G36*
X6794Y8088D02*
Y5308D01*
X6782Y5305D01*
X6777Y5318D01*
X6766Y5332D01*
X6752Y5342D01*
X6737Y5349D01*
X6723Y5351D01*
X6722Y5351D01*
X6717Y5359D01*
X6715Y5363D01*
X6720Y5377D01*
X6723Y5397D01*
X6720Y5418D01*
X6712Y5438D01*
X6699Y5455D01*
X6683Y5468D01*
X6663Y5476D01*
X6642Y5479D01*
X6621Y5476D01*
X6602Y5468D01*
X6585Y5455D01*
X6572Y5438D01*
X6564Y5418D01*
X6561Y5397D01*
X6564Y5377D01*
X6572Y5357D01*
X6585Y5340D01*
X6602Y5327D01*
X6621Y5319D01*
X6642Y5316D01*
X6648Y5317D01*
X6657Y5306D01*
X6656Y5302D01*
X6655Y5298D01*
X6719D01*
Y5285D01*
X6732D01*
Y5221D01*
X6737Y5221D01*
X6752Y5228D01*
X6766Y5238D01*
X6777Y5252D01*
X6782Y5265D01*
X6794Y5262D01*
Y5006D01*
X6782Y5003D01*
X6777Y5016D01*
X6766Y5030D01*
X6752Y5040D01*
X6737Y5047D01*
X6732Y5047D01*
Y4983D01*
Y4919D01*
X6737Y4919D01*
X6752Y4926D01*
X6766Y4936D01*
X6777Y4950D01*
X6782Y4963D01*
X6794Y4960D01*
X6794Y4704D01*
X6782Y4701D01*
X6777Y4714D01*
X6766Y4728D01*
X6752Y4738D01*
X6737Y4745D01*
X6732Y4745D01*
Y4681D01*
Y4617D01*
X6737Y4617D01*
X6752Y4624D01*
X6766Y4634D01*
X6777Y4648D01*
X6782Y4661D01*
X6794Y4658D01*
Y4402D01*
X6782Y4399D01*
X6777Y4412D01*
X6766Y4426D01*
X6752Y4436D01*
X6737Y4443D01*
X6732Y4443D01*
Y4379D01*
Y4315D01*
X6737Y4315D01*
X6752Y4322D01*
X6766Y4332D01*
X6777Y4346D01*
X6782Y4359D01*
X6794Y4356D01*
Y4017D01*
X6782Y4013D01*
X6781Y4014D01*
X6762Y4029D01*
X6740Y4038D01*
X6718Y4041D01*
Y3950D01*
Y3859D01*
X6740Y3862D01*
X6762Y3871D01*
X6781Y3885D01*
X6782Y3887D01*
X6794Y3883D01*
Y3798D01*
X6782Y3795D01*
X6777Y3808D01*
X6766Y3822D01*
X6752Y3832D01*
X6737Y3839D01*
X6732Y3839D01*
Y3775D01*
Y3711D01*
X6737Y3711D01*
X6752Y3718D01*
X6766Y3728D01*
X6777Y3742D01*
X6782Y3755D01*
X6794Y3752D01*
Y3469D01*
X6788Y3466D01*
X6782Y3465D01*
X6765Y3478D01*
X6744Y3487D01*
X6722Y3490D01*
X6718D01*
Y3404D01*
Y3317D01*
X6722D01*
X6744Y3320D01*
X6765Y3329D01*
X6782Y3342D01*
X6788Y3341D01*
X6794Y3339D01*
Y3194D01*
X6782Y3191D01*
X6777Y3204D01*
X6766Y3218D01*
X6752Y3228D01*
X6737Y3235D01*
X6732Y3235D01*
Y3171D01*
Y3107D01*
X6737Y3107D01*
X6752Y3114D01*
X6766Y3124D01*
X6777Y3138D01*
X6782Y3151D01*
X6794Y3148D01*
Y3061D01*
X6393D01*
X6389Y3067D01*
X6375Y3077D01*
X6359Y3084D01*
X6355Y3084D01*
Y3020D01*
Y2956D01*
X6359Y2956D01*
X6375Y2963D01*
X6377Y2964D01*
X6388Y2959D01*
Y2779D01*
X6377Y2774D01*
X6375Y2775D01*
X6359Y2782D01*
X6355Y2782D01*
Y2718D01*
Y2654D01*
X6359Y2654D01*
X6375Y2661D01*
X6377Y2662D01*
X6388Y2657D01*
Y2591D01*
X4254D01*
Y2808D01*
X4267Y2814D01*
X4271Y2812D01*
X4286Y2805D01*
X4291Y2805D01*
Y2869D01*
Y2933D01*
X4286Y2933D01*
X4271Y2926D01*
X4267Y2924D01*
X4254Y2930D01*
Y3048D01*
X3747D01*
Y4154D01*
X3759Y4157D01*
X3765Y4149D01*
X3878Y4036D01*
X3879Y4034D01*
X3890Y4017D01*
X3907Y4006D01*
X3909Y3993D01*
X3908Y3988D01*
X3894Y3980D01*
X3883Y3963D01*
X3880Y3948D01*
X3846Y3914D01*
X3838Y3901D01*
X3835Y3886D01*
Y3785D01*
X3838Y3770D01*
X3846Y3757D01*
X3998Y3605D01*
X4011Y3596D01*
X4026Y3593D01*
X4727D01*
Y3537D01*
X4720Y3527D01*
X4710Y3520D01*
X4699Y3506D01*
X4693Y3490D01*
X4692Y3486D01*
X4821D01*
X4820Y3490D01*
X4814Y3506D01*
X4803Y3520D01*
X4797Y3524D01*
X4801Y3537D01*
X4857D01*
Y3642D01*
X4930Y3715D01*
X4935Y3722D01*
X4947Y3718D01*
Y3549D01*
X4947Y3540D01*
X4947Y3539D01*
X4937Y3532D01*
X4937D01*
X4937Y3532D01*
X4926Y3536D01*
X4925Y3537D01*
X4920Y3537D01*
Y3486D01*
X4972D01*
X4971Y3490D01*
X4965Y3506D01*
X4954Y3520D01*
X4948Y3524D01*
X4952Y3537D01*
X4959Y3537D01*
X4959Y3537D01*
X4959Y3537D01*
X5077D01*
Y3571D01*
X5090Y3575D01*
X5101Y3567D01*
X5117Y3560D01*
X5121Y3560D01*
Y3624D01*
Y3688D01*
X5117Y3688D01*
X5101Y3681D01*
X5090Y3673D01*
X5077Y3677D01*
Y3727D01*
X5058D01*
Y4005D01*
X5077D01*
Y4195D01*
X5058D01*
Y4221D01*
X5058Y4221D01*
X5055Y4238D01*
X5045Y4253D01*
X5045Y4253D01*
X4643Y4656D01*
X4628Y4666D01*
X4610Y4669D01*
X4610Y4669D01*
X4493D01*
Y4718D01*
X4445D01*
X4440Y4730D01*
X4536Y4825D01*
X4538Y4824D01*
X4559Y4821D01*
X4580Y4824D01*
X4600Y4832D01*
X4617Y4845D01*
X4630Y4862D01*
X4638Y4881D01*
X4640Y4902D01*
X4638Y4923D01*
X4637Y4926D01*
X4698Y4987D01*
X4711Y4982D01*
Y4935D01*
X4709Y4934D01*
X4692Y4921D01*
X4680Y4905D01*
X4671Y4885D01*
X4669Y4864D01*
X4671Y4843D01*
X4680Y4824D01*
X4692Y4807D01*
X4709Y4794D01*
X4711Y4793D01*
Y4648D01*
X4714Y4633D01*
X4722Y4621D01*
X4750Y4593D01*
X4753Y4578D01*
X4764Y4561D01*
X4781Y4550D01*
X4801Y4546D01*
X4820Y4550D01*
X4837Y4561D01*
X4848Y4578D01*
X4852Y4597D01*
X4848Y4617D01*
X4837Y4634D01*
X4820Y4645D01*
X4805Y4648D01*
X4789Y4664D01*
Y4793D01*
X4790Y4794D01*
X4807Y4807D01*
X4820Y4824D01*
X4828Y4843D01*
X4831Y4864D01*
X4828Y4885D01*
X4820Y4905D01*
X4807Y4921D01*
X4790Y4934D01*
X4789Y4935D01*
Y4980D01*
X4811Y5002D01*
X4823Y4998D01*
X4824Y4996D01*
X4832Y4976D01*
X4845Y4959D01*
X4862Y4946D01*
X4881Y4938D01*
X4902Y4935D01*
X4923Y4938D01*
X4943Y4946D01*
X4960Y4959D01*
X4972Y4976D01*
X4981Y4996D01*
X4983Y5017D01*
X4981Y5037D01*
X4972Y5057D01*
X4960Y5074D01*
X4952Y5079D01*
X4957Y5092D01*
X5060D01*
X5073Y5083D01*
X5093Y5079D01*
X5112Y5083D01*
X5129Y5094D01*
X5140Y5111D01*
X5144Y5131D01*
X5142Y5143D01*
X5151Y5155D01*
X5311D01*
X5317Y5143D01*
X5233Y5059D01*
X5230Y5057D01*
X5222Y5044D01*
X5219Y5030D01*
Y4788D01*
X5222Y4773D01*
X5230Y4760D01*
X5319Y4672D01*
X5332Y4663D01*
X5347Y4660D01*
X5682D01*
X5695Y4652D01*
X5715Y4648D01*
X5735Y4652D01*
X5751Y4663D01*
X5762Y4679D01*
X5766Y4699D01*
X5764Y4711D01*
X5774Y4723D01*
X5791D01*
X5799Y4725D01*
X5804Y4724D01*
X5824Y4728D01*
X5840Y4739D01*
X5847Y4748D01*
X5859Y4744D01*
Y4731D01*
X5706Y4578D01*
X5629D01*
Y4501D01*
X5518Y4390D01*
X5488D01*
X5487Y4391D01*
X5481Y4392D01*
X5476Y4406D01*
X5557Y4487D01*
X5574Y4498D01*
X5585Y4514D01*
X5589Y4534D01*
X5585Y4554D01*
X5574Y4570D01*
X5557Y4581D01*
X5537Y4585D01*
X5518Y4581D01*
X5501Y4570D01*
X5490Y4554D01*
X5486Y4534D01*
X5487Y4527D01*
X5352Y4392D01*
X5340Y4396D01*
Y4403D01*
X5258D01*
Y4350D01*
X5287D01*
X5294Y4337D01*
X5289Y4331D01*
X5169D01*
X5154Y4328D01*
X5141Y4320D01*
X5103Y4282D01*
X5095Y4269D01*
X5092Y4254D01*
Y4140D01*
X5095Y4125D01*
X5103Y4113D01*
X5131Y4085D01*
X5144Y4077D01*
X5158Y4074D01*
X5247D01*
X5252Y4062D01*
X5243Y4053D01*
X5235Y4041D01*
X5232Y4026D01*
Y3975D01*
X5235Y3960D01*
X5243Y3948D01*
X5281Y3910D01*
X5294Y3901D01*
X5309Y3898D01*
X5410D01*
X5417Y3885D01*
X5414Y3880D01*
X5410Y3861D01*
X5414Y3841D01*
X5415Y3839D01*
Y3804D01*
X5207Y3596D01*
X5196Y3603D01*
X5198Y3607D01*
X5198Y3611D01*
X5147D01*
Y3560D01*
X5151Y3560D01*
X5155Y3562D01*
X5162Y3551D01*
X4905Y3294D01*
X4894Y3301D01*
X4896Y3305D01*
X4896Y3309D01*
X4845D01*
Y3258D01*
X4849Y3258D01*
X4853Y3260D01*
X4860Y3249D01*
X4815Y3204D01*
X4805Y3203D01*
X4785Y3194D01*
X4769Y3182D01*
X4756Y3165D01*
X4748Y3145D01*
X4745Y3124D01*
X4748Y3103D01*
X4756Y3084D01*
X4769Y3067D01*
X4785Y3054D01*
X4805Y3046D01*
X4815Y3045D01*
X4912Y2947D01*
X4909Y2938D01*
X4907Y2935D01*
X4890Y2933D01*
X4875Y2926D01*
X4861Y2916D01*
X4850Y2902D01*
X4844Y2886D01*
X4843Y2882D01*
X4907D01*
Y2869D01*
X4920D01*
Y2805D01*
X4925Y2805D01*
X4940Y2812D01*
X4954Y2822D01*
X4965Y2836D01*
X4969Y2848D01*
X5148D01*
X5152Y2836D01*
X5163Y2822D01*
X5177Y2812D01*
X5192Y2805D01*
X5197Y2805D01*
Y2869D01*
X5209D01*
Y2882D01*
X5274D01*
X5273Y2886D01*
X5267Y2902D01*
X5256Y2916D01*
X5242Y2926D01*
X5227Y2933D01*
X5211Y2935D01*
X5208Y2939D01*
X5206Y2947D01*
X5334Y3076D01*
X5382D01*
X5387Y3064D01*
X5379Y3053D01*
X5372Y3037D01*
X5372Y3033D01*
X5500D01*
X5500Y3037D01*
X5493Y3053D01*
X5483Y3067D01*
X5469Y3077D01*
X5453Y3084D01*
X5436Y3086D01*
X5429Y3092D01*
Y3128D01*
X5494Y3193D01*
X5506Y3188D01*
Y3076D01*
X5575D01*
Y3030D01*
X5566Y3017D01*
X5562Y2997D01*
X5566Y2978D01*
X5577Y2961D01*
X5594Y2950D01*
X5613Y2946D01*
X5633Y2950D01*
X5650Y2961D01*
X5661Y2978D01*
X5664Y2994D01*
X5677Y2997D01*
X5681Y2987D01*
X5691Y2973D01*
X5705Y2963D01*
X5721Y2956D01*
X5725Y2956D01*
Y3020D01*
X5738D01*
Y3033D01*
X5802D01*
X5802Y3037D01*
X5795Y3053D01*
X5787Y3063D01*
X5792Y3076D01*
X5835D01*
X5840Y3063D01*
X5832Y3053D01*
X5825Y3037D01*
X5825Y3033D01*
X5953D01*
X5953Y3037D01*
X5946Y3053D01*
X5938Y3063D01*
X5943Y3076D01*
X5963D01*
Y3128D01*
X5867D01*
Y3154D01*
X5963D01*
Y3200D01*
X5963Y3207D01*
X5973Y3212D01*
X6028D01*
X6039Y3207D01*
X6039Y3200D01*
Y3154D01*
X6121D01*
Y3207D01*
X6108D01*
X6104Y3219D01*
X6111Y3224D01*
X6162Y3275D01*
X6170Y3287D01*
X6172Y3296D01*
X6229D01*
Y3426D01*
X6150D01*
Y3917D01*
X6163Y3923D01*
X6170Y3918D01*
X6189Y3909D01*
X6210Y3907D01*
X6231Y3909D01*
X6251Y3918D01*
X6268Y3930D01*
X6281Y3947D01*
X6289Y3967D01*
X6291Y3988D01*
X6289Y4009D01*
X6281Y4028D01*
X6268Y4045D01*
X6257Y4054D01*
Y4172D01*
X6290D01*
Y4267D01*
X6303D01*
Y4280D01*
X6373D01*
Y4316D01*
X6376Y4318D01*
X6386Y4321D01*
X6400Y4315D01*
X6405Y4315D01*
Y4379D01*
Y4443D01*
X6400Y4443D01*
X6386Y4437D01*
X6376Y4440D01*
X6373Y4442D01*
Y4470D01*
X6303D01*
Y4483D01*
X6290D01*
Y4578D01*
X6257D01*
Y4616D01*
X6290D01*
Y4712D01*
Y4807D01*
X6257D01*
Y4835D01*
X6257Y4835D01*
X6255Y4845D01*
X6264Y4858D01*
X6290D01*
Y4940D01*
X6232D01*
Y4895D01*
X6220Y4891D01*
X6163Y4948D01*
Y5048D01*
X6023D01*
Y4858D01*
X6046D01*
Y4807D01*
X6023D01*
Y4617D01*
X6046D01*
Y4578D01*
X6023D01*
Y4388D01*
X6046D01*
Y4362D01*
X6023D01*
Y4266D01*
X5887D01*
X5869Y4263D01*
X5854Y4253D01*
X5854Y4252D01*
X5787D01*
Y4244D01*
X5781Y4234D01*
X5774Y4234D01*
X5690D01*
Y4115D01*
Y3995D01*
X5700D01*
X5705Y3984D01*
X5704Y3983D01*
X5691Y3973D01*
X5681Y3959D01*
X5674Y3943D01*
X5674Y3939D01*
X5802D01*
X5802Y3943D01*
X5795Y3959D01*
X5785Y3973D01*
X5772Y3983D01*
X5771Y3984D01*
X5776Y3995D01*
X5781Y3995D01*
X5793Y3994D01*
X5797Y3988D01*
X5810Y3979D01*
X5824Y3977D01*
X5884D01*
X5887Y3976D01*
X5964D01*
X5968Y3972D01*
Y3953D01*
X5953Y3938D01*
X5925D01*
X5912Y3946D01*
X5893Y3950D01*
X5873Y3946D01*
X5856Y3935D01*
X5845Y3919D01*
X5841Y3899D01*
X5845Y3879D01*
X5856Y3863D01*
X5873Y3851D01*
X5893Y3848D01*
X5912Y3851D01*
X5925Y3860D01*
X5969D01*
X5984Y3863D01*
X5996Y3871D01*
X6020Y3895D01*
X6032Y3890D01*
Y3703D01*
X6019Y3700D01*
X6018Y3702D01*
X6004Y3721D01*
X5985Y3735D01*
X5964Y3744D01*
X5940Y3747D01*
X5917Y3744D01*
X5896Y3735D01*
X5877Y3721D01*
X5863Y3702D01*
X5854Y3681D01*
X5851Y3658D01*
X5854Y3634D01*
X5854Y3634D01*
X5831Y3610D01*
X5820Y3617D01*
X5827Y3634D01*
X5828Y3645D01*
X5753D01*
Y3570D01*
X5764Y3571D01*
X5781Y3578D01*
X5788Y3567D01*
X5772Y3551D01*
X5550D01*
X5550Y3551D01*
X5532Y3548D01*
X5517Y3538D01*
X5461Y3482D01*
X5448Y3486D01*
X5445Y3499D01*
X5434Y3516D01*
X5417Y3527D01*
X5397Y3531D01*
X5394Y3531D01*
X5388Y3542D01*
X5519Y3673D01*
X5537Y3670D01*
X5557Y3674D01*
X5574Y3685D01*
X5585Y3701D01*
X5589Y3721D01*
X5585Y3741D01*
X5574Y3757D01*
X5557Y3769D01*
X5537Y3772D01*
X5518Y3769D01*
X5517Y3768D01*
X5506Y3776D01*
X5507Y3785D01*
X5507Y3785D01*
Y3839D01*
X5508Y3841D01*
X5512Y3861D01*
X5508Y3880D01*
X5505Y3885D01*
X5512Y3898D01*
X5547D01*
X5563Y3882D01*
X5566Y3867D01*
X5577Y3850D01*
X5594Y3839D01*
X5613Y3835D01*
X5633Y3839D01*
X5650Y3850D01*
X5661Y3867D01*
X5665Y3886D01*
X5661Y3906D01*
X5650Y3923D01*
X5633Y3934D01*
X5618Y3937D01*
X5590Y3964D01*
X5577Y3973D01*
X5567Y3975D01*
X5562Y3986D01*
X5561Y3989D01*
X5567Y3995D01*
X5573Y3995D01*
X5576Y3995D01*
X5664D01*
Y4115D01*
Y4234D01*
X5576D01*
X5573Y4234D01*
X5561Y4235D01*
X5556Y4242D01*
X5544Y4250D01*
X5529Y4253D01*
X5513D01*
Y4297D01*
X5537D01*
X5537Y4297D01*
X5555Y4301D01*
X5570Y4311D01*
X5647Y4388D01*
X5769D01*
Y4510D01*
X5826Y4567D01*
X5838Y4561D01*
Y4496D01*
X5896D01*
Y4578D01*
X5856D01*
X5850Y4591D01*
X5938Y4679D01*
X5938Y4679D01*
X5948Y4694D01*
X5952Y4712D01*
X5952Y4712D01*
Y4997D01*
Y5162D01*
X6105Y5315D01*
X6150D01*
Y5505D01*
X6126D01*
Y5556D01*
X6150D01*
Y5627D01*
X6208Y5685D01*
X6219Y5680D01*
Y5664D01*
X6290D01*
X6360D01*
Y5747D01*
X6286D01*
X6281Y5759D01*
X6307Y5784D01*
X6309Y5785D01*
X6326Y5796D01*
X6337Y5812D01*
X6341Y5832D01*
X6337Y5852D01*
X6336Y5854D01*
Y5883D01*
X6367D01*
Y5986D01*
X6391D01*
Y5950D01*
X6531D01*
Y6140D01*
X6515D01*
X6510Y6153D01*
X6709Y6351D01*
X6719Y6366D01*
X6722Y6384D01*
X6722Y6384D01*
Y6509D01*
X6741D01*
Y6699D01*
X6611D01*
Y6509D01*
X6630D01*
Y6403D01*
X6428Y6202D01*
X6418Y6187D01*
X6415Y6169D01*
X6415Y6169D01*
Y6140D01*
X6391D01*
Y6079D01*
X6367D01*
Y6183D01*
X6328D01*
Y6509D01*
X6347D01*
Y6565D01*
X6391D01*
Y6509D01*
X6521D01*
Y6699D01*
X6391D01*
Y6643D01*
X6347D01*
Y6699D01*
X6217D01*
X6211Y6709D01*
Y6753D01*
X6243Y6785D01*
X6261Y6781D01*
X6281Y6785D01*
X6297Y6796D01*
X6309Y6813D01*
X6312Y6833D01*
X6310Y6844D01*
X6320Y6857D01*
X6461D01*
X6477Y6841D01*
X6480Y6826D01*
X6491Y6809D01*
X6508Y6798D01*
X6528Y6794D01*
X6547Y6798D01*
X6564Y6809D01*
X6575Y6826D01*
X6579Y6845D01*
X6575Y6865D01*
X6564Y6882D01*
X6547Y6893D01*
X6532Y6896D01*
X6505Y6923D01*
X6492Y6932D01*
X6477Y6935D01*
X6022D01*
X6019Y6947D01*
X6028Y6958D01*
X6322D01*
X6322Y6958D01*
X6340Y6962D01*
X6355Y6972D01*
X6510Y7127D01*
X6521Y7133D01*
Y7133D01*
X6521Y7133D01*
X6771D01*
Y7523D01*
X6692D01*
Y7953D01*
X6737D01*
Y8048D01*
X6783Y8093D01*
X6794Y8088D01*
D02*
G37*
G36*
X5584Y4901D02*
X5579Y4898D01*
X5569Y4884D01*
X5562Y4868D01*
X5562Y4864D01*
X5626D01*
Y4839D01*
X5562D01*
X5562Y4834D01*
X5569Y4818D01*
X5573Y4814D01*
X5566Y4801D01*
X5376D01*
X5373Y4804D01*
Y4894D01*
X5507D01*
Y4914D01*
X5580D01*
X5584Y4901D01*
D02*
G37*
G36*
X4798Y4369D02*
X4794Y4355D01*
X4781Y4353D01*
X4764Y4342D01*
X4753Y4325D01*
X4749Y4305D01*
X4753Y4286D01*
X4754Y4284D01*
Y4255D01*
X4742Y4253D01*
X4738Y4261D01*
X4728Y4275D01*
X4714Y4285D01*
X4698Y4292D01*
X4694Y4292D01*
Y4228D01*
Y4164D01*
X4698Y4164D01*
X4714Y4171D01*
X4716Y4172D01*
X4727Y4167D01*
Y4005D01*
X4766D01*
Y3983D01*
X4518Y3735D01*
X4504D01*
X4493Y3740D01*
X4493Y3747D01*
Y3823D01*
X4423D01*
X4353D01*
Y3747D01*
X4353Y3740D01*
X4342Y3735D01*
X4293D01*
X4283Y3740D01*
Y3930D01*
X4259D01*
Y4002D01*
X4283D01*
Y4094D01*
X4341Y4152D01*
X4353Y4147D01*
Y4110D01*
X4423D01*
X4493D01*
Y4159D01*
X4506Y4167D01*
X4513Y4164D01*
X4517Y4164D01*
Y4228D01*
Y4292D01*
X4513Y4292D01*
X4506Y4289D01*
X4493Y4297D01*
Y4456D01*
X4474D01*
Y4528D01*
X4493D01*
Y4577D01*
X4591D01*
X4798Y4369D01*
D02*
G37*
%LPC*%
G36*
X6430Y10181D02*
Y10130D01*
X6482D01*
X6481Y10134D01*
X6475Y10150D01*
X6464Y10164D01*
X6450Y10174D01*
X6435Y10181D01*
X6430Y10181D01*
D02*
G37*
G36*
X6405D02*
X6400Y10181D01*
X6385Y10174D01*
X6371Y10164D01*
X6360Y10150D01*
X6354Y10134D01*
X6353Y10130D01*
X6405D01*
Y10181D01*
D02*
G37*
G36*
X6279D02*
Y10130D01*
X6331D01*
X6330Y10134D01*
X6324Y10150D01*
X6313Y10164D01*
X6299Y10174D01*
X6284Y10181D01*
X6279Y10181D01*
D02*
G37*
G36*
X6254D02*
X6249Y10181D01*
X6234Y10174D01*
X6220Y10164D01*
X6209Y10150D01*
X6203Y10134D01*
X6202Y10130D01*
X6254D01*
Y10181D01*
D02*
G37*
G36*
X6128D02*
Y10130D01*
X6180D01*
X6179Y10134D01*
X6173Y10150D01*
X6162Y10164D01*
X6148Y10174D01*
X6133Y10181D01*
X6128Y10181D01*
D02*
G37*
G36*
X6103D02*
X6098Y10181D01*
X6083Y10174D01*
X6069Y10164D01*
X6058Y10150D01*
X6052Y10134D01*
X6051Y10130D01*
X6103D01*
Y10181D01*
D02*
G37*
G36*
X4618D02*
Y10130D01*
X4670D01*
X4669Y10134D01*
X4663Y10150D01*
X4652Y10164D01*
X4638Y10174D01*
X4623Y10181D01*
X4618Y10181D01*
D02*
G37*
G36*
X4593D02*
X4588Y10181D01*
X4573Y10174D01*
X4559Y10164D01*
X4548Y10150D01*
X4542Y10134D01*
X4541Y10130D01*
X4593D01*
Y10181D01*
D02*
G37*
G36*
X4467D02*
Y10130D01*
X4519D01*
X4518Y10134D01*
X4512Y10150D01*
X4501Y10164D01*
X4487Y10174D01*
X4472Y10181D01*
X4467Y10181D01*
D02*
G37*
G36*
X4442D02*
X4437Y10181D01*
X4422Y10174D01*
X4408Y10164D01*
X4397Y10150D01*
X4391Y10134D01*
X4390Y10130D01*
X4442D01*
Y10181D01*
D02*
G37*
G36*
X4316D02*
Y10130D01*
X4368D01*
X4367Y10134D01*
X4361Y10150D01*
X4350Y10164D01*
X4336Y10174D01*
X4321Y10181D01*
X4316Y10181D01*
D02*
G37*
G36*
X6482Y10104D02*
X6430D01*
Y10053D01*
X6435Y10053D01*
X6450Y10060D01*
X6464Y10070D01*
X6475Y10084D01*
X6481Y10100D01*
X6482Y10104D01*
D02*
G37*
G36*
X6405D02*
X6353D01*
X6354Y10100D01*
X6360Y10084D01*
X6371Y10070D01*
X6385Y10060D01*
X6400Y10053D01*
X6405Y10053D01*
Y10104D01*
D02*
G37*
G36*
X6331D02*
X6279D01*
Y10053D01*
X6284Y10053D01*
X6299Y10060D01*
X6313Y10070D01*
X6324Y10084D01*
X6330Y10100D01*
X6331Y10104D01*
D02*
G37*
G36*
X6254D02*
X6202D01*
X6203Y10100D01*
X6209Y10084D01*
X6220Y10070D01*
X6234Y10060D01*
X6249Y10053D01*
X6254Y10053D01*
Y10104D01*
D02*
G37*
G36*
X6180D02*
X6128D01*
Y10053D01*
X6133Y10053D01*
X6148Y10060D01*
X6162Y10070D01*
X6173Y10084D01*
X6179Y10100D01*
X6180Y10104D01*
D02*
G37*
G36*
X6103D02*
X6051D01*
X6052Y10100D01*
X6058Y10084D01*
X6069Y10070D01*
X6083Y10060D01*
X6098Y10053D01*
X6103Y10053D01*
Y10104D01*
D02*
G37*
G36*
X4670D02*
X4618D01*
Y10053D01*
X4623Y10053D01*
X4638Y10060D01*
X4652Y10070D01*
X4663Y10084D01*
X4669Y10100D01*
X4670Y10104D01*
D02*
G37*
G36*
X4593D02*
X4541D01*
X4542Y10100D01*
X4548Y10084D01*
X4559Y10070D01*
X4573Y10060D01*
X4588Y10053D01*
X4593Y10053D01*
Y10104D01*
D02*
G37*
G36*
X4519D02*
X4467D01*
Y10053D01*
X4472Y10053D01*
X4487Y10060D01*
X4501Y10070D01*
X4512Y10084D01*
X4518Y10100D01*
X4519Y10104D01*
D02*
G37*
G36*
X4442D02*
X4390D01*
X4391Y10100D01*
X4397Y10084D01*
X4408Y10070D01*
X4422Y10060D01*
X4437Y10053D01*
X4442Y10053D01*
Y10104D01*
D02*
G37*
G36*
X4368D02*
X4316D01*
Y10053D01*
X4321Y10053D01*
X4336Y10060D01*
X4350Y10070D01*
X4361Y10084D01*
X4367Y10100D01*
X4368Y10104D01*
D02*
G37*
G36*
X6506Y10030D02*
Y9979D01*
X6557D01*
X6557Y9983D01*
X6550Y9999D01*
X6540Y10013D01*
X6526Y10023D01*
X6510Y10030D01*
X6506Y10030D01*
D02*
G37*
G36*
X6480D02*
X6476Y10030D01*
X6460Y10023D01*
X6446Y10013D01*
X6436Y9999D01*
X6429Y9983D01*
X6429Y9979D01*
X6480D01*
Y10030D01*
D02*
G37*
G36*
X6355D02*
Y9979D01*
X6406D01*
X6406Y9983D01*
X6399Y9999D01*
X6389Y10013D01*
X6375Y10023D01*
X6359Y10030D01*
X6355Y10030D01*
D02*
G37*
G36*
X6329D02*
X6325Y10030D01*
X6309Y10023D01*
X6295Y10013D01*
X6285Y9999D01*
X6278Y9983D01*
X6278Y9979D01*
X6329D01*
Y10030D01*
D02*
G37*
G36*
X6204D02*
Y9979D01*
X6255D01*
X6255Y9983D01*
X6248Y9999D01*
X6238Y10013D01*
X6224Y10023D01*
X6208Y10030D01*
X6204Y10030D01*
D02*
G37*
G36*
X6178D02*
X6174Y10030D01*
X6158Y10023D01*
X6144Y10013D01*
X6134Y9999D01*
X6127Y9983D01*
X6127Y9979D01*
X6178D01*
Y10030D01*
D02*
G37*
G36*
X6053D02*
Y9979D01*
X6104D01*
X6104Y9983D01*
X6097Y9999D01*
X6087Y10013D01*
X6073Y10023D01*
X6057Y10030D01*
X6053Y10030D01*
D02*
G37*
G36*
X6027D02*
X6023Y10030D01*
X6007Y10023D01*
X5993Y10013D01*
X5983Y9999D01*
X5976Y9983D01*
X5976Y9979D01*
X6027D01*
Y10030D01*
D02*
G37*
G36*
X5902D02*
Y9979D01*
X5953D01*
X5953Y9983D01*
X5946Y9999D01*
X5936Y10013D01*
X5922Y10023D01*
X5906Y10030D01*
X5902Y10030D01*
D02*
G37*
G36*
X5876D02*
X5872Y10030D01*
X5856Y10023D01*
X5842Y10013D01*
X5832Y9999D01*
X5825Y9983D01*
X5825Y9979D01*
X5876D01*
Y10030D01*
D02*
G37*
G36*
X5751D02*
Y9979D01*
X5802D01*
X5802Y9983D01*
X5795Y9999D01*
X5785Y10013D01*
X5771Y10023D01*
X5755Y10030D01*
X5751Y10030D01*
D02*
G37*
G36*
X5725D02*
X5721Y10030D01*
X5705Y10023D01*
X5691Y10013D01*
X5681Y9999D01*
X5674Y9983D01*
X5674Y9979D01*
X5725D01*
Y10030D01*
D02*
G37*
G36*
X5600D02*
Y9979D01*
X5651D01*
X5651Y9983D01*
X5644Y9999D01*
X5634Y10013D01*
X5620Y10023D01*
X5604Y10030D01*
X5600Y10030D01*
D02*
G37*
G36*
X5574D02*
X5570Y10030D01*
X5554Y10023D01*
X5540Y10013D01*
X5530Y9999D01*
X5523Y9983D01*
X5523Y9979D01*
X5574D01*
Y10030D01*
D02*
G37*
G36*
X4543D02*
Y9979D01*
X4594D01*
X4594Y9983D01*
X4587Y9999D01*
X4577Y10013D01*
X4563Y10023D01*
X4547Y10030D01*
X4543Y10030D01*
D02*
G37*
G36*
X4517D02*
X4513Y10030D01*
X4497Y10023D01*
X4483Y10013D01*
X4473Y9999D01*
X4466Y9983D01*
X4466Y9979D01*
X4517D01*
Y10030D01*
D02*
G37*
G36*
X4392D02*
Y9979D01*
X4443D01*
X4443Y9983D01*
X4436Y9999D01*
X4426Y10013D01*
X4412Y10023D01*
X4396Y10030D01*
X4392Y10030D01*
D02*
G37*
G36*
X4366D02*
X4362Y10030D01*
X4346Y10023D01*
X4332Y10013D01*
X4322Y9999D01*
X4315Y9983D01*
X4315Y9979D01*
X4366D01*
Y10030D01*
D02*
G37*
G36*
X6557Y9953D02*
X6506D01*
Y9902D01*
X6510Y9902D01*
X6526Y9909D01*
X6540Y9919D01*
X6550Y9933D01*
X6557Y9949D01*
X6557Y9953D01*
D02*
G37*
G36*
X6480D02*
X6429D01*
X6429Y9949D01*
X6436Y9933D01*
X6446Y9919D01*
X6460Y9909D01*
X6476Y9902D01*
X6480Y9902D01*
Y9953D01*
D02*
G37*
G36*
X6406D02*
X6355D01*
Y9902D01*
X6359Y9902D01*
X6375Y9909D01*
X6389Y9919D01*
X6399Y9933D01*
X6406Y9949D01*
X6406Y9953D01*
D02*
G37*
G36*
X6329D02*
X6278D01*
X6278Y9949D01*
X6285Y9933D01*
X6295Y9919D01*
X6309Y9909D01*
X6325Y9902D01*
X6329Y9902D01*
Y9953D01*
D02*
G37*
G36*
X6255D02*
X6204D01*
Y9902D01*
X6208Y9902D01*
X6224Y9909D01*
X6238Y9919D01*
X6248Y9933D01*
X6255Y9949D01*
X6255Y9953D01*
D02*
G37*
G36*
X6178D02*
X6127D01*
X6127Y9949D01*
X6134Y9933D01*
X6144Y9919D01*
X6158Y9909D01*
X6174Y9902D01*
X6178Y9902D01*
Y9953D01*
D02*
G37*
G36*
X6104D02*
X6053D01*
Y9902D01*
X6057Y9902D01*
X6073Y9909D01*
X6087Y9919D01*
X6097Y9933D01*
X6104Y9949D01*
X6104Y9953D01*
D02*
G37*
G36*
X6027D02*
X5976D01*
X5976Y9949D01*
X5983Y9933D01*
X5993Y9919D01*
X6007Y9909D01*
X6023Y9902D01*
X6027Y9902D01*
Y9953D01*
D02*
G37*
G36*
X5953D02*
X5902D01*
Y9902D01*
X5906Y9902D01*
X5922Y9909D01*
X5936Y9919D01*
X5946Y9933D01*
X5953Y9949D01*
X5953Y9953D01*
D02*
G37*
G36*
X5876D02*
X5825D01*
X5825Y9949D01*
X5832Y9933D01*
X5842Y9919D01*
X5856Y9909D01*
X5872Y9902D01*
X5876Y9902D01*
Y9953D01*
D02*
G37*
G36*
X5802D02*
X5751D01*
Y9902D01*
X5755Y9902D01*
X5771Y9909D01*
X5785Y9919D01*
X5795Y9933D01*
X5802Y9949D01*
X5802Y9953D01*
D02*
G37*
G36*
X5725D02*
X5674D01*
X5674Y9949D01*
X5681Y9933D01*
X5691Y9919D01*
X5705Y9909D01*
X5721Y9902D01*
X5725Y9902D01*
Y9953D01*
D02*
G37*
G36*
X5651D02*
X5600D01*
Y9902D01*
X5604Y9902D01*
X5620Y9909D01*
X5634Y9919D01*
X5644Y9933D01*
X5651Y9949D01*
X5651Y9953D01*
D02*
G37*
G36*
X5574D02*
X5523D01*
X5523Y9949D01*
X5530Y9933D01*
X5540Y9919D01*
X5554Y9909D01*
X5570Y9902D01*
X5574Y9902D01*
Y9953D01*
D02*
G37*
G36*
X4594D02*
X4543D01*
Y9902D01*
X4547Y9902D01*
X4563Y9909D01*
X4577Y9919D01*
X4587Y9933D01*
X4594Y9949D01*
X4594Y9953D01*
D02*
G37*
G36*
X4517D02*
X4466D01*
X4466Y9949D01*
X4473Y9933D01*
X4483Y9919D01*
X4497Y9909D01*
X4513Y9902D01*
X4517Y9902D01*
Y9953D01*
D02*
G37*
G36*
X4443D02*
X4392D01*
Y9902D01*
X4396Y9902D01*
X4412Y9909D01*
X4426Y9919D01*
X4436Y9933D01*
X4443Y9949D01*
X4443Y9953D01*
D02*
G37*
G36*
X4366D02*
X4315D01*
X4315Y9949D01*
X4322Y9933D01*
X4332Y9919D01*
X4346Y9909D01*
X4362Y9902D01*
X4366Y9902D01*
Y9953D01*
D02*
G37*
G36*
X5977Y9879D02*
Y9828D01*
X6029D01*
X6028Y9832D01*
X6022Y9848D01*
X6011Y9862D01*
X5997Y9872D01*
X5982Y9879D01*
X5977Y9879D01*
D02*
G37*
G36*
X5952D02*
X5947Y9879D01*
X5932Y9872D01*
X5918Y9862D01*
X5907Y9848D01*
X5901Y9832D01*
X5900Y9828D01*
X5952D01*
Y9879D01*
D02*
G37*
G36*
X5826D02*
Y9828D01*
X5878D01*
X5877Y9832D01*
X5871Y9848D01*
X5860Y9862D01*
X5846Y9872D01*
X5831Y9879D01*
X5826Y9879D01*
D02*
G37*
G36*
X5801D02*
X5796Y9879D01*
X5781Y9872D01*
X5767Y9862D01*
X5756Y9848D01*
X5750Y9832D01*
X5749Y9828D01*
X5801D01*
Y9879D01*
D02*
G37*
G36*
X5373D02*
Y9828D01*
X5425D01*
X5424Y9832D01*
X5418Y9848D01*
X5407Y9862D01*
X5393Y9872D01*
X5378Y9879D01*
X5373Y9879D01*
D02*
G37*
G36*
X5348D02*
X5343Y9879D01*
X5328Y9872D01*
X5314Y9862D01*
X5303Y9848D01*
X5297Y9832D01*
X5296Y9828D01*
X5348D01*
Y9879D01*
D02*
G37*
G36*
X4467D02*
Y9828D01*
X4519D01*
X4518Y9832D01*
X4512Y9848D01*
X4501Y9862D01*
X4487Y9872D01*
X4472Y9879D01*
X4467Y9879D01*
D02*
G37*
G36*
X4442D02*
X4437Y9879D01*
X4422Y9872D01*
X4408Y9862D01*
X4397Y9848D01*
X4391Y9832D01*
X4390Y9828D01*
X4442D01*
Y9879D01*
D02*
G37*
G36*
X4316D02*
Y9828D01*
X4368D01*
X4367Y9832D01*
X4361Y9848D01*
X4350Y9862D01*
X4336Y9872D01*
X4321Y9879D01*
X4316Y9879D01*
D02*
G37*
G36*
X4291D02*
X4286Y9879D01*
X4271Y9872D01*
X4257Y9862D01*
X4246Y9848D01*
X4240Y9832D01*
X4239Y9828D01*
X4291D01*
Y9879D01*
D02*
G37*
G36*
X4165D02*
Y9828D01*
X4217D01*
X4216Y9832D01*
X4210Y9848D01*
X4199Y9862D01*
X4185Y9872D01*
X4170Y9879D01*
X4165Y9879D01*
D02*
G37*
G36*
X4140D02*
X4135Y9879D01*
X4120Y9872D01*
X4106Y9862D01*
X4095Y9848D01*
X4089Y9832D01*
X4088Y9828D01*
X4140D01*
Y9879D01*
D02*
G37*
G36*
X4014D02*
Y9828D01*
X4066D01*
X4065Y9832D01*
X4059Y9848D01*
X4048Y9862D01*
X4034Y9872D01*
X4019Y9879D01*
X4014Y9879D01*
D02*
G37*
G36*
X5878Y9802D02*
X5826D01*
Y9751D01*
X5831Y9751D01*
X5846Y9758D01*
X5860Y9768D01*
X5871Y9782D01*
X5877Y9798D01*
X5878Y9802D01*
D02*
G37*
G36*
X5801D02*
X5749D01*
X5750Y9798D01*
X5756Y9782D01*
X5767Y9768D01*
X5781Y9758D01*
X5796Y9751D01*
X5801Y9751D01*
Y9802D01*
D02*
G37*
G36*
X5425D02*
X5373D01*
Y9751D01*
X5378Y9751D01*
X5393Y9758D01*
X5407Y9768D01*
X5418Y9782D01*
X5424Y9798D01*
X5425Y9802D01*
D02*
G37*
G36*
X5348D02*
X5296D01*
X5297Y9798D01*
X5303Y9782D01*
X5314Y9768D01*
X5328Y9758D01*
X5343Y9751D01*
X5348Y9751D01*
Y9802D01*
D02*
G37*
G36*
X4519D02*
X4467D01*
Y9751D01*
X4472Y9751D01*
X4487Y9758D01*
X4501Y9768D01*
X4512Y9782D01*
X4518Y9798D01*
X4519Y9802D01*
D02*
G37*
G36*
X4442D02*
X4390D01*
X4391Y9798D01*
X4397Y9782D01*
X4408Y9768D01*
X4422Y9758D01*
X4437Y9751D01*
X4442Y9751D01*
Y9802D01*
D02*
G37*
G36*
X4368D02*
X4316D01*
Y9751D01*
X4321Y9751D01*
X4336Y9758D01*
X4350Y9768D01*
X4361Y9782D01*
X4367Y9798D01*
X4368Y9802D01*
D02*
G37*
G36*
X4291D02*
X4239D01*
X4240Y9798D01*
X4246Y9782D01*
X4257Y9768D01*
X4271Y9758D01*
X4286Y9751D01*
X4291Y9751D01*
Y9802D01*
D02*
G37*
G36*
X4217D02*
X4165D01*
Y9751D01*
X4170Y9751D01*
X4185Y9758D01*
X4199Y9768D01*
X4210Y9782D01*
X4216Y9798D01*
X4217Y9802D01*
D02*
G37*
G36*
X4140D02*
X4088D01*
X4089Y9798D01*
X4095Y9782D01*
X4106Y9768D01*
X4120Y9758D01*
X4135Y9751D01*
X4140Y9751D01*
Y9802D01*
D02*
G37*
G36*
X4066D02*
X4014D01*
Y9751D01*
X4019Y9751D01*
X4034Y9758D01*
X4048Y9768D01*
X4059Y9782D01*
X4065Y9798D01*
X4066Y9802D01*
D02*
G37*
G36*
X5449Y9728D02*
Y9677D01*
X5500D01*
X5500Y9681D01*
X5493Y9697D01*
X5483Y9711D01*
X5469Y9721D01*
X5453Y9728D01*
X5449Y9728D01*
D02*
G37*
G36*
X5423D02*
X5419Y9728D01*
X5403Y9721D01*
X5389Y9711D01*
X5379Y9697D01*
X5372Y9681D01*
X5372Y9677D01*
X5423D01*
Y9728D01*
D02*
G37*
G36*
X5298D02*
Y9677D01*
X5349D01*
X5349Y9681D01*
X5342Y9697D01*
X5332Y9711D01*
X5318Y9721D01*
X5302Y9728D01*
X5298Y9728D01*
D02*
G37*
G36*
X4392D02*
Y9677D01*
X4443D01*
X4443Y9681D01*
X4436Y9697D01*
X4426Y9711D01*
X4412Y9721D01*
X4396Y9728D01*
X4392Y9728D01*
D02*
G37*
G36*
X4366D02*
X4362Y9728D01*
X4346Y9721D01*
X4332Y9711D01*
X4322Y9697D01*
X4315Y9681D01*
X4315Y9677D01*
X4366D01*
Y9728D01*
D02*
G37*
G36*
X4241D02*
Y9677D01*
X4292D01*
X4292Y9681D01*
X4285Y9697D01*
X4275Y9711D01*
X4261Y9721D01*
X4245Y9728D01*
X4241Y9728D01*
D02*
G37*
G36*
X4215D02*
X4211Y9728D01*
X4195Y9721D01*
X4181Y9711D01*
X4171Y9697D01*
X4164Y9681D01*
X4164Y9677D01*
X4215D01*
Y9728D01*
D02*
G37*
G36*
X5574Y9651D02*
X5523D01*
X5523Y9647D01*
X5530Y9631D01*
X5540Y9617D01*
X5554Y9607D01*
X5570Y9600D01*
X5574Y9600D01*
Y9651D01*
D02*
G37*
G36*
X5500D02*
X5449D01*
Y9600D01*
X5453Y9600D01*
X5469Y9607D01*
X5483Y9617D01*
X5493Y9631D01*
X5500Y9647D01*
X5500Y9651D01*
D02*
G37*
G36*
X5423D02*
X5372D01*
X5372Y9647D01*
X5379Y9631D01*
X5389Y9617D01*
X5403Y9607D01*
X5419Y9600D01*
X5423Y9600D01*
Y9651D01*
D02*
G37*
G36*
X5349D02*
X5298D01*
Y9600D01*
X5302Y9600D01*
X5318Y9607D01*
X5332Y9617D01*
X5342Y9631D01*
X5349Y9647D01*
X5349Y9651D01*
D02*
G37*
G36*
X4443D02*
X4392D01*
Y9600D01*
X4396Y9600D01*
X4412Y9607D01*
X4426Y9617D01*
X4436Y9631D01*
X4443Y9647D01*
X4443Y9651D01*
D02*
G37*
G36*
X4366D02*
X4315D01*
X4315Y9647D01*
X4322Y9631D01*
X4332Y9617D01*
X4346Y9607D01*
X4362Y9600D01*
X4366Y9600D01*
Y9651D01*
D02*
G37*
G36*
X4292D02*
X4241D01*
Y9600D01*
X4245Y9600D01*
X4261Y9607D01*
X4275Y9617D01*
X4285Y9631D01*
X4292Y9647D01*
X4292Y9651D01*
D02*
G37*
G36*
X4215D02*
X4164D01*
X4164Y9647D01*
X4171Y9631D01*
X4181Y9617D01*
X4195Y9607D01*
X4211Y9600D01*
X4215Y9600D01*
Y9651D01*
D02*
G37*
G36*
X5675Y9577D02*
Y9526D01*
X5727D01*
X5726Y9530D01*
X5720Y9546D01*
X5709Y9560D01*
X5695Y9570D01*
X5680Y9577D01*
X5675Y9577D01*
D02*
G37*
G36*
X5650D02*
X5645Y9577D01*
X5630Y9570D01*
X5616Y9560D01*
X5605Y9546D01*
X5599Y9530D01*
X5598Y9526D01*
X5650D01*
Y9577D01*
D02*
G37*
G36*
X5524D02*
Y9526D01*
X5576D01*
X5575Y9530D01*
X5569Y9546D01*
X5558Y9560D01*
X5544Y9570D01*
X5529Y9577D01*
X5524Y9577D01*
D02*
G37*
G36*
X5499D02*
X5494Y9577D01*
X5479Y9570D01*
X5465Y9560D01*
X5454Y9546D01*
X5448Y9530D01*
X5447Y9526D01*
X5499D01*
Y9577D01*
D02*
G37*
G36*
X5373D02*
Y9526D01*
X5425D01*
X5424Y9530D01*
X5418Y9546D01*
X5407Y9560D01*
X5393Y9570D01*
X5378Y9577D01*
X5373Y9577D01*
D02*
G37*
G36*
X5348D02*
X5343Y9577D01*
X5328Y9570D01*
X5314Y9560D01*
X5303Y9546D01*
X5297Y9530D01*
X5296Y9526D01*
X5348D01*
Y9577D01*
D02*
G37*
G36*
X4442D02*
X4437Y9577D01*
X4422Y9570D01*
X4408Y9560D01*
X4397Y9546D01*
X4391Y9530D01*
X4390Y9526D01*
X4442D01*
Y9577D01*
D02*
G37*
G36*
X4316D02*
Y9526D01*
X4368D01*
X4367Y9530D01*
X4361Y9546D01*
X4350Y9560D01*
X4336Y9570D01*
X4321Y9577D01*
X4316Y9577D01*
D02*
G37*
G36*
X4291D02*
X4286Y9577D01*
X4271Y9570D01*
X4257Y9560D01*
X4246Y9546D01*
X4240Y9530D01*
X4239Y9526D01*
X4291D01*
Y9577D01*
D02*
G37*
G36*
X6029Y9802D02*
X5900D01*
X5901Y9798D01*
X5907Y9782D01*
X5918Y9768D01*
X5932Y9758D01*
X5947Y9751D01*
X5954Y9750D01*
X5961Y9737D01*
X5960Y9735D01*
X5956Y9715D01*
X5960Y9696D01*
X5971Y9679D01*
X5987Y9668D01*
X6007Y9664D01*
X6027Y9668D01*
X6034Y9673D01*
X6103D01*
Y9649D01*
X6293D01*
Y9673D01*
X6319D01*
Y9649D01*
X6354D01*
X6364Y9636D01*
X6362Y9627D01*
X6366Y9607D01*
X6376Y9592D01*
X6372Y9579D01*
X6318D01*
Y9522D01*
X6509D01*
Y9579D01*
X6455D01*
X6451Y9592D01*
X6461Y9607D01*
X6465Y9627D01*
X6463Y9636D01*
X6473Y9649D01*
X6508D01*
Y9789D01*
X6319D01*
Y9765D01*
X6293D01*
Y9789D01*
X6103D01*
Y9765D01*
X6025D01*
X6018Y9778D01*
X6022Y9782D01*
X6028Y9798D01*
X6029Y9802D01*
D02*
G37*
G36*
X6293Y9579D02*
X6210D01*
Y9522D01*
X6293D01*
Y9579D01*
D02*
G37*
G36*
X6185D02*
X6102D01*
Y9522D01*
X6185D01*
Y9579D01*
D02*
G37*
G36*
X5727Y9500D02*
X5675D01*
Y9449D01*
X5680Y9449D01*
X5695Y9456D01*
X5709Y9466D01*
X5720Y9480D01*
X5726Y9496D01*
X5727Y9500D01*
D02*
G37*
G36*
X5650D02*
X5598D01*
X5599Y9496D01*
X5605Y9480D01*
X5616Y9466D01*
X5630Y9456D01*
X5645Y9449D01*
X5650Y9449D01*
Y9500D01*
D02*
G37*
G36*
X5576D02*
X5524D01*
Y9449D01*
X5529Y9449D01*
X5544Y9456D01*
X5558Y9466D01*
X5569Y9480D01*
X5575Y9496D01*
X5576Y9500D01*
D02*
G37*
G36*
X5499D02*
X5447D01*
X5448Y9496D01*
X5454Y9480D01*
X5465Y9466D01*
X5479Y9456D01*
X5494Y9449D01*
X5499Y9449D01*
Y9500D01*
D02*
G37*
G36*
X5425D02*
X5373D01*
Y9449D01*
X5378Y9449D01*
X5393Y9456D01*
X5407Y9466D01*
X5418Y9480D01*
X5424Y9496D01*
X5425Y9500D01*
D02*
G37*
G36*
X5348D02*
X5296D01*
X5297Y9496D01*
X5303Y9480D01*
X5314Y9466D01*
X5328Y9456D01*
X5343Y9449D01*
X5348Y9449D01*
Y9500D01*
D02*
G37*
G36*
X4442D02*
X4390D01*
X4391Y9496D01*
X4397Y9480D01*
X4408Y9466D01*
X4422Y9456D01*
X4437Y9449D01*
X4442Y9449D01*
Y9500D01*
D02*
G37*
G36*
X4368D02*
X4316D01*
Y9449D01*
X4321Y9449D01*
X4336Y9456D01*
X4350Y9466D01*
X4361Y9480D01*
X4367Y9496D01*
X4368Y9500D01*
D02*
G37*
G36*
X4291D02*
X4239D01*
X4240Y9496D01*
X4246Y9480D01*
X4257Y9466D01*
X4271Y9456D01*
X4286Y9449D01*
X4291Y9449D01*
Y9500D01*
D02*
G37*
G36*
X6509Y9496D02*
X6426D01*
Y9439D01*
X6476D01*
X6477Y9426D01*
X6476Y9426D01*
X6460Y9419D01*
X6446Y9409D01*
X6436Y9395D01*
X6429Y9379D01*
X6429Y9375D01*
X6557D01*
X6557Y9379D01*
X6550Y9395D01*
X6540Y9409D01*
X6526Y9419D01*
X6510Y9426D01*
X6509Y9426D01*
X6509Y9439D01*
X6509Y9439D01*
Y9496D01*
D02*
G37*
G36*
X6401D02*
X6318D01*
Y9439D01*
X6325D01*
X6326Y9426D01*
X6325Y9426D01*
X6309Y9419D01*
X6295Y9409D01*
X6285Y9395D01*
X6278Y9379D01*
X6278Y9375D01*
X6406D01*
X6406Y9379D01*
X6399Y9395D01*
X6389Y9409D01*
X6375Y9419D01*
X6359Y9426D01*
X6358Y9426D01*
X6359Y9439D01*
X6401D01*
Y9496D01*
D02*
G37*
G36*
X6293D02*
X6102D01*
Y9439D01*
X6174D01*
X6175Y9426D01*
X6174Y9426D01*
X6158Y9419D01*
X6144Y9409D01*
X6134Y9395D01*
X6127Y9379D01*
X6127Y9375D01*
X6255D01*
X6255Y9379D01*
X6248Y9395D01*
X6238Y9409D01*
X6224Y9419D01*
X6208Y9426D01*
X6207Y9426D01*
X6208Y9439D01*
X6293D01*
Y9496D01*
D02*
G37*
G36*
X5751Y9426D02*
Y9375D01*
X5802D01*
X5802Y9379D01*
X5795Y9395D01*
X5785Y9409D01*
X5771Y9419D01*
X5755Y9426D01*
X5751Y9426D01*
D02*
G37*
G36*
X5725D02*
X5721Y9426D01*
X5705Y9419D01*
X5691Y9409D01*
X5681Y9395D01*
X5674Y9379D01*
X5674Y9375D01*
X5725D01*
Y9426D01*
D02*
G37*
G36*
X5600D02*
Y9375D01*
X5651D01*
X5651Y9379D01*
X5644Y9395D01*
X5634Y9409D01*
X5620Y9419D01*
X5604Y9426D01*
X5600Y9426D01*
D02*
G37*
G36*
X5574D02*
X5570Y9426D01*
X5554Y9419D01*
X5540Y9409D01*
X5530Y9395D01*
X5523Y9379D01*
X5523Y9375D01*
X5574D01*
Y9426D01*
D02*
G37*
G36*
X5449D02*
Y9375D01*
X5500D01*
X5500Y9379D01*
X5493Y9395D01*
X5483Y9409D01*
X5469Y9419D01*
X5453Y9426D01*
X5449Y9426D01*
D02*
G37*
G36*
X5423D02*
X5419Y9426D01*
X5403Y9419D01*
X5389Y9409D01*
X5379Y9395D01*
X5372Y9379D01*
X5372Y9375D01*
X5423D01*
Y9426D01*
D02*
G37*
G36*
X4392D02*
Y9375D01*
X4443D01*
X4443Y9379D01*
X4436Y9395D01*
X4426Y9409D01*
X4412Y9419D01*
X4396Y9426D01*
X4392Y9426D01*
D02*
G37*
G36*
X4366D02*
X4362Y9426D01*
X4346Y9419D01*
X4332Y9409D01*
X4322Y9395D01*
X4315Y9379D01*
X4315Y9375D01*
X4366D01*
Y9426D01*
D02*
G37*
G36*
X6557Y9349D02*
X6506D01*
Y9298D01*
X6510Y9298D01*
X6526Y9305D01*
X6540Y9315D01*
X6550Y9329D01*
X6557Y9345D01*
X6557Y9349D01*
D02*
G37*
G36*
X6480D02*
X6429D01*
X6429Y9345D01*
X6436Y9329D01*
X6446Y9315D01*
X6460Y9305D01*
X6476Y9298D01*
X6480Y9298D01*
Y9349D01*
D02*
G37*
G36*
X6406D02*
X6355D01*
Y9298D01*
X6359Y9298D01*
X6375Y9305D01*
X6389Y9315D01*
X6399Y9329D01*
X6406Y9345D01*
X6406Y9349D01*
D02*
G37*
G36*
X6329D02*
X6278D01*
X6278Y9345D01*
X6285Y9329D01*
X6295Y9315D01*
X6309Y9305D01*
X6325Y9298D01*
X6329Y9298D01*
Y9349D01*
D02*
G37*
G36*
X6255D02*
X6204D01*
Y9298D01*
X6208Y9298D01*
X6224Y9305D01*
X6238Y9315D01*
X6248Y9329D01*
X6255Y9345D01*
X6255Y9349D01*
D02*
G37*
G36*
X6178D02*
X6127D01*
X6127Y9345D01*
X6134Y9329D01*
X6144Y9315D01*
X6158Y9305D01*
X6174Y9298D01*
X6178Y9298D01*
Y9349D01*
D02*
G37*
G36*
X5802D02*
X5751D01*
Y9298D01*
X5755Y9298D01*
X5771Y9305D01*
X5785Y9315D01*
X5795Y9329D01*
X5802Y9345D01*
X5802Y9349D01*
D02*
G37*
G36*
X5725D02*
X5674D01*
X5674Y9345D01*
X5681Y9329D01*
X5691Y9315D01*
X5705Y9305D01*
X5721Y9298D01*
X5725Y9298D01*
Y9349D01*
D02*
G37*
G36*
X5651D02*
X5600D01*
Y9298D01*
X5604Y9298D01*
X5620Y9305D01*
X5634Y9315D01*
X5644Y9329D01*
X5651Y9345D01*
X5651Y9349D01*
D02*
G37*
G36*
X5574D02*
X5523D01*
X5523Y9345D01*
X5530Y9329D01*
X5540Y9315D01*
X5554Y9305D01*
X5570Y9298D01*
X5574Y9298D01*
Y9349D01*
D02*
G37*
G36*
X5500D02*
X5449D01*
Y9298D01*
X5453Y9298D01*
X5469Y9305D01*
X5483Y9315D01*
X5493Y9329D01*
X5500Y9345D01*
X5500Y9349D01*
D02*
G37*
G36*
X5423D02*
X5372D01*
X5372Y9345D01*
X5379Y9329D01*
X5389Y9315D01*
X5403Y9305D01*
X5419Y9298D01*
X5423Y9298D01*
Y9349D01*
D02*
G37*
G36*
X4443D02*
X4392D01*
Y9298D01*
X4396Y9298D01*
X4412Y9305D01*
X4426Y9315D01*
X4436Y9329D01*
X4443Y9345D01*
X4443Y9349D01*
D02*
G37*
G36*
X4366D02*
X4315D01*
X4315Y9345D01*
X4322Y9329D01*
X4332Y9315D01*
X4346Y9305D01*
X4362Y9298D01*
X4366Y9298D01*
Y9349D01*
D02*
G37*
G36*
X5675Y9275D02*
Y9224D01*
X5727D01*
X5726Y9228D01*
X5720Y9244D01*
X5709Y9258D01*
X5695Y9268D01*
X5680Y9275D01*
X5675Y9275D01*
D02*
G37*
G36*
X5650D02*
X5645Y9275D01*
X5630Y9268D01*
X5616Y9258D01*
X5605Y9244D01*
X5599Y9228D01*
X5598Y9224D01*
X5650D01*
Y9275D01*
D02*
G37*
G36*
X5524D02*
Y9224D01*
X5576D01*
X5575Y9228D01*
X5569Y9244D01*
X5558Y9258D01*
X5544Y9268D01*
X5529Y9275D01*
X5524Y9275D01*
D02*
G37*
G36*
X5499D02*
X5494Y9275D01*
X5479Y9268D01*
X5465Y9258D01*
X5454Y9244D01*
X5448Y9228D01*
X5447Y9224D01*
X5499D01*
Y9275D01*
D02*
G37*
G36*
X4467D02*
Y9224D01*
X4519D01*
X4518Y9228D01*
X4512Y9244D01*
X4501Y9258D01*
X4487Y9268D01*
X4472Y9275D01*
X4467Y9275D01*
D02*
G37*
G36*
X4442D02*
X4437Y9275D01*
X4422Y9268D01*
X4408Y9258D01*
X4397Y9244D01*
X4391Y9228D01*
X4390Y9224D01*
X4442D01*
Y9275D01*
D02*
G37*
G36*
X5727Y9198D02*
X5675D01*
Y9147D01*
X5680Y9147D01*
X5695Y9154D01*
X5709Y9164D01*
X5720Y9178D01*
X5726Y9194D01*
X5727Y9198D01*
D02*
G37*
G36*
X5650D02*
X5598D01*
X5599Y9194D01*
X5605Y9178D01*
X5616Y9164D01*
X5630Y9154D01*
X5645Y9147D01*
X5650Y9147D01*
Y9198D01*
D02*
G37*
G36*
X5576D02*
X5524D01*
Y9147D01*
X5529Y9147D01*
X5544Y9154D01*
X5558Y9164D01*
X5569Y9178D01*
X5575Y9194D01*
X5576Y9198D01*
D02*
G37*
G36*
X5499D02*
X5447D01*
X5448Y9194D01*
X5454Y9178D01*
X5465Y9164D01*
X5479Y9154D01*
X5494Y9147D01*
X5499Y9147D01*
Y9198D01*
D02*
G37*
G36*
X4519D02*
X4467D01*
Y9147D01*
X4472Y9147D01*
X4487Y9154D01*
X4501Y9164D01*
X4512Y9178D01*
X4518Y9194D01*
X4519Y9198D01*
D02*
G37*
G36*
X4442D02*
X4390D01*
X4391Y9194D01*
X4397Y9178D01*
X4408Y9164D01*
X4422Y9154D01*
X4437Y9147D01*
X4442Y9147D01*
Y9198D01*
D02*
G37*
G36*
X3835Y9182D02*
X3769D01*
X3770Y9174D01*
X3778Y9154D01*
X3791Y9137D01*
X3808Y9125D01*
X3827Y9116D01*
X3835Y9115D01*
Y9182D01*
D02*
G37*
G36*
X5751Y9124D02*
Y9073D01*
X5802D01*
X5802Y9077D01*
X5795Y9093D01*
X5785Y9107D01*
X5771Y9117D01*
X5755Y9124D01*
X5751Y9124D01*
D02*
G37*
G36*
X5725D02*
X5721Y9124D01*
X5705Y9117D01*
X5691Y9107D01*
X5681Y9093D01*
X5674Y9077D01*
X5674Y9073D01*
X5725D01*
Y9124D01*
D02*
G37*
G36*
X5600D02*
Y9073D01*
X5651D01*
X5651Y9077D01*
X5644Y9093D01*
X5634Y9107D01*
X5620Y9117D01*
X5604Y9124D01*
X5600Y9124D01*
D02*
G37*
G36*
X5574D02*
X5570Y9124D01*
X5554Y9117D01*
X5540Y9107D01*
X5530Y9093D01*
X5523Y9077D01*
X5523Y9073D01*
X5574D01*
Y9124D01*
D02*
G37*
G36*
X5449D02*
Y9073D01*
X5500D01*
X5500Y9077D01*
X5493Y9093D01*
X5483Y9107D01*
X5469Y9117D01*
X5453Y9124D01*
X5449Y9124D01*
D02*
G37*
G36*
X5423D02*
X5419Y9124D01*
X5403Y9117D01*
X5389Y9107D01*
X5379Y9093D01*
X5372Y9077D01*
X5372Y9073D01*
X5423D01*
Y9124D01*
D02*
G37*
G36*
X4543D02*
Y9073D01*
X4594D01*
X4594Y9077D01*
X4587Y9093D01*
X4577Y9107D01*
X4563Y9117D01*
X4547Y9124D01*
X4543Y9124D01*
D02*
G37*
G36*
X3939D02*
Y9073D01*
X3990D01*
X3990Y9077D01*
X3983Y9093D01*
X3973Y9107D01*
X3959Y9117D01*
X3943Y9124D01*
X3939Y9124D01*
D02*
G37*
G36*
X3928Y9182D02*
X3861D01*
Y9115D01*
X3869Y9116D01*
X3874Y9118D01*
X3880Y9107D01*
X3879Y9107D01*
X3869Y9093D01*
X3862Y9077D01*
X3862Y9073D01*
X3913D01*
Y9124D01*
X3909Y9124D01*
X3908Y9123D01*
X3901Y9134D01*
X3905Y9137D01*
X3918Y9154D01*
X3926Y9174D01*
X3928Y9182D01*
D02*
G37*
G36*
X4594Y9047D02*
X4543D01*
Y8996D01*
X4547Y8996D01*
X4563Y9003D01*
X4577Y9013D01*
X4587Y9027D01*
X4594Y9043D01*
X4594Y9047D01*
D02*
G37*
G36*
X3990D02*
X3939D01*
Y8996D01*
X3943Y8996D01*
X3959Y9003D01*
X3973Y9013D01*
X3983Y9027D01*
X3990Y9043D01*
X3990Y9047D01*
D02*
G37*
G36*
X3913D02*
X3862D01*
X3862Y9043D01*
X3869Y9027D01*
X3879Y9013D01*
X3893Y9003D01*
X3909Y8996D01*
X3913Y8996D01*
Y9047D01*
D02*
G37*
G36*
X3989Y8973D02*
X3984Y8973D01*
X3969Y8966D01*
X3955Y8956D01*
X3944Y8942D01*
X3938Y8926D01*
X3937Y8922D01*
X3989D01*
Y8973D01*
D02*
G37*
G36*
Y8896D02*
X3937D01*
X3938Y8892D01*
X3944Y8876D01*
X3955Y8862D01*
X3969Y8852D01*
X3984Y8845D01*
X3989Y8845D01*
Y8896D01*
D02*
G37*
G36*
X5182Y8878D02*
Y8826D01*
X5233D01*
X5233Y8831D01*
X5226Y8847D01*
X5216Y8860D01*
X5202Y8871D01*
X5186Y8878D01*
X5182Y8878D01*
D02*
G37*
G36*
X5156D02*
X5152Y8878D01*
X5136Y8871D01*
X5122Y8860D01*
X5112Y8847D01*
X5105Y8831D01*
X5105Y8826D01*
X5156D01*
Y8878D01*
D02*
G37*
G36*
X6657Y8822D02*
Y8771D01*
X6708D01*
X6708Y8775D01*
X6701Y8791D01*
X6691Y8805D01*
X6677Y8815D01*
X6661Y8822D01*
X6657Y8822D01*
D02*
G37*
G36*
X6631D02*
X6627Y8822D01*
X6611Y8815D01*
X6597Y8805D01*
X6587Y8791D01*
X6580Y8775D01*
X6580Y8771D01*
X6631D01*
Y8822D01*
D02*
G37*
G36*
X6506D02*
Y8771D01*
X6557D01*
X6557Y8775D01*
X6550Y8791D01*
X6540Y8805D01*
X6526Y8815D01*
X6510Y8822D01*
X6506Y8822D01*
D02*
G37*
G36*
X6480D02*
X6476Y8822D01*
X6460Y8815D01*
X6446Y8805D01*
X6436Y8791D01*
X6429Y8775D01*
X6429Y8771D01*
X6480D01*
Y8822D01*
D02*
G37*
G36*
X6355D02*
Y8771D01*
X6406D01*
X6406Y8775D01*
X6399Y8791D01*
X6389Y8805D01*
X6375Y8815D01*
X6359Y8822D01*
X6355Y8822D01*
D02*
G37*
G36*
X6329D02*
X6325Y8822D01*
X6309Y8815D01*
X6295Y8805D01*
X6285Y8791D01*
X6278Y8775D01*
X6278Y8771D01*
X6329D01*
Y8822D01*
D02*
G37*
G36*
X3939D02*
Y8771D01*
X3990D01*
X3990Y8775D01*
X3983Y8791D01*
X3973Y8805D01*
X3959Y8815D01*
X3943Y8822D01*
X3939Y8822D01*
D02*
G37*
G36*
X3913D02*
X3909Y8822D01*
X3893Y8815D01*
X3879Y8805D01*
X3869Y8791D01*
X3862Y8775D01*
X3862Y8771D01*
X3913D01*
Y8822D01*
D02*
G37*
G36*
X5233Y8801D02*
X5182D01*
Y8750D01*
X5186Y8750D01*
X5202Y8757D01*
X5216Y8767D01*
X5226Y8781D01*
X5233Y8797D01*
X5233Y8801D01*
D02*
G37*
G36*
X5156D02*
X5105D01*
X5105Y8797D01*
X5112Y8781D01*
X5122Y8767D01*
X5136Y8757D01*
X5152Y8750D01*
X5156Y8750D01*
Y8801D01*
D02*
G37*
G36*
X6708Y8745D02*
X6657D01*
Y8694D01*
X6661Y8694D01*
X6677Y8701D01*
X6691Y8711D01*
X6701Y8725D01*
X6708Y8741D01*
X6708Y8745D01*
D02*
G37*
G36*
X6631D02*
X6580D01*
X6580Y8741D01*
X6587Y8725D01*
X6597Y8711D01*
X6611Y8701D01*
X6627Y8694D01*
X6631Y8694D01*
Y8745D01*
D02*
G37*
G36*
X6557D02*
X6506D01*
Y8694D01*
X6510Y8694D01*
X6526Y8701D01*
X6540Y8711D01*
X6550Y8725D01*
X6557Y8741D01*
X6557Y8745D01*
D02*
G37*
G36*
X6480D02*
X6429D01*
X6429Y8741D01*
X6436Y8725D01*
X6446Y8711D01*
X6460Y8701D01*
X6476Y8694D01*
X6480Y8694D01*
Y8745D01*
D02*
G37*
G36*
X6406D02*
X6355D01*
Y8694D01*
X6359Y8694D01*
X6375Y8701D01*
X6389Y8711D01*
X6399Y8725D01*
X6406Y8741D01*
X6406Y8745D01*
D02*
G37*
G36*
X3990D02*
X3939D01*
Y8694D01*
X3943Y8694D01*
X3959Y8701D01*
X3973Y8711D01*
X3983Y8725D01*
X3990Y8741D01*
X3990Y8745D01*
D02*
G37*
G36*
X3913D02*
X3862D01*
X3862Y8741D01*
X3869Y8725D01*
X3879Y8711D01*
X3893Y8701D01*
X3909Y8694D01*
X3913Y8694D01*
Y8745D01*
D02*
G37*
G36*
X6707Y8671D02*
X6702Y8671D01*
X6687Y8664D01*
X6673Y8654D01*
X6662Y8640D01*
X6656Y8624D01*
X6655Y8620D01*
X6707D01*
Y8671D01*
D02*
G37*
G36*
X6581D02*
Y8620D01*
X6633D01*
X6632Y8624D01*
X6626Y8640D01*
X6615Y8654D01*
X6601Y8664D01*
X6586Y8671D01*
X6581Y8671D01*
D02*
G37*
G36*
X6556D02*
X6551Y8671D01*
X6536Y8664D01*
X6522Y8654D01*
X6511Y8640D01*
X6505Y8624D01*
X6504Y8620D01*
X6556D01*
Y8671D01*
D02*
G37*
G36*
X6430D02*
Y8620D01*
X6482D01*
X6481Y8624D01*
X6475Y8640D01*
X6464Y8654D01*
X6450Y8664D01*
X6435Y8671D01*
X6430Y8671D01*
D02*
G37*
G36*
X6707Y8594D02*
X6655D01*
X6656Y8590D01*
X6662Y8574D01*
X6673Y8560D01*
X6687Y8550D01*
X6702Y8543D01*
X6707Y8543D01*
Y8594D01*
D02*
G37*
G36*
X6633D02*
X6581D01*
Y8543D01*
X6586Y8543D01*
X6601Y8550D01*
X6615Y8560D01*
X6626Y8574D01*
X6632Y8590D01*
X6633Y8594D01*
D02*
G37*
G36*
X6556D02*
X6504D01*
X6505Y8590D01*
X6511Y8574D01*
X6522Y8560D01*
X6536Y8550D01*
X6551Y8543D01*
X6556Y8543D01*
Y8594D01*
D02*
G37*
G36*
X6482D02*
X6430D01*
Y8543D01*
X6435Y8543D01*
X6450Y8550D01*
X6464Y8560D01*
X6475Y8574D01*
X6481Y8590D01*
X6482Y8594D01*
D02*
G37*
G36*
X4724Y8494D02*
Y8436D01*
X4807D01*
Y8494D01*
X4724D01*
D02*
G37*
G36*
X4807Y8411D02*
X4724D01*
Y8353D01*
X4807D01*
Y8411D01*
D02*
G37*
G36*
X6496Y8303D02*
X6413D01*
Y8246D01*
X6496D01*
Y8303D01*
D02*
G37*
G36*
X6388D02*
X6305D01*
Y8246D01*
X6388D01*
Y8303D01*
D02*
G37*
G36*
X6496Y8220D02*
X6413D01*
Y8163D01*
X6496D01*
Y8220D01*
D02*
G37*
G36*
X6388D02*
X6305D01*
Y8163D01*
X6388D01*
Y8220D01*
D02*
G37*
G36*
X6280Y8005D02*
X6198D01*
Y7953D01*
X6280D01*
Y8005D01*
D02*
G37*
G36*
X6172D02*
X6090D01*
Y7953D01*
X6172D01*
Y8005D01*
D02*
G37*
G36*
X5547Y7893D02*
X5489D01*
Y7811D01*
X5547D01*
Y7893D01*
D02*
G37*
G36*
X4066Y7688D02*
X4014D01*
Y7637D01*
X4019Y7637D01*
X4034Y7644D01*
X4048Y7654D01*
X4059Y7668D01*
X4065Y7684D01*
X4066Y7688D01*
D02*
G37*
G36*
X4356Y7617D02*
X4273D01*
Y7612D01*
X4262Y7606D01*
X4261Y7607D01*
X4245Y7614D01*
X4241Y7614D01*
Y7550D01*
Y7486D01*
X4245Y7486D01*
X4261Y7493D01*
X4268Y7499D01*
X4273Y7496D01*
Y7496D01*
X4356D01*
Y7557D01*
Y7617D01*
D02*
G37*
G36*
X4464D02*
X4381D01*
Y7569D01*
X4464D01*
Y7617D01*
D02*
G37*
G36*
X4215Y7614D02*
X4211Y7614D01*
X4195Y7607D01*
X4181Y7597D01*
X4171Y7583D01*
X4164Y7567D01*
X4164Y7563D01*
X4215D01*
Y7614D01*
D02*
G37*
G36*
X4090D02*
Y7563D01*
X4141D01*
X4141Y7567D01*
X4134Y7583D01*
X4124Y7597D01*
X4110Y7607D01*
X4094Y7614D01*
X4090Y7614D01*
D02*
G37*
G36*
X4064D02*
X4060Y7614D01*
X4044Y7607D01*
X4030Y7597D01*
X4020Y7583D01*
X4013Y7567D01*
X4013Y7563D01*
X4064D01*
Y7614D01*
D02*
G37*
G36*
X3939D02*
Y7563D01*
X3990D01*
X3990Y7567D01*
X3983Y7583D01*
X3973Y7597D01*
X3959Y7607D01*
X3943Y7614D01*
X3939Y7614D01*
D02*
G37*
G36*
X3913D02*
X3909Y7614D01*
X3893Y7607D01*
X3879Y7597D01*
X3869Y7583D01*
X3862Y7567D01*
X3862Y7563D01*
X3913D01*
Y7614D01*
D02*
G37*
G36*
X4464Y7544D02*
X4381D01*
Y7496D01*
X4464D01*
Y7544D01*
D02*
G37*
G36*
X4215Y7537D02*
X4164D01*
X4164Y7533D01*
X4171Y7517D01*
X4181Y7503D01*
X4195Y7493D01*
X4211Y7486D01*
X4215Y7486D01*
Y7537D01*
D02*
G37*
G36*
X4141D02*
X4090D01*
Y7486D01*
X4094Y7486D01*
X4110Y7493D01*
X4124Y7503D01*
X4134Y7517D01*
X4141Y7533D01*
X4141Y7537D01*
D02*
G37*
G36*
X4064D02*
X4013D01*
X4013Y7533D01*
X4020Y7517D01*
X4030Y7503D01*
X4044Y7493D01*
X4060Y7486D01*
X4064Y7486D01*
Y7537D01*
D02*
G37*
G36*
X3990D02*
X3939D01*
Y7486D01*
X3943Y7486D01*
X3959Y7493D01*
X3973Y7503D01*
X3983Y7517D01*
X3990Y7533D01*
X3990Y7537D01*
D02*
G37*
G36*
X3913D02*
X3862D01*
X3862Y7533D01*
X3869Y7517D01*
X3879Y7503D01*
X3893Y7493D01*
X3909Y7486D01*
X3913Y7486D01*
Y7537D01*
D02*
G37*
G36*
X5239Y7496D02*
X5156D01*
Y7439D01*
X5239D01*
Y7496D01*
D02*
G37*
G36*
X5131D02*
X5048D01*
Y7439D01*
X5131D01*
Y7496D01*
D02*
G37*
G36*
X4165Y7463D02*
Y7412D01*
X4217D01*
X4216Y7416D01*
X4210Y7432D01*
X4199Y7446D01*
X4185Y7456D01*
X4170Y7463D01*
X4165Y7463D01*
D02*
G37*
G36*
X4140D02*
X4135Y7463D01*
X4120Y7456D01*
X4106Y7446D01*
X4095Y7432D01*
X4089Y7416D01*
X4088Y7412D01*
X4140D01*
Y7463D01*
D02*
G37*
G36*
X4014D02*
Y7412D01*
X4066D01*
X4065Y7416D01*
X4059Y7432D01*
X4048Y7446D01*
X4034Y7456D01*
X4019Y7463D01*
X4014Y7463D01*
D02*
G37*
G36*
X3989D02*
X3984Y7463D01*
X3969Y7456D01*
X3955Y7446D01*
X3944Y7432D01*
X3938Y7416D01*
X3937Y7412D01*
X3989D01*
Y7463D01*
D02*
G37*
G36*
X4464Y7464D02*
X4274D01*
Y7344D01*
X4464D01*
Y7464D01*
D02*
G37*
G36*
X4217Y7386D02*
X4165D01*
Y7335D01*
X4170Y7335D01*
X4185Y7342D01*
X4199Y7352D01*
X4210Y7366D01*
X4216Y7382D01*
X4217Y7386D01*
D02*
G37*
G36*
X4140D02*
X4088D01*
X4089Y7382D01*
X4095Y7366D01*
X4106Y7352D01*
X4120Y7342D01*
X4135Y7335D01*
X4140Y7335D01*
Y7386D01*
D02*
G37*
G36*
X4066D02*
X4014D01*
Y7335D01*
X4019Y7335D01*
X4034Y7342D01*
X4048Y7352D01*
X4059Y7366D01*
X4065Y7382D01*
X4066Y7386D01*
D02*
G37*
G36*
X3989D02*
X3937D01*
X3938Y7382D01*
X3944Y7366D01*
X3955Y7352D01*
X3969Y7342D01*
X3984Y7335D01*
X3989Y7335D01*
Y7386D01*
D02*
G37*
G36*
X5347Y7375D02*
X5264D01*
Y7318D01*
X5347D01*
Y7375D01*
D02*
G37*
G36*
X4215Y7312D02*
X4211Y7312D01*
X4195Y7305D01*
X4181Y7295D01*
X4171Y7281D01*
X4164Y7265D01*
X4164Y7261D01*
X4215D01*
Y7312D01*
D02*
G37*
G36*
X4090D02*
Y7261D01*
X4141D01*
X4141Y7265D01*
X4134Y7281D01*
X4124Y7295D01*
X4110Y7305D01*
X4094Y7312D01*
X4090Y7312D01*
D02*
G37*
G36*
X4064D02*
X4060Y7312D01*
X4044Y7305D01*
X4030Y7295D01*
X4020Y7281D01*
X4013Y7265D01*
X4013Y7261D01*
X4064D01*
Y7312D01*
D02*
G37*
G36*
X3939D02*
Y7261D01*
X3990D01*
X3990Y7265D01*
X3983Y7281D01*
X3973Y7295D01*
X3959Y7305D01*
X3943Y7312D01*
X3939Y7312D01*
D02*
G37*
G36*
X3913D02*
X3909Y7312D01*
X3893Y7305D01*
X3879Y7295D01*
X3869Y7281D01*
X3862Y7265D01*
X3862Y7261D01*
X3913D01*
Y7312D01*
D02*
G37*
G36*
X4826Y7288D02*
Y7252D01*
X4862D01*
X4861Y7259D01*
X4850Y7275D01*
X4833Y7286D01*
X4826Y7288D01*
D02*
G37*
G36*
X4241Y7312D02*
Y7248D01*
Y7184D01*
X4245Y7184D01*
X4261Y7191D01*
X4267Y7195D01*
X4274Y7192D01*
Y7192D01*
X4464D01*
Y7312D01*
X4274D01*
Y7310D01*
X4262Y7304D01*
X4261Y7305D01*
X4245Y7312D01*
X4241Y7312D01*
D02*
G37*
G36*
X4862Y7226D02*
X4826D01*
Y7190D01*
X4833Y7192D01*
X4850Y7203D01*
X4861Y7219D01*
X4862Y7226D01*
D02*
G37*
G36*
X4801D02*
X4764D01*
X4766Y7219D01*
X4777Y7203D01*
X4794Y7192D01*
X4801Y7190D01*
Y7226D01*
D02*
G37*
G36*
X4215Y7235D02*
X4164D01*
X4164Y7231D01*
X4171Y7215D01*
X4181Y7201D01*
X4195Y7191D01*
X4211Y7184D01*
X4215Y7184D01*
Y7235D01*
D02*
G37*
G36*
X4141D02*
X4090D01*
Y7184D01*
X4094Y7184D01*
X4110Y7191D01*
X4124Y7201D01*
X4134Y7215D01*
X4141Y7231D01*
X4141Y7235D01*
D02*
G37*
G36*
X4064D02*
X4013D01*
X4013Y7231D01*
X4020Y7215D01*
X4030Y7201D01*
X4044Y7191D01*
X4060Y7184D01*
X4064Y7184D01*
Y7235D01*
D02*
G37*
G36*
X3990D02*
X3939D01*
Y7184D01*
X3943Y7184D01*
X3959Y7191D01*
X3973Y7201D01*
X3983Y7215D01*
X3990Y7231D01*
X3990Y7235D01*
D02*
G37*
G36*
X3913D02*
X3862D01*
X3862Y7231D01*
X3869Y7215D01*
X3879Y7201D01*
X3893Y7191D01*
X3909Y7184D01*
X3913Y7184D01*
Y7235D01*
D02*
G37*
G36*
X4467Y7161D02*
Y7110D01*
X4519D01*
X4518Y7114D01*
X4512Y7130D01*
X4501Y7144D01*
X4487Y7154D01*
X4472Y7161D01*
X4467Y7161D01*
D02*
G37*
G36*
X4442D02*
X4437Y7161D01*
X4422Y7154D01*
X4408Y7144D01*
X4397Y7130D01*
X4391Y7114D01*
X4390Y7110D01*
X4442D01*
Y7161D01*
D02*
G37*
G36*
X4316D02*
Y7110D01*
X4368D01*
X4367Y7114D01*
X4361Y7130D01*
X4350Y7144D01*
X4336Y7154D01*
X4321Y7161D01*
X4316Y7161D01*
D02*
G37*
G36*
X4291D02*
X4286Y7161D01*
X4271Y7154D01*
X4257Y7144D01*
X4246Y7130D01*
X4240Y7114D01*
X4239Y7110D01*
X4291D01*
Y7161D01*
D02*
G37*
G36*
X4165D02*
Y7110D01*
X4217D01*
X4216Y7114D01*
X4210Y7130D01*
X4199Y7144D01*
X4185Y7154D01*
X4170Y7161D01*
X4165Y7161D01*
D02*
G37*
G36*
X4140D02*
X4135Y7161D01*
X4120Y7154D01*
X4106Y7144D01*
X4095Y7130D01*
X4089Y7114D01*
X4088Y7110D01*
X4140D01*
Y7161D01*
D02*
G37*
G36*
X5197Y7084D02*
X5145D01*
X5146Y7080D01*
X5152Y7064D01*
X5163Y7050D01*
X5177Y7040D01*
X5192Y7033D01*
X5197Y7033D01*
Y7084D01*
D02*
G37*
G36*
X4519D02*
X4467D01*
Y7033D01*
X4472Y7033D01*
X4487Y7040D01*
X4501Y7050D01*
X4512Y7064D01*
X4518Y7080D01*
X4519Y7084D01*
D02*
G37*
G36*
X4442D02*
X4390D01*
X4391Y7080D01*
X4397Y7064D01*
X4408Y7050D01*
X4422Y7040D01*
X4437Y7033D01*
X4442Y7033D01*
Y7084D01*
D02*
G37*
G36*
X4368D02*
X4316D01*
Y7033D01*
X4321Y7033D01*
X4336Y7040D01*
X4350Y7050D01*
X4361Y7064D01*
X4367Y7080D01*
X4368Y7084D01*
D02*
G37*
G36*
X4291D02*
X4239D01*
X4240Y7080D01*
X4246Y7064D01*
X4257Y7050D01*
X4271Y7040D01*
X4286Y7033D01*
X4291Y7033D01*
Y7084D01*
D02*
G37*
G36*
X4217D02*
X4165D01*
Y7033D01*
X4170Y7033D01*
X4185Y7040D01*
X4199Y7050D01*
X4210Y7064D01*
X4216Y7080D01*
X4217Y7084D01*
D02*
G37*
G36*
X4140D02*
X4088D01*
X4089Y7080D01*
X4095Y7064D01*
X4106Y7050D01*
X4120Y7040D01*
X4135Y7033D01*
X4140Y7033D01*
Y7084D01*
D02*
G37*
G36*
X5651Y7010D02*
X5600D01*
X5600Y7006D01*
X5607Y6990D01*
X5618Y6976D01*
X5631Y6966D01*
X5647Y6959D01*
X5651Y6959D01*
Y7010D01*
D02*
G37*
G36*
X4392Y7010D02*
Y6959D01*
X4443D01*
X4443Y6963D01*
X4436Y6979D01*
X4426Y6993D01*
X4412Y7003D01*
X4396Y7010D01*
X4392Y7010D01*
D02*
G37*
G36*
X4366D02*
X4362Y7010D01*
X4346Y7003D01*
X4332Y6993D01*
X4322Y6979D01*
X4315Y6963D01*
X4315Y6959D01*
X4366D01*
Y7010D01*
D02*
G37*
G36*
X4241D02*
Y6959D01*
X4292D01*
X4292Y6963D01*
X4285Y6979D01*
X4275Y6993D01*
X4261Y7003D01*
X4245Y7010D01*
X4241Y7010D01*
D02*
G37*
G36*
X4215D02*
X4211Y7010D01*
X4195Y7003D01*
X4181Y6993D01*
X4171Y6979D01*
X4164Y6963D01*
X4164Y6959D01*
X4215D01*
Y7010D01*
D02*
G37*
G36*
X4443Y6933D02*
X4392D01*
Y6882D01*
X4396Y6882D01*
X4412Y6889D01*
X4426Y6899D01*
X4436Y6913D01*
X4443Y6929D01*
X4443Y6933D01*
D02*
G37*
G36*
X4366D02*
X4315D01*
X4315Y6929D01*
X4322Y6913D01*
X4332Y6899D01*
X4346Y6889D01*
X4362Y6882D01*
X4366Y6882D01*
Y6933D01*
D02*
G37*
G36*
X4292D02*
X4241D01*
Y6882D01*
X4245Y6882D01*
X4261Y6889D01*
X4275Y6899D01*
X4285Y6913D01*
X4292Y6929D01*
X4292Y6933D01*
D02*
G37*
G36*
X4215D02*
X4164D01*
X4164Y6929D01*
X4171Y6913D01*
X4181Y6899D01*
X4195Y6889D01*
X4211Y6882D01*
X4215Y6882D01*
Y6933D01*
D02*
G37*
G36*
X4868Y6941D02*
X4810D01*
Y6858D01*
X4868D01*
Y6941D01*
D02*
G37*
G36*
X4785D02*
X4727D01*
Y6858D01*
X4785D01*
Y6941D01*
D02*
G37*
G36*
X4618Y6859D02*
Y6808D01*
X4670D01*
X4669Y6812D01*
X4663Y6828D01*
X4652Y6842D01*
X4638Y6852D01*
X4623Y6859D01*
X4618Y6859D01*
D02*
G37*
G36*
X4593D02*
X4588Y6859D01*
X4573Y6852D01*
X4559Y6842D01*
X4548Y6828D01*
X4542Y6812D01*
X4541Y6808D01*
X4593D01*
Y6859D01*
D02*
G37*
G36*
X4316D02*
Y6808D01*
X4368D01*
X4367Y6812D01*
X4361Y6828D01*
X4350Y6842D01*
X4336Y6852D01*
X4321Y6859D01*
X4316Y6859D01*
D02*
G37*
G36*
X4291D02*
X4286Y6859D01*
X4271Y6852D01*
X4257Y6842D01*
X4246Y6828D01*
X4240Y6812D01*
X4239Y6808D01*
X4291D01*
Y6859D01*
D02*
G37*
G36*
X4165D02*
Y6808D01*
X4217D01*
X4216Y6812D01*
X4210Y6828D01*
X4199Y6842D01*
X4185Y6852D01*
X4170Y6859D01*
X4165Y6859D01*
D02*
G37*
G36*
X4140D02*
X4135Y6859D01*
X4120Y6852D01*
X4106Y6842D01*
X4095Y6828D01*
X4089Y6812D01*
X4088Y6808D01*
X4140D01*
Y6859D01*
D02*
G37*
G36*
X4014D02*
Y6808D01*
X4066D01*
X4065Y6812D01*
X4059Y6828D01*
X4048Y6842D01*
X4034Y6852D01*
X4019Y6859D01*
X4014Y6859D01*
D02*
G37*
G36*
X3989D02*
X3984Y6859D01*
X3969Y6852D01*
X3955Y6842D01*
X3944Y6828D01*
X3938Y6812D01*
X3937Y6808D01*
X3989D01*
Y6859D01*
D02*
G37*
G36*
X4868Y6833D02*
X4810D01*
Y6750D01*
X4868D01*
Y6833D01*
D02*
G37*
G36*
X4785D02*
X4727D01*
Y6750D01*
X4785D01*
Y6833D01*
D02*
G37*
G36*
X4670Y6782D02*
X4618D01*
Y6731D01*
X4623Y6731D01*
X4638Y6738D01*
X4652Y6748D01*
X4663Y6762D01*
X4669Y6778D01*
X4670Y6782D01*
D02*
G37*
G36*
X4593D02*
X4541D01*
X4542Y6778D01*
X4548Y6762D01*
X4559Y6748D01*
X4573Y6738D01*
X4588Y6731D01*
X4593Y6731D01*
Y6782D01*
D02*
G37*
G36*
X4368D02*
X4316D01*
Y6731D01*
X4321Y6731D01*
X4336Y6738D01*
X4350Y6748D01*
X4361Y6762D01*
X4367Y6778D01*
X4368Y6782D01*
D02*
G37*
G36*
X4291D02*
X4239D01*
X4240Y6778D01*
X4246Y6762D01*
X4257Y6748D01*
X4271Y6738D01*
X4286Y6731D01*
X4291Y6731D01*
Y6782D01*
D02*
G37*
G36*
X4217D02*
X4165D01*
Y6731D01*
X4170Y6731D01*
X4185Y6738D01*
X4199Y6748D01*
X4210Y6762D01*
X4216Y6778D01*
X4217Y6782D01*
D02*
G37*
G36*
X4140D02*
X4088D01*
X4089Y6778D01*
X4095Y6762D01*
X4106Y6748D01*
X4120Y6738D01*
X4135Y6731D01*
X4140Y6731D01*
Y6782D01*
D02*
G37*
G36*
X4066D02*
X4014D01*
Y6731D01*
X4019Y6731D01*
X4034Y6738D01*
X4048Y6748D01*
X4059Y6762D01*
X4065Y6778D01*
X4066Y6782D01*
D02*
G37*
G36*
X3989D02*
X3937D01*
X3938Y6778D01*
X3944Y6762D01*
X3955Y6748D01*
X3969Y6738D01*
X3984Y6731D01*
X3989Y6731D01*
Y6782D01*
D02*
G37*
G36*
X5876Y6727D02*
X5843D01*
Y6671D01*
X5876D01*
Y6727D01*
D02*
G37*
G36*
X4668Y6708D02*
X4664Y6708D01*
X4648Y6701D01*
X4634Y6691D01*
X4624Y6677D01*
X4617Y6661D01*
X4617Y6657D01*
X4668D01*
Y6708D01*
D02*
G37*
G36*
X4543D02*
Y6657D01*
X4594D01*
X4594Y6661D01*
X4587Y6677D01*
X4577Y6691D01*
X4563Y6701D01*
X4547Y6708D01*
X4543Y6708D01*
D02*
G37*
G36*
X4517D02*
X4513Y6708D01*
X4497Y6701D01*
X4483Y6691D01*
X4473Y6677D01*
X4466Y6661D01*
X4466Y6657D01*
X4517D01*
Y6708D01*
D02*
G37*
G36*
X6049Y6699D02*
X5997D01*
Y6617D01*
X6049D01*
Y6699D01*
D02*
G37*
G36*
X4868Y6687D02*
X4810D01*
Y6604D01*
X4868D01*
Y6687D01*
D02*
G37*
G36*
X4668Y6631D02*
X4617D01*
X4617Y6627D01*
X4624Y6611D01*
X4634Y6597D01*
X4648Y6587D01*
X4664Y6580D01*
X4668Y6580D01*
Y6631D01*
D02*
G37*
G36*
X4594D02*
X4543D01*
Y6580D01*
X4547Y6580D01*
X4563Y6587D01*
X4577Y6597D01*
X4587Y6611D01*
X4594Y6627D01*
X4594Y6631D01*
D02*
G37*
G36*
X4517D02*
X4466D01*
X4466Y6627D01*
X4473Y6611D01*
X4483Y6597D01*
X4497Y6587D01*
X4513Y6580D01*
X4517Y6580D01*
Y6631D01*
D02*
G37*
G36*
X6049Y6591D02*
X5997D01*
Y6509D01*
X6049D01*
Y6591D01*
D02*
G37*
G36*
X4618Y6557D02*
Y6506D01*
X4670D01*
X4669Y6510D01*
X4663Y6526D01*
X4652Y6540D01*
X4638Y6550D01*
X4623Y6557D01*
X4618Y6557D01*
D02*
G37*
G36*
X4593D02*
X4588Y6557D01*
X4573Y6550D01*
X4559Y6540D01*
X4548Y6526D01*
X4542Y6510D01*
X4541Y6506D01*
X4593D01*
Y6557D01*
D02*
G37*
G36*
X4467D02*
Y6506D01*
X4519D01*
X4518Y6510D01*
X4512Y6526D01*
X4501Y6540D01*
X4487Y6550D01*
X4472Y6557D01*
X4467Y6557D01*
D02*
G37*
G36*
X4442D02*
X4437Y6557D01*
X4422Y6550D01*
X4408Y6540D01*
X4397Y6526D01*
X4391Y6510D01*
X4390Y6506D01*
X4442D01*
Y6557D01*
D02*
G37*
G36*
X4316D02*
Y6506D01*
X4368D01*
X4367Y6510D01*
X4361Y6526D01*
X4350Y6540D01*
X4336Y6550D01*
X4321Y6557D01*
X4316Y6557D01*
D02*
G37*
G36*
X4291D02*
X4286Y6557D01*
X4271Y6550D01*
X4257Y6540D01*
X4246Y6526D01*
X4240Y6510D01*
X4239Y6506D01*
X4291D01*
Y6557D01*
D02*
G37*
G36*
X4868Y6579D02*
X4810D01*
Y6496D01*
X4868D01*
Y6579D01*
D02*
G37*
G36*
X4694Y6708D02*
Y6644D01*
Y6580D01*
X4698Y6580D01*
X4714Y6587D01*
X4715Y6588D01*
X4727Y6582D01*
Y6496D01*
X4785D01*
Y6591D01*
Y6687D01*
X4731D01*
X4728Y6691D01*
X4714Y6701D01*
X4698Y6708D01*
X4694Y6708D01*
D02*
G37*
G36*
X4670Y6480D02*
X4618D01*
Y6429D01*
X4623Y6429D01*
X4638Y6436D01*
X4652Y6446D01*
X4663Y6460D01*
X4669Y6476D01*
X4670Y6480D01*
D02*
G37*
G36*
X4593D02*
X4541D01*
X4542Y6476D01*
X4548Y6460D01*
X4559Y6446D01*
X4573Y6436D01*
X4588Y6429D01*
X4593Y6429D01*
Y6480D01*
D02*
G37*
G36*
X4519D02*
X4467D01*
Y6429D01*
X4472Y6429D01*
X4487Y6436D01*
X4501Y6446D01*
X4512Y6460D01*
X4518Y6476D01*
X4519Y6480D01*
D02*
G37*
G36*
X4442D02*
X4390D01*
X4391Y6476D01*
X4397Y6460D01*
X4408Y6446D01*
X4422Y6436D01*
X4437Y6429D01*
X4442Y6429D01*
Y6480D01*
D02*
G37*
G36*
X4368D02*
X4316D01*
Y6429D01*
X4321Y6429D01*
X4336Y6436D01*
X4350Y6446D01*
X4361Y6460D01*
X4367Y6476D01*
X4368Y6480D01*
D02*
G37*
G36*
X4291D02*
X4239D01*
X4240Y6476D01*
X4246Y6460D01*
X4257Y6446D01*
X4271Y6436D01*
X4286Y6429D01*
X4291Y6429D01*
Y6480D01*
D02*
G37*
G36*
X4517Y6406D02*
X4513Y6406D01*
X4497Y6399D01*
X4483Y6389D01*
X4476Y6380D01*
X4464Y6384D01*
Y6385D01*
X4274D01*
Y6265D01*
X4464D01*
Y6300D01*
X4476Y6304D01*
X4483Y6295D01*
X4497Y6285D01*
X4513Y6278D01*
X4517Y6278D01*
Y6342D01*
Y6406D01*
D02*
G37*
G36*
X4543D02*
Y6355D01*
X4594D01*
X4594Y6359D01*
X4587Y6375D01*
X4577Y6389D01*
X4563Y6399D01*
X4547Y6406D01*
X4543Y6406D01*
D02*
G37*
G36*
X4594Y6329D02*
X4543D01*
Y6278D01*
X4547Y6278D01*
X4563Y6285D01*
X4577Y6295D01*
X4587Y6309D01*
X4594Y6325D01*
X4594Y6329D01*
D02*
G37*
G36*
X4014Y6255D02*
Y6204D01*
X4066D01*
X4065Y6208D01*
X4059Y6224D01*
X4048Y6238D01*
X4034Y6248D01*
X4019Y6255D01*
X4014Y6255D01*
D02*
G37*
G36*
X3989D02*
X3984Y6255D01*
X3969Y6248D01*
X3955Y6238D01*
X3944Y6224D01*
X3938Y6208D01*
X3937Y6204D01*
X3989D01*
Y6255D01*
D02*
G37*
G36*
X4066Y6178D02*
X4014D01*
Y6127D01*
X4019Y6127D01*
X4034Y6134D01*
X4048Y6144D01*
X4059Y6158D01*
X4065Y6174D01*
X4066Y6178D01*
D02*
G37*
G36*
X3989D02*
X3937D01*
X3938Y6174D01*
X3944Y6158D01*
X3955Y6144D01*
X3969Y6134D01*
X3984Y6127D01*
X3989Y6127D01*
Y6178D01*
D02*
G37*
G36*
X4215Y6104D02*
X4211Y6104D01*
X4195Y6097D01*
X4181Y6087D01*
X4171Y6073D01*
X4164Y6057D01*
X4164Y6053D01*
X4215D01*
Y6104D01*
D02*
G37*
G36*
X3939D02*
Y6053D01*
X3990D01*
X3990Y6057D01*
X3983Y6073D01*
X3973Y6087D01*
X3959Y6097D01*
X3943Y6104D01*
X3939Y6104D01*
D02*
G37*
G36*
X3913D02*
X3909Y6104D01*
X3893Y6097D01*
X3879Y6087D01*
X3869Y6073D01*
X3862Y6057D01*
X3862Y6053D01*
X3913D01*
Y6104D01*
D02*
G37*
G36*
X4215Y6027D02*
X4164D01*
X4164Y6023D01*
X4171Y6007D01*
X4181Y5993D01*
X4195Y5983D01*
X4211Y5976D01*
X4215Y5976D01*
Y6027D01*
D02*
G37*
G36*
X3990D02*
X3939D01*
Y5976D01*
X3943Y5976D01*
X3959Y5983D01*
X3973Y5993D01*
X3983Y6007D01*
X3990Y6023D01*
X3990Y6027D01*
D02*
G37*
G36*
X3913D02*
X3862D01*
X3862Y6023D01*
X3869Y6007D01*
X3879Y5993D01*
X3893Y5983D01*
X3909Y5976D01*
X3913Y5976D01*
Y6027D01*
D02*
G37*
G36*
X4014Y5953D02*
Y5902D01*
X4066D01*
X4065Y5906D01*
X4059Y5922D01*
X4048Y5936D01*
X4034Y5946D01*
X4019Y5953D01*
X4014Y5953D01*
D02*
G37*
G36*
X3989D02*
X3984Y5953D01*
X3969Y5946D01*
X3955Y5936D01*
X3944Y5922D01*
X3938Y5906D01*
X3937Y5902D01*
X3989D01*
Y5953D01*
D02*
G37*
G36*
X4066Y5876D02*
X4014D01*
Y5825D01*
X4019Y5825D01*
X4034Y5832D01*
X4048Y5842D01*
X4059Y5856D01*
X4065Y5872D01*
X4066Y5876D01*
D02*
G37*
G36*
X3989D02*
X3937D01*
X3938Y5872D01*
X3944Y5856D01*
X3955Y5842D01*
X3969Y5832D01*
X3984Y5825D01*
X3989Y5825D01*
Y5876D01*
D02*
G37*
G36*
X4215Y5802D02*
X4211Y5802D01*
X4195Y5795D01*
X4181Y5785D01*
X4171Y5771D01*
X4164Y5755D01*
X4164Y5751D01*
X4215D01*
Y5802D01*
D02*
G37*
G36*
X3939D02*
Y5751D01*
X3990D01*
X3990Y5755D01*
X3983Y5771D01*
X3973Y5785D01*
X3959Y5795D01*
X3943Y5802D01*
X3939Y5802D01*
D02*
G37*
G36*
X3913D02*
X3909Y5802D01*
X3893Y5795D01*
X3879Y5785D01*
X3869Y5771D01*
X3862Y5755D01*
X3862Y5751D01*
X3913D01*
Y5802D01*
D02*
G37*
G36*
X4215Y5725D02*
X4164D01*
X4164Y5721D01*
X4171Y5705D01*
X4181Y5691D01*
X4195Y5681D01*
X4211Y5674D01*
X4215Y5674D01*
Y5725D01*
D02*
G37*
G36*
X3990D02*
X3939D01*
Y5674D01*
X3943Y5674D01*
X3959Y5681D01*
X3973Y5691D01*
X3983Y5705D01*
X3990Y5721D01*
X3990Y5725D01*
D02*
G37*
G36*
X3913D02*
X3862D01*
X3862Y5721D01*
X3869Y5705D01*
X3879Y5691D01*
X3893Y5681D01*
X3909Y5674D01*
X3913Y5674D01*
Y5725D01*
D02*
G37*
G36*
X4014Y5651D02*
Y5600D01*
X4066D01*
X4065Y5604D01*
X4059Y5620D01*
X4048Y5634D01*
X4034Y5644D01*
X4019Y5651D01*
X4014Y5651D01*
D02*
G37*
G36*
X3989D02*
X3984Y5651D01*
X3969Y5644D01*
X3955Y5634D01*
X3944Y5620D01*
X3938Y5604D01*
X3937Y5600D01*
X3989D01*
Y5651D01*
D02*
G37*
G36*
X4066Y5574D02*
X4014D01*
Y5523D01*
X4019Y5523D01*
X4034Y5530D01*
X4048Y5540D01*
X4059Y5554D01*
X4065Y5570D01*
X4066Y5574D01*
D02*
G37*
G36*
X3989D02*
X3937D01*
X3938Y5570D01*
X3944Y5554D01*
X3955Y5540D01*
X3969Y5530D01*
X3984Y5523D01*
X3989Y5523D01*
Y5574D01*
D02*
G37*
G36*
X4215Y5500D02*
X4211Y5500D01*
X4195Y5493D01*
X4181Y5483D01*
X4171Y5469D01*
X4164Y5453D01*
X4164Y5449D01*
X4215D01*
Y5500D01*
D02*
G37*
G36*
X3939D02*
Y5449D01*
X3990D01*
X3990Y5453D01*
X3983Y5469D01*
X3973Y5483D01*
X3959Y5493D01*
X3943Y5500D01*
X3939Y5500D01*
D02*
G37*
G36*
X3913D02*
X3909Y5500D01*
X3893Y5493D01*
X3879Y5483D01*
X3869Y5469D01*
X3862Y5453D01*
X3862Y5449D01*
X3913D01*
Y5500D01*
D02*
G37*
G36*
X4464Y5471D02*
X4381D01*
Y5423D01*
X4464D01*
Y5471D01*
D02*
G37*
G36*
X4215Y5423D02*
X4164D01*
X4164Y5419D01*
X4171Y5403D01*
X4181Y5389D01*
X4195Y5379D01*
X4211Y5372D01*
X4215Y5372D01*
Y5423D01*
D02*
G37*
G36*
X3990D02*
X3939D01*
Y5372D01*
X3943Y5372D01*
X3959Y5379D01*
X3973Y5389D01*
X3983Y5403D01*
X3990Y5419D01*
X3990Y5423D01*
D02*
G37*
G36*
X3913D02*
X3862D01*
X3862Y5419D01*
X3869Y5403D01*
X3879Y5389D01*
X3893Y5379D01*
X3909Y5372D01*
X3913Y5372D01*
Y5423D01*
D02*
G37*
G36*
X4464Y5397D02*
X4381D01*
Y5350D01*
X4464D01*
Y5397D01*
D02*
G37*
G36*
X4241Y5500D02*
Y5436D01*
Y5372D01*
X4245Y5372D01*
X4261Y5379D01*
X4262Y5380D01*
X4273Y5374D01*
Y5350D01*
X4356D01*
Y5410D01*
Y5471D01*
X4284D01*
X4275Y5483D01*
X4261Y5493D01*
X4245Y5500D01*
X4241Y5500D01*
D02*
G37*
G36*
X5046Y5349D02*
X5041Y5349D01*
X5026Y5342D01*
X5012Y5332D01*
X5001Y5318D01*
X4995Y5302D01*
X4994Y5298D01*
X5046D01*
Y5349D01*
D02*
G37*
G36*
X4014D02*
Y5298D01*
X4066D01*
X4065Y5302D01*
X4059Y5318D01*
X4048Y5332D01*
X4034Y5342D01*
X4019Y5349D01*
X4014Y5349D01*
D02*
G37*
G36*
X3989D02*
X3984Y5349D01*
X3969Y5342D01*
X3955Y5332D01*
X3944Y5318D01*
X3938Y5302D01*
X3937Y5298D01*
X3989D01*
Y5349D01*
D02*
G37*
G36*
X4066Y5272D02*
X4014D01*
Y5221D01*
X4019Y5221D01*
X4034Y5228D01*
X4048Y5238D01*
X4059Y5252D01*
X4065Y5268D01*
X4066Y5272D01*
D02*
G37*
G36*
X3989D02*
X3937D01*
X3938Y5268D01*
X3944Y5252D01*
X3955Y5238D01*
X3969Y5228D01*
X3984Y5221D01*
X3989Y5221D01*
Y5272D01*
D02*
G37*
G36*
X4241Y5198D02*
Y5147D01*
X4292D01*
X4292Y5151D01*
X4285Y5167D01*
X4275Y5181D01*
X4261Y5191D01*
X4245Y5198D01*
X4241Y5198D01*
D02*
G37*
G36*
X4215D02*
X4211Y5198D01*
X4195Y5191D01*
X4181Y5181D01*
X4171Y5167D01*
X4164Y5151D01*
X4164Y5147D01*
X4215D01*
Y5198D01*
D02*
G37*
G36*
X4292Y5121D02*
X4241D01*
Y5070D01*
X4245Y5070D01*
X4261Y5077D01*
X4275Y5087D01*
X4285Y5101D01*
X4292Y5117D01*
X4292Y5121D01*
D02*
G37*
G36*
X4215D02*
X4164D01*
X4164Y5117D01*
X4171Y5101D01*
X4181Y5087D01*
X4195Y5077D01*
X4211Y5070D01*
X4215Y5070D01*
Y5121D01*
D02*
G37*
G36*
X4140Y5047D02*
X4135Y5047D01*
X4120Y5040D01*
X4106Y5030D01*
X4095Y5016D01*
X4089Y5000D01*
X4088Y4996D01*
X4140D01*
Y5047D01*
D02*
G37*
G36*
Y4970D02*
X4088D01*
X4089Y4966D01*
X4095Y4950D01*
X4106Y4936D01*
X4120Y4926D01*
X4135Y4919D01*
X4140Y4919D01*
Y4970D01*
D02*
G37*
G36*
X3939Y4896D02*
Y4845D01*
X3990D01*
X3990Y4849D01*
X3983Y4865D01*
X3973Y4879D01*
X3959Y4889D01*
X3943Y4896D01*
X3939Y4896D01*
D02*
G37*
G36*
X3913D02*
X3909Y4896D01*
X3893Y4889D01*
X3879Y4879D01*
X3869Y4865D01*
X3862Y4849D01*
X3862Y4845D01*
X3913D01*
Y4896D01*
D02*
G37*
G36*
X3990Y4819D02*
X3939D01*
Y4768D01*
X3943Y4768D01*
X3959Y4775D01*
X3973Y4785D01*
X3983Y4799D01*
X3990Y4815D01*
X3990Y4819D01*
D02*
G37*
G36*
X3913D02*
X3862D01*
X3862Y4815D01*
X3869Y4799D01*
X3879Y4785D01*
X3893Y4775D01*
X3909Y4768D01*
X3913Y4768D01*
Y4819D01*
D02*
G37*
G36*
X6741Y6141D02*
X6684D01*
Y6058D01*
X6741D01*
Y6141D01*
D02*
G37*
G36*
X6658D02*
X6600D01*
Y6058D01*
X6658D01*
Y6141D01*
D02*
G37*
G36*
X6741Y6033D02*
X6684D01*
Y5950D01*
X6741D01*
Y6033D01*
D02*
G37*
G36*
X6658D02*
X6600D01*
Y5950D01*
X6658D01*
Y6033D01*
D02*
G37*
G36*
X6405Y5651D02*
X6400Y5651D01*
X6385Y5644D01*
X6373Y5635D01*
X6365Y5637D01*
X6363Y5639D01*
X6303D01*
Y5556D01*
X6360D01*
X6360Y5554D01*
X6371Y5540D01*
X6385Y5530D01*
X6400Y5523D01*
X6405Y5523D01*
Y5587D01*
Y5651D01*
D02*
G37*
G36*
X6430D02*
Y5600D01*
X6482D01*
X6481Y5604D01*
X6475Y5620D01*
X6464Y5634D01*
X6450Y5644D01*
X6435Y5651D01*
X6430Y5651D01*
D02*
G37*
G36*
X6277Y5639D02*
X6219D01*
Y5556D01*
X6277D01*
Y5639D01*
D02*
G37*
G36*
X6482Y5574D02*
X6430D01*
Y5523D01*
X6435Y5523D01*
X6450Y5530D01*
X6464Y5540D01*
X6475Y5554D01*
X6481Y5570D01*
X6482Y5574D01*
D02*
G37*
G36*
X6642Y5656D02*
X6621Y5654D01*
X6602Y5646D01*
X6585Y5633D01*
X6572Y5616D01*
X6564Y5596D01*
X6561Y5575D01*
X6564Y5554D01*
X6572Y5535D01*
X6585Y5518D01*
X6602Y5505D01*
X6621Y5497D01*
X6642Y5494D01*
X6663Y5497D01*
X6683Y5505D01*
X6699Y5518D01*
X6712Y5535D01*
X6720Y5554D01*
X6723Y5575D01*
X6720Y5596D01*
X6712Y5616D01*
X6699Y5633D01*
X6683Y5646D01*
X6663Y5654D01*
X6642Y5656D01*
D02*
G37*
G36*
X6360Y5506D02*
X6303D01*
Y5423D01*
X6360D01*
Y5506D01*
D02*
G37*
G36*
X6277D02*
X6219D01*
Y5423D01*
X6277D01*
Y5506D01*
D02*
G37*
G36*
X6360Y5397D02*
X6303D01*
Y5315D01*
X6360D01*
Y5397D01*
D02*
G37*
G36*
X6277D02*
X6219D01*
Y5315D01*
X6277D01*
Y5397D01*
D02*
G37*
G36*
X6707Y5272D02*
X6655D01*
X6656Y5268D01*
X6662Y5252D01*
X6673Y5238D01*
X6687Y5228D01*
X6702Y5221D01*
X6707Y5221D01*
Y5272D01*
D02*
G37*
G36*
X6657Y5198D02*
Y5147D01*
X6708D01*
X6708Y5151D01*
X6701Y5167D01*
X6691Y5181D01*
X6677Y5191D01*
X6661Y5198D01*
X6657Y5198D01*
D02*
G37*
G36*
X6631D02*
X6627Y5198D01*
X6611Y5191D01*
X6597Y5181D01*
X6587Y5167D01*
X6580Y5151D01*
X6580Y5147D01*
X6631D01*
Y5198D01*
D02*
G37*
G36*
X6506D02*
Y5147D01*
X6557D01*
X6557Y5151D01*
X6550Y5167D01*
X6540Y5181D01*
X6526Y5191D01*
X6510Y5198D01*
X6506Y5198D01*
D02*
G37*
G36*
X6480D02*
X6476Y5198D01*
X6460Y5191D01*
X6446Y5181D01*
X6436Y5167D01*
X6429Y5151D01*
X6429Y5147D01*
X6480D01*
Y5198D01*
D02*
G37*
G36*
X6053D02*
Y5147D01*
X6104D01*
X6104Y5151D01*
X6097Y5167D01*
X6087Y5181D01*
X6073Y5191D01*
X6057Y5198D01*
X6053Y5198D01*
D02*
G37*
G36*
X6027D02*
X6023Y5198D01*
X6007Y5191D01*
X5993Y5181D01*
X5983Y5167D01*
X5976Y5151D01*
X5976Y5147D01*
X6027D01*
Y5198D01*
D02*
G37*
G36*
X6708Y5121D02*
X6657D01*
Y5070D01*
X6661Y5070D01*
X6677Y5077D01*
X6691Y5087D01*
X6701Y5101D01*
X6708Y5117D01*
X6708Y5121D01*
D02*
G37*
G36*
X6631D02*
X6580D01*
X6580Y5117D01*
X6587Y5101D01*
X6597Y5087D01*
X6611Y5077D01*
X6627Y5070D01*
X6631Y5070D01*
Y5121D01*
D02*
G37*
G36*
X6557D02*
X6506D01*
Y5070D01*
X6510Y5070D01*
X6526Y5077D01*
X6540Y5087D01*
X6550Y5101D01*
X6557Y5117D01*
X6557Y5121D01*
D02*
G37*
G36*
X6480D02*
X6429D01*
X6429Y5117D01*
X6436Y5101D01*
X6446Y5087D01*
X6460Y5077D01*
X6476Y5070D01*
X6480Y5070D01*
Y5121D01*
D02*
G37*
G36*
X6104D02*
X6053D01*
Y5070D01*
X6057Y5070D01*
X6073Y5077D01*
X6087Y5087D01*
X6097Y5101D01*
X6104Y5117D01*
X6104Y5121D01*
D02*
G37*
G36*
X6027D02*
X5976D01*
X5976Y5117D01*
X5983Y5101D01*
X5993Y5087D01*
X6007Y5077D01*
X6023Y5070D01*
X6027Y5070D01*
Y5121D01*
D02*
G37*
G36*
X6707Y5047D02*
X6702Y5047D01*
X6687Y5040D01*
X6673Y5030D01*
X6662Y5016D01*
X6656Y5000D01*
X6655Y4996D01*
X6707D01*
Y5047D01*
D02*
G37*
G36*
X6581D02*
Y4996D01*
X6633D01*
X6632Y5000D01*
X6626Y5016D01*
X6615Y5030D01*
X6601Y5040D01*
X6586Y5047D01*
X6581Y5047D01*
D02*
G37*
G36*
X6556D02*
X6551Y5047D01*
X6536Y5040D01*
X6522Y5030D01*
X6511Y5016D01*
X6505Y5000D01*
X6504Y4996D01*
X6556D01*
Y5047D01*
D02*
G37*
G36*
X6430D02*
Y4996D01*
X6482D01*
X6481Y5000D01*
X6475Y5016D01*
X6464Y5030D01*
X6450Y5040D01*
X6435Y5047D01*
X6430Y5047D01*
D02*
G37*
G36*
X5071D02*
Y4996D01*
X5123D01*
X5122Y5000D01*
X5116Y5016D01*
X5105Y5030D01*
X5091Y5040D01*
X5076Y5047D01*
X5071Y5047D01*
D02*
G37*
G36*
X5046D02*
X5041Y5047D01*
X5026Y5040D01*
X5012Y5030D01*
X5001Y5016D01*
X4995Y5000D01*
X4994Y4996D01*
X5046D01*
Y5047D01*
D02*
G37*
G36*
X6290Y5048D02*
X6232D01*
Y4966D01*
X6290D01*
Y5048D01*
D02*
G37*
G36*
X6707Y4970D02*
X6655D01*
X6656Y4966D01*
X6662Y4950D01*
X6673Y4936D01*
X6687Y4926D01*
X6702Y4919D01*
X6707Y4919D01*
Y4970D01*
D02*
G37*
G36*
X6633D02*
X6581D01*
Y4919D01*
X6586Y4919D01*
X6601Y4926D01*
X6615Y4936D01*
X6626Y4950D01*
X6632Y4966D01*
X6633Y4970D01*
D02*
G37*
G36*
X6556D02*
X6504D01*
X6505Y4966D01*
X6511Y4950D01*
X6522Y4936D01*
X6536Y4926D01*
X6551Y4919D01*
X6556Y4919D01*
Y4970D01*
D02*
G37*
G36*
X6482D02*
X6430D01*
Y4919D01*
X6435Y4919D01*
X6450Y4926D01*
X6464Y4936D01*
X6475Y4950D01*
X6481Y4966D01*
X6482Y4970D01*
D02*
G37*
G36*
X6373Y5048D02*
X6315D01*
Y4953D01*
Y4858D01*
X6373D01*
Y4920D01*
X6376Y4922D01*
X6386Y4925D01*
X6400Y4919D01*
X6405Y4919D01*
Y4983D01*
Y5047D01*
X6400Y5047D01*
X6386Y5041D01*
X6376Y5044D01*
X6373Y5046D01*
Y5048D01*
D02*
G37*
G36*
X5123Y4970D02*
X5071D01*
Y4919D01*
X5076Y4919D01*
X5091Y4926D01*
X5105Y4936D01*
X5116Y4950D01*
X5122Y4966D01*
X5123Y4970D01*
D02*
G37*
G36*
X5046D02*
X4994D01*
X4995Y4966D01*
X5001Y4950D01*
X5012Y4936D01*
X5026Y4926D01*
X5041Y4919D01*
X5046Y4919D01*
Y4970D01*
D02*
G37*
G36*
X6657Y4896D02*
Y4845D01*
X6708D01*
X6708Y4849D01*
X6701Y4865D01*
X6691Y4879D01*
X6677Y4889D01*
X6661Y4896D01*
X6657Y4896D01*
D02*
G37*
G36*
X6631D02*
X6627Y4896D01*
X6611Y4889D01*
X6597Y4879D01*
X6587Y4865D01*
X6580Y4849D01*
X6580Y4845D01*
X6631D01*
Y4896D01*
D02*
G37*
G36*
X6506D02*
Y4845D01*
X6557D01*
X6557Y4849D01*
X6550Y4865D01*
X6540Y4879D01*
X6526Y4889D01*
X6510Y4896D01*
X6506Y4896D01*
D02*
G37*
G36*
X6480D02*
X6476Y4896D01*
X6460Y4889D01*
X6446Y4879D01*
X6436Y4865D01*
X6429Y4849D01*
X6429Y4845D01*
X6480D01*
Y4896D01*
D02*
G37*
G36*
X5147D02*
Y4845D01*
X5198D01*
X5198Y4849D01*
X5191Y4865D01*
X5181Y4879D01*
X5167Y4889D01*
X5151Y4896D01*
X5147Y4896D01*
D02*
G37*
G36*
X5121D02*
X5117Y4896D01*
X5101Y4889D01*
X5087Y4879D01*
X5077Y4865D01*
X5070Y4849D01*
X5070Y4845D01*
X5121D01*
Y4896D01*
D02*
G37*
G36*
X4996D02*
Y4845D01*
X5047D01*
X5047Y4849D01*
X5040Y4865D01*
X5030Y4879D01*
X5016Y4889D01*
X5000Y4896D01*
X4996Y4896D01*
D02*
G37*
G36*
X4970D02*
X4966Y4896D01*
X4950Y4889D01*
X4936Y4879D01*
X4926Y4865D01*
X4919Y4849D01*
X4919Y4845D01*
X4970D01*
Y4896D01*
D02*
G37*
G36*
X6708Y4819D02*
X6657D01*
Y4768D01*
X6661Y4768D01*
X6677Y4775D01*
X6691Y4785D01*
X6701Y4799D01*
X6708Y4815D01*
X6708Y4819D01*
D02*
G37*
G36*
X6631D02*
X6580D01*
X6580Y4815D01*
X6587Y4799D01*
X6597Y4785D01*
X6611Y4775D01*
X6627Y4768D01*
X6631Y4768D01*
Y4819D01*
D02*
G37*
G36*
X6557D02*
X6506D01*
Y4768D01*
X6510Y4768D01*
X6526Y4775D01*
X6540Y4785D01*
X6550Y4799D01*
X6557Y4815D01*
X6557Y4819D01*
D02*
G37*
G36*
X6480D02*
X6429D01*
X6429Y4815D01*
X6436Y4799D01*
X6446Y4785D01*
X6460Y4775D01*
X6476Y4768D01*
X6480Y4768D01*
Y4819D01*
D02*
G37*
G36*
X5198D02*
X5147D01*
Y4768D01*
X5151Y4768D01*
X5167Y4775D01*
X5181Y4785D01*
X5191Y4799D01*
X5198Y4815D01*
X5198Y4819D01*
D02*
G37*
G36*
X5121D02*
X5070D01*
X5070Y4815D01*
X5077Y4799D01*
X5087Y4785D01*
X5101Y4775D01*
X5117Y4768D01*
X5121Y4768D01*
Y4819D01*
D02*
G37*
G36*
X5047D02*
X4996D01*
Y4768D01*
X5000Y4768D01*
X5016Y4775D01*
X5030Y4785D01*
X5040Y4799D01*
X5047Y4815D01*
X5047Y4819D01*
D02*
G37*
G36*
X4970D02*
X4919D01*
X4919Y4815D01*
X4926Y4799D01*
X4936Y4785D01*
X4950Y4775D01*
X4966Y4768D01*
X4970Y4768D01*
Y4819D01*
D02*
G37*
G36*
X6707Y4745D02*
X6702Y4745D01*
X6687Y4738D01*
X6673Y4728D01*
X6662Y4714D01*
X6656Y4698D01*
X6655Y4694D01*
X6707D01*
Y4745D01*
D02*
G37*
G36*
X6581D02*
Y4694D01*
X6633D01*
X6632Y4698D01*
X6626Y4714D01*
X6615Y4728D01*
X6601Y4738D01*
X6586Y4745D01*
X6581Y4745D01*
D02*
G37*
G36*
X6556D02*
X6551Y4745D01*
X6536Y4738D01*
X6522Y4728D01*
X6511Y4714D01*
X6505Y4698D01*
X6504Y4694D01*
X6556D01*
Y4745D01*
D02*
G37*
G36*
X6430D02*
Y4694D01*
X6482D01*
X6481Y4698D01*
X6475Y4714D01*
X6464Y4728D01*
X6450Y4738D01*
X6435Y4745D01*
X6430Y4745D01*
D02*
G37*
G36*
X5071D02*
Y4694D01*
X5123D01*
X5122Y4698D01*
X5116Y4714D01*
X5105Y4728D01*
X5091Y4738D01*
X5076Y4745D01*
X5071Y4745D01*
D02*
G37*
G36*
X5046D02*
X5041Y4745D01*
X5026Y4738D01*
X5012Y4728D01*
X5001Y4714D01*
X4995Y4698D01*
X4994Y4694D01*
X5046D01*
Y4745D01*
D02*
G37*
G36*
X6707Y4668D02*
X6655D01*
X6656Y4664D01*
X6662Y4648D01*
X6673Y4634D01*
X6687Y4624D01*
X6702Y4617D01*
X6707Y4617D01*
Y4668D01*
D02*
G37*
G36*
X6633D02*
X6581D01*
Y4617D01*
X6586Y4617D01*
X6601Y4624D01*
X6615Y4634D01*
X6626Y4648D01*
X6632Y4664D01*
X6633Y4668D01*
D02*
G37*
G36*
X6556D02*
X6504D01*
X6505Y4664D01*
X6511Y4648D01*
X6522Y4634D01*
X6536Y4624D01*
X6551Y4617D01*
X6556Y4617D01*
Y4668D01*
D02*
G37*
G36*
X6482D02*
X6430D01*
Y4617D01*
X6435Y4617D01*
X6450Y4624D01*
X6464Y4634D01*
X6475Y4648D01*
X6481Y4664D01*
X6482Y4668D01*
D02*
G37*
G36*
X6373Y4807D02*
X6315D01*
Y4712D01*
Y4616D01*
X6373D01*
Y4618D01*
X6376Y4620D01*
X6386Y4623D01*
X6400Y4617D01*
X6405Y4617D01*
Y4681D01*
Y4745D01*
X6400Y4745D01*
X6386Y4739D01*
X6376Y4742D01*
X6373Y4744D01*
Y4807D01*
D02*
G37*
G36*
X5123Y4668D02*
X5071D01*
Y4617D01*
X5076Y4617D01*
X5091Y4624D01*
X5105Y4634D01*
X5116Y4648D01*
X5122Y4664D01*
X5123Y4668D01*
D02*
G37*
G36*
X5046D02*
X4994D01*
X4995Y4664D01*
X5001Y4648D01*
X5012Y4634D01*
X5026Y4624D01*
X5041Y4617D01*
X5046Y4617D01*
Y4668D01*
D02*
G37*
G36*
X6657Y4594D02*
Y4543D01*
X6708D01*
X6708Y4547D01*
X6701Y4563D01*
X6691Y4577D01*
X6677Y4587D01*
X6661Y4594D01*
X6657Y4594D01*
D02*
G37*
G36*
X6631D02*
X6627Y4594D01*
X6611Y4587D01*
X6597Y4577D01*
X6587Y4563D01*
X6580Y4547D01*
X6580Y4543D01*
X6631D01*
Y4594D01*
D02*
G37*
G36*
X6506D02*
Y4543D01*
X6557D01*
X6557Y4547D01*
X6550Y4563D01*
X6540Y4577D01*
X6526Y4587D01*
X6510Y4594D01*
X6506Y4594D01*
D02*
G37*
G36*
X6480D02*
X6476Y4594D01*
X6460Y4587D01*
X6446Y4577D01*
X6436Y4563D01*
X6429Y4547D01*
X6429Y4543D01*
X6480D01*
Y4594D01*
D02*
G37*
G36*
X5147D02*
Y4543D01*
X5198D01*
X5198Y4547D01*
X5191Y4563D01*
X5181Y4577D01*
X5167Y4587D01*
X5151Y4594D01*
X5147Y4594D01*
D02*
G37*
G36*
X5121D02*
X5117Y4594D01*
X5101Y4587D01*
X5087Y4577D01*
X5077Y4563D01*
X5070Y4547D01*
X5070Y4543D01*
X5121D01*
Y4594D01*
D02*
G37*
G36*
X4996D02*
Y4543D01*
X5047D01*
X5047Y4547D01*
X5040Y4563D01*
X5030Y4577D01*
X5016Y4587D01*
X5000Y4594D01*
X4996Y4594D01*
D02*
G37*
G36*
X4970D02*
X4966Y4594D01*
X4950Y4587D01*
X4936Y4577D01*
X4926Y4563D01*
X4919Y4547D01*
X4919Y4543D01*
X4970D01*
Y4594D01*
D02*
G37*
G36*
X6373Y4578D02*
X6315D01*
Y4496D01*
X6373D01*
Y4578D01*
D02*
G37*
G36*
X5979D02*
X5922D01*
Y4496D01*
X5979D01*
Y4578D01*
D02*
G37*
G36*
X6708Y4517D02*
X6657D01*
Y4466D01*
X6661Y4466D01*
X6677Y4473D01*
X6691Y4483D01*
X6701Y4497D01*
X6708Y4513D01*
X6708Y4517D01*
D02*
G37*
G36*
X6631D02*
X6580D01*
X6580Y4513D01*
X6587Y4497D01*
X6597Y4483D01*
X6611Y4473D01*
X6627Y4466D01*
X6631Y4466D01*
Y4517D01*
D02*
G37*
G36*
X6557D02*
X6506D01*
Y4466D01*
X6510Y4466D01*
X6526Y4473D01*
X6540Y4483D01*
X6550Y4497D01*
X6557Y4513D01*
X6557Y4517D01*
D02*
G37*
G36*
X6480D02*
X6429D01*
X6429Y4513D01*
X6436Y4497D01*
X6446Y4483D01*
X6460Y4473D01*
X6476Y4466D01*
X6480Y4466D01*
Y4517D01*
D02*
G37*
G36*
X5121D02*
X5070D01*
X5070Y4513D01*
X5077Y4497D01*
X5087Y4483D01*
X5101Y4473D01*
X5117Y4466D01*
X5121Y4466D01*
Y4517D01*
D02*
G37*
G36*
X5047D02*
X4996D01*
Y4466D01*
X5000Y4466D01*
X5016Y4473D01*
X5030Y4483D01*
X5040Y4497D01*
X5047Y4513D01*
X5047Y4517D01*
D02*
G37*
G36*
X4970D02*
X4919D01*
X4919Y4513D01*
X4926Y4497D01*
X4936Y4483D01*
X4950Y4473D01*
X4966Y4466D01*
X4970Y4466D01*
Y4517D01*
D02*
G37*
G36*
X5340Y4481D02*
X5258D01*
Y4428D01*
X5340D01*
Y4481D01*
D02*
G37*
G36*
X5198Y4517D02*
X5147D01*
Y4459D01*
X5150Y4456D01*
Y4428D01*
X5232D01*
Y4481D01*
X5195D01*
X5188Y4493D01*
X5191Y4497D01*
X5198Y4513D01*
X5198Y4517D01*
D02*
G37*
G36*
X6707Y4443D02*
X6702Y4443D01*
X6687Y4436D01*
X6673Y4426D01*
X6662Y4412D01*
X6656Y4396D01*
X6655Y4392D01*
X6707D01*
Y4443D01*
D02*
G37*
G36*
X6581D02*
Y4392D01*
X6633D01*
X6632Y4396D01*
X6626Y4412D01*
X6615Y4426D01*
X6601Y4436D01*
X6586Y4443D01*
X6581Y4443D01*
D02*
G37*
G36*
X6556D02*
X6551Y4443D01*
X6536Y4436D01*
X6522Y4426D01*
X6511Y4412D01*
X6505Y4396D01*
X6504Y4392D01*
X6556D01*
Y4443D01*
D02*
G37*
G36*
X6430D02*
Y4392D01*
X6482D01*
X6481Y4396D01*
X6475Y4412D01*
X6464Y4426D01*
X6450Y4436D01*
X6435Y4443D01*
X6430Y4443D01*
D02*
G37*
G36*
X5071D02*
Y4392D01*
X5123D01*
X5122Y4396D01*
X5116Y4412D01*
X5105Y4426D01*
X5091Y4436D01*
X5076Y4443D01*
X5071Y4443D01*
D02*
G37*
G36*
X5046D02*
X5041Y4443D01*
X5026Y4436D01*
X5012Y4426D01*
X5001Y4412D01*
X4995Y4396D01*
X4994Y4392D01*
X5046D01*
Y4443D01*
D02*
G37*
G36*
X5979Y4470D02*
X5922D01*
Y4388D01*
X5979D01*
Y4470D01*
D02*
G37*
G36*
X5896D02*
X5838D01*
Y4388D01*
X5896D01*
Y4470D01*
D02*
G37*
G36*
X5232Y4403D02*
X5150D01*
Y4350D01*
X5232D01*
Y4403D01*
D02*
G37*
G36*
X6707Y4366D02*
X6655D01*
X6656Y4362D01*
X6662Y4346D01*
X6673Y4332D01*
X6687Y4322D01*
X6702Y4315D01*
X6707Y4315D01*
Y4366D01*
D02*
G37*
G36*
X6633D02*
X6581D01*
Y4315D01*
X6586Y4315D01*
X6601Y4322D01*
X6615Y4332D01*
X6626Y4346D01*
X6632Y4362D01*
X6633Y4366D01*
D02*
G37*
G36*
X6556D02*
X6504D01*
X6505Y4362D01*
X6511Y4346D01*
X6522Y4332D01*
X6536Y4322D01*
X6551Y4315D01*
X6556Y4315D01*
Y4366D01*
D02*
G37*
G36*
X6482D02*
X6430D01*
Y4315D01*
X6435Y4315D01*
X6450Y4322D01*
X6464Y4332D01*
X6475Y4346D01*
X6481Y4362D01*
X6482Y4366D01*
D02*
G37*
G36*
X5123D02*
X5071D01*
Y4315D01*
X5076Y4315D01*
X5091Y4322D01*
X5105Y4332D01*
X5116Y4346D01*
X5122Y4362D01*
X5123Y4366D01*
D02*
G37*
G36*
X5046D02*
X4994D01*
X4995Y4362D01*
X5001Y4346D01*
X5012Y4332D01*
X5026Y4322D01*
X5041Y4315D01*
X5046Y4315D01*
Y4366D01*
D02*
G37*
G36*
X6657Y4292D02*
Y4241D01*
X6708D01*
X6708Y4245D01*
X6701Y4261D01*
X6691Y4275D01*
X6677Y4285D01*
X6661Y4292D01*
X6657Y4292D01*
D02*
G37*
G36*
X6631D02*
X6627Y4292D01*
X6611Y4285D01*
X6597Y4275D01*
X6587Y4261D01*
X6580Y4245D01*
X6580Y4241D01*
X6631D01*
Y4292D01*
D02*
G37*
G36*
X6506D02*
Y4241D01*
X6557D01*
X6557Y4245D01*
X6550Y4261D01*
X6540Y4275D01*
X6526Y4285D01*
X6510Y4292D01*
X6506Y4292D01*
D02*
G37*
G36*
X6480D02*
X6476Y4292D01*
X6460Y4285D01*
X6446Y4275D01*
X6436Y4261D01*
X6429Y4245D01*
X6429Y4241D01*
X6480D01*
Y4292D01*
D02*
G37*
G36*
X6373Y4254D02*
X6315D01*
Y4172D01*
X6373D01*
Y4254D01*
D02*
G37*
G36*
X6708Y4215D02*
X6657D01*
Y4164D01*
X6661Y4164D01*
X6677Y4171D01*
X6691Y4181D01*
X6701Y4195D01*
X6708Y4211D01*
X6708Y4215D01*
D02*
G37*
G36*
X6631D02*
X6580D01*
X6580Y4211D01*
X6587Y4195D01*
X6597Y4181D01*
X6611Y4171D01*
X6627Y4164D01*
X6631Y4164D01*
Y4215D01*
D02*
G37*
G36*
X6557D02*
X6506D01*
Y4164D01*
X6510Y4164D01*
X6526Y4171D01*
X6540Y4181D01*
X6550Y4195D01*
X6557Y4211D01*
X6557Y4215D01*
D02*
G37*
G36*
X6480D02*
X6429D01*
X6429Y4211D01*
X6436Y4195D01*
X6446Y4181D01*
X6460Y4171D01*
X6476Y4164D01*
X6480Y4164D01*
Y4215D01*
D02*
G37*
G36*
X6430Y4141D02*
Y4090D01*
X6482D01*
X6481Y4094D01*
X6475Y4110D01*
X6464Y4124D01*
X6450Y4134D01*
X6435Y4141D01*
X6430Y4141D01*
D02*
G37*
G36*
X6405D02*
X6400Y4141D01*
X6385Y4134D01*
X6371Y4124D01*
X6360Y4110D01*
X6354Y4094D01*
X6353Y4090D01*
X6405D01*
Y4141D01*
D02*
G37*
G36*
X6693Y4041D02*
X6671Y4038D01*
X6649Y4029D01*
X6630Y4014D01*
X6615Y3995D01*
X6606Y3973D01*
X6605Y3962D01*
X6693D01*
Y4041D01*
D02*
G37*
G36*
X6482Y4064D02*
X6353D01*
X6354Y4060D01*
X6360Y4044D01*
X6371Y4030D01*
X6385Y4020D01*
X6388Y4018D01*
X6385Y4006D01*
X6363D01*
X6343Y4002D01*
X6325Y3990D01*
X6313Y3972D01*
X6309Y3952D01*
Y3937D01*
X6401D01*
X6492D01*
Y3952D01*
X6488Y3972D01*
X6476Y3990D01*
X6459Y4002D01*
X6446Y4004D01*
X6445Y4017D01*
X6450Y4020D01*
X6464Y4030D01*
X6475Y4044D01*
X6481Y4060D01*
X6482Y4064D01*
D02*
G37*
G36*
X5802Y3913D02*
X5751D01*
Y3862D01*
X5755Y3862D01*
X5771Y3869D01*
X5785Y3879D01*
X5795Y3893D01*
X5802Y3909D01*
X5802Y3913D01*
D02*
G37*
G36*
X5725D02*
X5674D01*
X5674Y3909D01*
X5681Y3893D01*
X5691Y3879D01*
X5705Y3869D01*
X5721Y3862D01*
X5725Y3862D01*
Y3913D01*
D02*
G37*
G36*
X6693Y3937D02*
X6605D01*
X6606Y3926D01*
X6615Y3904D01*
X6630Y3885D01*
X6649Y3871D01*
X6671Y3862D01*
X6693Y3859D01*
Y3937D01*
D02*
G37*
G36*
X6492Y3912D02*
X6414D01*
Y3843D01*
X6438D01*
X6459Y3847D01*
X6476Y3859D01*
X6488Y3876D01*
X6492Y3897D01*
Y3912D01*
D02*
G37*
G36*
X6388D02*
X6309D01*
Y3897D01*
X6313Y3876D01*
X6325Y3859D01*
X6343Y3847D01*
X6363Y3843D01*
X6388D01*
Y3912D01*
D02*
G37*
G36*
X6707Y3839D02*
X6702Y3839D01*
X6687Y3832D01*
X6673Y3822D01*
X6662Y3808D01*
X6656Y3792D01*
X6655Y3788D01*
X6707D01*
Y3839D01*
D02*
G37*
G36*
X6581D02*
Y3788D01*
X6633D01*
X6632Y3792D01*
X6626Y3808D01*
X6615Y3822D01*
X6601Y3832D01*
X6586Y3839D01*
X6581Y3839D01*
D02*
G37*
G36*
X6556D02*
X6551Y3839D01*
X6536Y3832D01*
X6522Y3822D01*
X6511Y3808D01*
X6505Y3792D01*
X6504Y3788D01*
X6556D01*
Y3839D01*
D02*
G37*
G36*
X5826D02*
Y3788D01*
X5878D01*
X5877Y3792D01*
X5871Y3808D01*
X5860Y3822D01*
X5846Y3832D01*
X5831Y3839D01*
X5826Y3839D01*
D02*
G37*
G36*
X5801D02*
X5796Y3839D01*
X5781Y3832D01*
X5767Y3822D01*
X5756Y3808D01*
X5750Y3792D01*
X5749Y3788D01*
X5801D01*
Y3839D01*
D02*
G37*
G36*
X5878Y3762D02*
X5749D01*
X5750Y3759D01*
X5749Y3756D01*
X5742Y3747D01*
X5740Y3747D01*
X5717Y3744D01*
X5696Y3735D01*
X5677Y3721D01*
X5663Y3702D01*
X5654Y3681D01*
X5652Y3670D01*
X5740D01*
X5828D01*
X5827Y3681D01*
X5820Y3697D01*
X5826Y3709D01*
X5828Y3711D01*
X5831Y3711D01*
X5846Y3718D01*
X5860Y3728D01*
X5871Y3742D01*
X5877Y3758D01*
X5878Y3762D01*
D02*
G37*
G36*
X6707D02*
X6655D01*
X6656Y3758D01*
X6662Y3742D01*
X6673Y3728D01*
X6687Y3718D01*
X6702Y3711D01*
X6707Y3711D01*
Y3762D01*
D02*
G37*
G36*
X6633D02*
X6581D01*
Y3711D01*
X6586Y3711D01*
X6601Y3718D01*
X6615Y3728D01*
X6626Y3742D01*
X6632Y3758D01*
X6633Y3762D01*
D02*
G37*
G36*
X6556D02*
X6504D01*
X6505Y3758D01*
X6511Y3742D01*
X6522Y3728D01*
X6536Y3718D01*
X6551Y3711D01*
X6556Y3711D01*
Y3762D01*
D02*
G37*
G36*
X6657Y3688D02*
Y3637D01*
X6708D01*
X6708Y3641D01*
X6701Y3657D01*
X6691Y3671D01*
X6677Y3681D01*
X6661Y3688D01*
X6657Y3688D01*
D02*
G37*
G36*
X6631D02*
X6627Y3688D01*
X6611Y3681D01*
X6597Y3671D01*
X6587Y3657D01*
X6580Y3641D01*
X6580Y3637D01*
X6631D01*
Y3688D01*
D02*
G37*
G36*
X5147D02*
Y3637D01*
X5198D01*
X5198Y3641D01*
X5191Y3657D01*
X5181Y3671D01*
X5167Y3681D01*
X5151Y3688D01*
X5147Y3688D01*
D02*
G37*
G36*
X5728Y3645D02*
X5652D01*
X5654Y3634D01*
X5663Y3613D01*
X5677Y3594D01*
X5696Y3580D01*
X5717Y3571D01*
X5728Y3570D01*
Y3645D01*
D02*
G37*
G36*
X6708Y3611D02*
X6657D01*
Y3560D01*
X6661Y3560D01*
X6677Y3567D01*
X6691Y3577D01*
X6701Y3591D01*
X6708Y3607D01*
X6708Y3611D01*
D02*
G37*
G36*
X6631D02*
X6580D01*
X6580Y3607D01*
X6587Y3591D01*
X6597Y3577D01*
X6611Y3567D01*
X6627Y3560D01*
X6631Y3560D01*
Y3611D01*
D02*
G37*
G36*
X4895Y3537D02*
X4890Y3537D01*
X4875Y3530D01*
X4861Y3520D01*
X4850Y3506D01*
X4844Y3490D01*
X4843Y3486D01*
X4895D01*
Y3537D01*
D02*
G37*
G36*
X4618D02*
Y3486D01*
X4670D01*
X4669Y3490D01*
X4663Y3506D01*
X4652Y3520D01*
X4638Y3530D01*
X4623Y3537D01*
X4618Y3537D01*
D02*
G37*
G36*
X4593D02*
X4588Y3537D01*
X4573Y3530D01*
X4559Y3520D01*
X4548Y3506D01*
X4542Y3490D01*
X4541Y3486D01*
X4593D01*
Y3537D01*
D02*
G37*
G36*
X4467D02*
Y3486D01*
X4519D01*
X4518Y3490D01*
X4512Y3506D01*
X4501Y3520D01*
X4487Y3530D01*
X4472Y3537D01*
X4467Y3537D01*
D02*
G37*
G36*
X4442D02*
X4437Y3537D01*
X4422Y3530D01*
X4408Y3520D01*
X4397Y3506D01*
X4391Y3490D01*
X4390Y3486D01*
X4442D01*
Y3537D01*
D02*
G37*
G36*
X4316D02*
Y3486D01*
X4368D01*
X4367Y3490D01*
X4361Y3506D01*
X4350Y3520D01*
X4336Y3530D01*
X4321Y3537D01*
X4316Y3537D01*
D02*
G37*
G36*
X4291D02*
X4286Y3537D01*
X4271Y3530D01*
X4257Y3520D01*
X4246Y3506D01*
X4240Y3490D01*
X4239Y3486D01*
X4291D01*
Y3537D01*
D02*
G37*
G36*
X4165D02*
Y3486D01*
X4217D01*
X4216Y3490D01*
X4210Y3506D01*
X4199Y3520D01*
X4185Y3530D01*
X4170Y3537D01*
X4165Y3537D01*
D02*
G37*
G36*
X4140D02*
X4135Y3537D01*
X4120Y3530D01*
X4106Y3520D01*
X4095Y3506D01*
X4089Y3490D01*
X4088Y3486D01*
X4140D01*
Y3537D01*
D02*
G37*
G36*
X4014D02*
Y3486D01*
X4066D01*
X4065Y3490D01*
X4059Y3506D01*
X4048Y3520D01*
X4034Y3530D01*
X4019Y3537D01*
X4014Y3537D01*
D02*
G37*
G36*
X3989D02*
X3984Y3537D01*
X3969Y3530D01*
X3955Y3520D01*
X3944Y3506D01*
X3938Y3490D01*
X3937Y3486D01*
X3989D01*
Y3537D01*
D02*
G37*
G36*
X6438Y3523D02*
X6414D01*
Y3454D01*
X6492D01*
Y3469D01*
X6488Y3490D01*
X6476Y3507D01*
X6459Y3519D01*
X6438Y3523D01*
D02*
G37*
G36*
X6388D02*
X6363D01*
X6343Y3519D01*
X6325Y3507D01*
X6313Y3490D01*
X6309Y3469D01*
Y3454D01*
X6388D01*
Y3523D01*
D02*
G37*
G36*
X6693Y3490D02*
X6689D01*
X6667Y3487D01*
X6646Y3478D01*
X6628Y3465D01*
X6615Y3447D01*
X6606Y3426D01*
X6605Y3416D01*
X6693D01*
Y3490D01*
D02*
G37*
G36*
X4972Y3460D02*
X4920D01*
Y3409D01*
X4925Y3409D01*
X4940Y3416D01*
X4954Y3426D01*
X4965Y3440D01*
X4971Y3456D01*
X4972Y3460D01*
D02*
G37*
G36*
X4895D02*
X4843D01*
X4844Y3456D01*
X4850Y3440D01*
X4861Y3426D01*
X4875Y3416D01*
X4890Y3409D01*
X4895Y3409D01*
Y3460D01*
D02*
G37*
G36*
X4821D02*
X4769D01*
Y3409D01*
X4774Y3409D01*
X4789Y3416D01*
X4803Y3426D01*
X4814Y3440D01*
X4820Y3456D01*
X4821Y3460D01*
D02*
G37*
G36*
X4744D02*
X4692D01*
X4693Y3456D01*
X4699Y3440D01*
X4710Y3426D01*
X4724Y3416D01*
X4739Y3409D01*
X4744Y3409D01*
Y3460D01*
D02*
G37*
G36*
X4670D02*
X4618D01*
Y3409D01*
X4623Y3409D01*
X4638Y3416D01*
X4652Y3426D01*
X4663Y3440D01*
X4669Y3456D01*
X4670Y3460D01*
D02*
G37*
G36*
X4593D02*
X4541D01*
X4542Y3456D01*
X4548Y3440D01*
X4559Y3426D01*
X4573Y3416D01*
X4588Y3409D01*
X4593Y3409D01*
Y3460D01*
D02*
G37*
G36*
X4519D02*
X4467D01*
Y3409D01*
X4472Y3409D01*
X4487Y3416D01*
X4501Y3426D01*
X4512Y3440D01*
X4518Y3456D01*
X4519Y3460D01*
D02*
G37*
G36*
X4442D02*
X4390D01*
X4391Y3456D01*
X4397Y3440D01*
X4408Y3426D01*
X4422Y3416D01*
X4437Y3409D01*
X4442Y3409D01*
Y3460D01*
D02*
G37*
G36*
X4368D02*
X4316D01*
Y3409D01*
X4321Y3409D01*
X4336Y3416D01*
X4350Y3426D01*
X4361Y3440D01*
X4367Y3456D01*
X4368Y3460D01*
D02*
G37*
G36*
X4291D02*
X4239D01*
X4240Y3456D01*
X4246Y3440D01*
X4257Y3426D01*
X4271Y3416D01*
X4286Y3409D01*
X4291Y3409D01*
Y3460D01*
D02*
G37*
G36*
X4217D02*
X4165D01*
Y3409D01*
X4170Y3409D01*
X4185Y3416D01*
X4199Y3426D01*
X4210Y3440D01*
X4216Y3456D01*
X4217Y3460D01*
D02*
G37*
G36*
X4140D02*
X4088D01*
X4089Y3456D01*
X4095Y3440D01*
X4106Y3426D01*
X4120Y3416D01*
X4135Y3409D01*
X4140Y3409D01*
Y3460D01*
D02*
G37*
G36*
X4066D02*
X4014D01*
Y3409D01*
X4019Y3409D01*
X4034Y3416D01*
X4048Y3426D01*
X4059Y3440D01*
X4065Y3456D01*
X4066Y3460D01*
D02*
G37*
G36*
X3989D02*
X3937D01*
X3938Y3456D01*
X3944Y3440D01*
X3955Y3426D01*
X3969Y3416D01*
X3984Y3409D01*
X3989Y3409D01*
Y3460D01*
D02*
G37*
G36*
X6492Y3429D02*
X6401D01*
X6309D01*
Y3414D01*
X6313Y3394D01*
X6314Y3392D01*
X6311Y3380D01*
X6309Y3379D01*
X6295Y3369D01*
X6285Y3355D01*
X6278Y3339D01*
X6278Y3335D01*
X6406D01*
X6406Y3339D01*
X6402Y3348D01*
X6410Y3360D01*
X6438D01*
X6459Y3364D01*
X6476Y3376D01*
X6488Y3394D01*
X6492Y3414D01*
Y3429D01*
D02*
G37*
G36*
X4845Y3386D02*
Y3335D01*
X4896D01*
X4896Y3339D01*
X4889Y3355D01*
X4879Y3369D01*
X4865Y3379D01*
X4849Y3386D01*
X4845Y3386D01*
D02*
G37*
G36*
X4819D02*
X4815Y3386D01*
X4799Y3379D01*
X4785Y3369D01*
X4775Y3355D01*
X4768Y3339D01*
X4768Y3335D01*
X4819D01*
Y3386D01*
D02*
G37*
G36*
X4694D02*
Y3335D01*
X4745D01*
X4745Y3339D01*
X4738Y3355D01*
X4728Y3369D01*
X4714Y3379D01*
X4698Y3386D01*
X4694Y3386D01*
D02*
G37*
G36*
X4668D02*
X4664Y3386D01*
X4648Y3379D01*
X4634Y3369D01*
X4624Y3355D01*
X4617Y3339D01*
X4617Y3335D01*
X4668D01*
Y3386D01*
D02*
G37*
G36*
X4543D02*
Y3335D01*
X4594D01*
X4594Y3339D01*
X4587Y3355D01*
X4577Y3369D01*
X4563Y3379D01*
X4547Y3386D01*
X4543Y3386D01*
D02*
G37*
G36*
X4517D02*
X4513Y3386D01*
X4497Y3379D01*
X4483Y3369D01*
X4473Y3355D01*
X4466Y3339D01*
X4466Y3335D01*
X4517D01*
Y3386D01*
D02*
G37*
G36*
X4392D02*
Y3335D01*
X4443D01*
X4443Y3339D01*
X4436Y3355D01*
X4426Y3369D01*
X4412Y3379D01*
X4396Y3386D01*
X4392Y3386D01*
D02*
G37*
G36*
X4366D02*
X4362Y3386D01*
X4346Y3379D01*
X4332Y3369D01*
X4322Y3355D01*
X4315Y3339D01*
X4315Y3335D01*
X4366D01*
Y3386D01*
D02*
G37*
G36*
X3939D02*
Y3335D01*
X3990D01*
X3990Y3339D01*
X3983Y3355D01*
X3973Y3369D01*
X3959Y3379D01*
X3943Y3386D01*
X3939Y3386D01*
D02*
G37*
G36*
X3913D02*
X3909Y3386D01*
X3893Y3379D01*
X3879Y3369D01*
X3869Y3355D01*
X3862Y3339D01*
X3862Y3335D01*
X3913D01*
Y3386D01*
D02*
G37*
G36*
X6693Y3391D02*
X6605D01*
X6606Y3381D01*
X6615Y3361D01*
X6628Y3343D01*
X6646Y3329D01*
X6667Y3320D01*
X6689Y3317D01*
X6693D01*
Y3391D01*
D02*
G37*
G36*
X6406Y3309D02*
X6355D01*
Y3258D01*
X6359Y3258D01*
X6375Y3265D01*
X6389Y3275D01*
X6399Y3289D01*
X6406Y3305D01*
X6406Y3309D01*
D02*
G37*
G36*
X6329D02*
X6278D01*
X6278Y3305D01*
X6285Y3289D01*
X6295Y3275D01*
X6309Y3265D01*
X6325Y3258D01*
X6329Y3258D01*
Y3309D01*
D02*
G37*
G36*
X4819D02*
X4768D01*
X4768Y3305D01*
X4775Y3289D01*
X4785Y3275D01*
X4799Y3265D01*
X4815Y3258D01*
X4819Y3258D01*
Y3309D01*
D02*
G37*
G36*
X4745D02*
X4694D01*
Y3258D01*
X4698Y3258D01*
X4714Y3265D01*
X4728Y3275D01*
X4738Y3289D01*
X4745Y3305D01*
X4745Y3309D01*
D02*
G37*
G36*
X4668D02*
X4617D01*
X4617Y3305D01*
X4624Y3289D01*
X4634Y3275D01*
X4648Y3265D01*
X4664Y3258D01*
X4668Y3258D01*
Y3309D01*
D02*
G37*
G36*
X4594D02*
X4543D01*
Y3258D01*
X4547Y3258D01*
X4563Y3265D01*
X4577Y3275D01*
X4587Y3289D01*
X4594Y3305D01*
X4594Y3309D01*
D02*
G37*
G36*
X4517D02*
X4466D01*
X4466Y3305D01*
X4473Y3289D01*
X4483Y3275D01*
X4497Y3265D01*
X4513Y3258D01*
X4517Y3258D01*
Y3309D01*
D02*
G37*
G36*
X4443D02*
X4392D01*
Y3258D01*
X4396Y3258D01*
X4412Y3265D01*
X4426Y3275D01*
X4436Y3289D01*
X4443Y3305D01*
X4443Y3309D01*
D02*
G37*
G36*
X4366D02*
X4315D01*
X4315Y3305D01*
X4322Y3289D01*
X4332Y3275D01*
X4346Y3265D01*
X4362Y3258D01*
X4366Y3258D01*
Y3309D01*
D02*
G37*
G36*
X3990D02*
X3939D01*
Y3258D01*
X3943Y3258D01*
X3959Y3265D01*
X3973Y3275D01*
X3983Y3289D01*
X3990Y3305D01*
X3990Y3309D01*
D02*
G37*
G36*
X3913D02*
X3862D01*
X3862Y3305D01*
X3869Y3289D01*
X3879Y3275D01*
X3893Y3265D01*
X3909Y3258D01*
X3913Y3258D01*
Y3309D01*
D02*
G37*
G36*
X6707Y3235D02*
X6702Y3235D01*
X6687Y3228D01*
X6673Y3218D01*
X6662Y3204D01*
X6656Y3188D01*
X6655Y3184D01*
X6707D01*
Y3235D01*
D02*
G37*
G36*
X6581D02*
Y3184D01*
X6633D01*
X6632Y3188D01*
X6626Y3204D01*
X6615Y3218D01*
X6601Y3228D01*
X6586Y3235D01*
X6581Y3235D01*
D02*
G37*
G36*
X6556D02*
X6551Y3235D01*
X6536Y3228D01*
X6522Y3218D01*
X6511Y3204D01*
X6505Y3188D01*
X6504Y3184D01*
X6556D01*
Y3235D01*
D02*
G37*
G36*
X6430D02*
Y3184D01*
X6482D01*
X6481Y3188D01*
X6475Y3204D01*
X6464Y3218D01*
X6450Y3228D01*
X6435Y3235D01*
X6430Y3235D01*
D02*
G37*
G36*
X6405D02*
X6400Y3235D01*
X6385Y3228D01*
X6371Y3218D01*
X6360Y3204D01*
X6354Y3188D01*
X6353Y3184D01*
X6405D01*
Y3235D01*
D02*
G37*
G36*
X4618D02*
Y3184D01*
X4670D01*
X4669Y3188D01*
X4663Y3204D01*
X4652Y3218D01*
X4638Y3228D01*
X4623Y3235D01*
X4618Y3235D01*
D02*
G37*
G36*
X4593D02*
X4588Y3235D01*
X4573Y3228D01*
X4559Y3218D01*
X4548Y3204D01*
X4542Y3188D01*
X4541Y3184D01*
X4593D01*
Y3235D01*
D02*
G37*
G36*
X4165D02*
Y3184D01*
X4217D01*
X4216Y3188D01*
X4210Y3204D01*
X4199Y3218D01*
X4185Y3228D01*
X4170Y3235D01*
X4165Y3235D01*
D02*
G37*
G36*
X4140D02*
X4135Y3235D01*
X4120Y3228D01*
X4106Y3218D01*
X4095Y3204D01*
X4089Y3188D01*
X4088Y3184D01*
X4140D01*
Y3235D01*
D02*
G37*
G36*
X4014D02*
Y3184D01*
X4066D01*
X4065Y3188D01*
X4059Y3204D01*
X4048Y3218D01*
X4034Y3228D01*
X4019Y3235D01*
X4014Y3235D01*
D02*
G37*
G36*
X3989D02*
X3984Y3235D01*
X3969Y3228D01*
X3955Y3218D01*
X3944Y3204D01*
X3938Y3188D01*
X3937Y3184D01*
X3989D01*
Y3235D01*
D02*
G37*
G36*
X4394Y3229D02*
Y3162D01*
X4461D01*
X4460Y3171D01*
X4452Y3190D01*
X4439Y3207D01*
X4422Y3220D01*
X4402Y3228D01*
X4394Y3229D01*
D02*
G37*
G36*
X4369D02*
X4361Y3228D01*
X4341Y3220D01*
X4324Y3207D01*
X4311Y3190D01*
X4303Y3171D01*
X4302Y3162D01*
X4369D01*
Y3229D01*
D02*
G37*
G36*
X6229Y3207D02*
X6147D01*
Y3154D01*
X6229D01*
Y3207D01*
D02*
G37*
G36*
X6707Y3158D02*
X6655D01*
X6656Y3154D01*
X6662Y3138D01*
X6673Y3124D01*
X6687Y3114D01*
X6702Y3107D01*
X6707Y3107D01*
Y3158D01*
D02*
G37*
G36*
X6633D02*
X6581D01*
Y3107D01*
X6586Y3107D01*
X6601Y3114D01*
X6615Y3124D01*
X6626Y3138D01*
X6632Y3154D01*
X6633Y3158D01*
D02*
G37*
G36*
X6556D02*
X6504D01*
X6505Y3154D01*
X6511Y3138D01*
X6522Y3124D01*
X6536Y3114D01*
X6551Y3107D01*
X6556Y3107D01*
Y3158D01*
D02*
G37*
G36*
X6482D02*
X6430D01*
Y3107D01*
X6435Y3107D01*
X6450Y3114D01*
X6464Y3124D01*
X6475Y3138D01*
X6481Y3154D01*
X6482Y3158D01*
D02*
G37*
G36*
X6405D02*
X6353D01*
X6354Y3154D01*
X6360Y3138D01*
X6371Y3124D01*
X6385Y3114D01*
X6400Y3107D01*
X6405Y3107D01*
Y3158D01*
D02*
G37*
G36*
X4670D02*
X4618D01*
Y3107D01*
X4623Y3107D01*
X4638Y3114D01*
X4652Y3124D01*
X4663Y3138D01*
X4669Y3154D01*
X4670Y3158D01*
D02*
G37*
G36*
X4593D02*
X4541D01*
X4542Y3154D01*
X4548Y3138D01*
X4559Y3124D01*
X4573Y3114D01*
X4588Y3107D01*
X4593Y3107D01*
Y3158D01*
D02*
G37*
G36*
X4217D02*
X4165D01*
Y3107D01*
X4170Y3107D01*
X4185Y3114D01*
X4199Y3124D01*
X4210Y3138D01*
X4216Y3154D01*
X4217Y3158D01*
D02*
G37*
G36*
X4140D02*
X4088D01*
X4089Y3154D01*
X4095Y3138D01*
X4106Y3124D01*
X4120Y3114D01*
X4135Y3107D01*
X4140Y3107D01*
Y3158D01*
D02*
G37*
G36*
X4066D02*
X4014D01*
Y3107D01*
X4019Y3107D01*
X4034Y3114D01*
X4048Y3124D01*
X4059Y3138D01*
X4065Y3154D01*
X4066Y3158D01*
D02*
G37*
G36*
X3989D02*
X3937D01*
X3938Y3154D01*
X3944Y3138D01*
X3955Y3124D01*
X3969Y3114D01*
X3984Y3107D01*
X3989Y3107D01*
Y3158D01*
D02*
G37*
G36*
X6329Y3084D02*
X6325Y3084D01*
X6309Y3077D01*
X6295Y3067D01*
X6285Y3053D01*
X6278Y3037D01*
X6278Y3033D01*
X6329D01*
Y3084D01*
D02*
G37*
G36*
X6229Y3128D02*
X6039D01*
Y3086D01*
X6023Y3084D01*
X6007Y3077D01*
X5993Y3067D01*
X5983Y3053D01*
X5976Y3037D01*
X5976Y3033D01*
X6104D01*
X6104Y3037D01*
X6097Y3053D01*
X6089Y3063D01*
X6094Y3076D01*
X6137D01*
X6142Y3063D01*
X6134Y3053D01*
X6127Y3037D01*
X6127Y3033D01*
X6255D01*
X6255Y3037D01*
X6248Y3053D01*
X6238Y3067D01*
X6237Y3068D01*
X6229Y3078D01*
X6229Y3088D01*
Y3128D01*
D02*
G37*
G36*
X4694Y3084D02*
Y3033D01*
X4745D01*
X4745Y3037D01*
X4738Y3053D01*
X4728Y3067D01*
X4714Y3077D01*
X4698Y3084D01*
X4694Y3084D01*
D02*
G37*
G36*
X4668D02*
X4664Y3084D01*
X4648Y3077D01*
X4634Y3067D01*
X4624Y3053D01*
X4617Y3037D01*
X4617Y3033D01*
X4668D01*
Y3084D01*
D02*
G37*
G36*
X4543D02*
Y3033D01*
X4594D01*
X4594Y3037D01*
X4587Y3053D01*
X4577Y3067D01*
X4563Y3077D01*
X4547Y3084D01*
X4543Y3084D01*
D02*
G37*
G36*
X4517D02*
X4513Y3084D01*
X4497Y3077D01*
X4483Y3067D01*
X4473Y3053D01*
X4466Y3037D01*
X4466Y3033D01*
X4517D01*
Y3084D01*
D02*
G37*
G36*
X4461Y3137D02*
X4302D01*
X4303Y3129D01*
X4311Y3109D01*
X4324Y3092D01*
X4335Y3084D01*
X4335Y3069D01*
X4335Y3069D01*
X4332Y3067D01*
X4322Y3053D01*
X4315Y3037D01*
X4315Y3033D01*
X4443D01*
X4443Y3037D01*
X4436Y3053D01*
X4426Y3067D01*
X4424Y3068D01*
X4426Y3082D01*
X4439Y3092D01*
X4452Y3109D01*
X4460Y3129D01*
X4461Y3137D01*
D02*
G37*
G36*
X6329Y3007D02*
X6278D01*
X6278Y3003D01*
X6285Y2987D01*
X6295Y2973D01*
X6309Y2963D01*
X6325Y2956D01*
X6329Y2956D01*
Y3007D01*
D02*
G37*
G36*
X6255D02*
X6204D01*
Y2956D01*
X6208Y2956D01*
X6224Y2963D01*
X6238Y2973D01*
X6248Y2987D01*
X6255Y3003D01*
X6255Y3007D01*
D02*
G37*
G36*
X6178D02*
X6127D01*
X6127Y3003D01*
X6134Y2987D01*
X6144Y2973D01*
X6158Y2963D01*
X6174Y2956D01*
X6178Y2956D01*
Y3007D01*
D02*
G37*
G36*
X6104D02*
X6053D01*
Y2956D01*
X6057Y2956D01*
X6073Y2963D01*
X6087Y2973D01*
X6097Y2987D01*
X6104Y3003D01*
X6104Y3007D01*
D02*
G37*
G36*
X6027D02*
X5976D01*
X5976Y3003D01*
X5983Y2987D01*
X5993Y2973D01*
X6007Y2963D01*
X6023Y2956D01*
X6027Y2956D01*
Y3007D01*
D02*
G37*
G36*
X5953D02*
X5902D01*
Y2956D01*
X5906Y2956D01*
X5922Y2963D01*
X5936Y2973D01*
X5946Y2987D01*
X5953Y3003D01*
X5953Y3007D01*
D02*
G37*
G36*
X5876D02*
X5825D01*
X5825Y3003D01*
X5832Y2987D01*
X5842Y2973D01*
X5856Y2963D01*
X5872Y2956D01*
X5876Y2956D01*
Y3007D01*
D02*
G37*
G36*
X5802D02*
X5751D01*
Y2956D01*
X5755Y2956D01*
X5771Y2963D01*
X5785Y2973D01*
X5795Y2987D01*
X5802Y3003D01*
X5802Y3007D01*
D02*
G37*
G36*
X5500D02*
X5449D01*
Y2956D01*
X5453Y2956D01*
X5469Y2963D01*
X5483Y2973D01*
X5493Y2987D01*
X5500Y3003D01*
X5500Y3007D01*
D02*
G37*
G36*
X5423D02*
X5372D01*
X5372Y3003D01*
X5379Y2987D01*
X5389Y2973D01*
X5403Y2963D01*
X5419Y2956D01*
X5423Y2956D01*
Y3007D01*
D02*
G37*
G36*
X4745D02*
X4694D01*
Y2956D01*
X4698Y2956D01*
X4714Y2963D01*
X4728Y2973D01*
X4738Y2987D01*
X4745Y3003D01*
X4745Y3007D01*
D02*
G37*
G36*
X4668D02*
X4617D01*
X4617Y3003D01*
X4624Y2987D01*
X4634Y2973D01*
X4648Y2963D01*
X4664Y2956D01*
X4668Y2956D01*
Y3007D01*
D02*
G37*
G36*
X4594D02*
X4543D01*
Y2956D01*
X4547Y2956D01*
X4563Y2963D01*
X4577Y2973D01*
X4587Y2987D01*
X4594Y3003D01*
X4594Y3007D01*
D02*
G37*
G36*
X4517D02*
X4466D01*
X4466Y3003D01*
X4473Y2987D01*
X4483Y2973D01*
X4497Y2963D01*
X4513Y2956D01*
X4517Y2956D01*
Y3007D01*
D02*
G37*
G36*
X4443D02*
X4392D01*
Y2956D01*
X4396Y2956D01*
X4412Y2963D01*
X4426Y2973D01*
X4436Y2987D01*
X4443Y3003D01*
X4443Y3007D01*
D02*
G37*
G36*
X4366D02*
X4315D01*
X4315Y3003D01*
X4322Y2987D01*
X4332Y2973D01*
X4346Y2963D01*
X4362Y2956D01*
X4366Y2956D01*
Y3007D01*
D02*
G37*
G36*
X6279Y2933D02*
Y2882D01*
X6331D01*
X6330Y2886D01*
X6324Y2902D01*
X6313Y2916D01*
X6299Y2926D01*
X6284Y2933D01*
X6279Y2933D01*
D02*
G37*
G36*
X6254D02*
X6249Y2933D01*
X6234Y2926D01*
X6220Y2916D01*
X6209Y2902D01*
X6203Y2886D01*
X6202Y2882D01*
X6254D01*
Y2933D01*
D02*
G37*
G36*
X6128D02*
Y2882D01*
X6180D01*
X6179Y2886D01*
X6173Y2902D01*
X6162Y2916D01*
X6148Y2926D01*
X6133Y2933D01*
X6128Y2933D01*
D02*
G37*
G36*
X6103D02*
X6098Y2933D01*
X6083Y2926D01*
X6069Y2916D01*
X6058Y2902D01*
X6052Y2886D01*
X6051Y2882D01*
X6103D01*
Y2933D01*
D02*
G37*
G36*
X5977D02*
Y2882D01*
X6029D01*
X6028Y2886D01*
X6022Y2902D01*
X6011Y2916D01*
X5997Y2926D01*
X5982Y2933D01*
X5977Y2933D01*
D02*
G37*
G36*
X5952D02*
X5947Y2933D01*
X5932Y2926D01*
X5918Y2916D01*
X5907Y2902D01*
X5901Y2886D01*
X5900Y2882D01*
X5952D01*
Y2933D01*
D02*
G37*
G36*
X5826D02*
Y2882D01*
X5878D01*
X5877Y2886D01*
X5871Y2902D01*
X5860Y2916D01*
X5846Y2926D01*
X5831Y2933D01*
X5826Y2933D01*
D02*
G37*
G36*
X5801D02*
X5796Y2933D01*
X5781Y2926D01*
X5767Y2916D01*
X5756Y2902D01*
X5750Y2886D01*
X5749Y2882D01*
X5801D01*
Y2933D01*
D02*
G37*
G36*
X5675D02*
Y2882D01*
X5727D01*
X5726Y2886D01*
X5720Y2902D01*
X5709Y2916D01*
X5695Y2926D01*
X5680Y2933D01*
X5675Y2933D01*
D02*
G37*
G36*
X5650D02*
X5645Y2933D01*
X5630Y2926D01*
X5616Y2916D01*
X5605Y2902D01*
X5599Y2886D01*
X5598Y2882D01*
X5650D01*
Y2933D01*
D02*
G37*
G36*
X5524D02*
Y2882D01*
X5576D01*
X5575Y2886D01*
X5569Y2902D01*
X5558Y2916D01*
X5544Y2926D01*
X5529Y2933D01*
X5524Y2933D01*
D02*
G37*
G36*
X5499D02*
X5494Y2933D01*
X5479Y2926D01*
X5465Y2916D01*
X5454Y2902D01*
X5448Y2886D01*
X5447Y2882D01*
X5499D01*
Y2933D01*
D02*
G37*
G36*
X5373D02*
Y2882D01*
X5425D01*
X5424Y2886D01*
X5418Y2902D01*
X5407Y2916D01*
X5393Y2926D01*
X5378Y2933D01*
X5373Y2933D01*
D02*
G37*
G36*
X5348D02*
X5343Y2933D01*
X5328Y2926D01*
X5314Y2916D01*
X5303Y2902D01*
X5297Y2886D01*
X5296Y2882D01*
X5348D01*
Y2933D01*
D02*
G37*
G36*
X4769D02*
Y2882D01*
X4821D01*
X4820Y2886D01*
X4814Y2902D01*
X4803Y2916D01*
X4789Y2926D01*
X4774Y2933D01*
X4769Y2933D01*
D02*
G37*
G36*
X4744D02*
X4739Y2933D01*
X4724Y2926D01*
X4710Y2916D01*
X4699Y2902D01*
X4693Y2886D01*
X4692Y2882D01*
X4744D01*
Y2933D01*
D02*
G37*
G36*
X4618D02*
Y2882D01*
X4670D01*
X4669Y2886D01*
X4663Y2902D01*
X4652Y2916D01*
X4638Y2926D01*
X4623Y2933D01*
X4618Y2933D01*
D02*
G37*
G36*
X4593D02*
X4588Y2933D01*
X4573Y2926D01*
X4559Y2916D01*
X4548Y2902D01*
X4542Y2886D01*
X4541Y2882D01*
X4593D01*
Y2933D01*
D02*
G37*
G36*
X4467D02*
Y2882D01*
X4519D01*
X4518Y2886D01*
X4512Y2902D01*
X4501Y2916D01*
X4487Y2926D01*
X4472Y2933D01*
X4467Y2933D01*
D02*
G37*
G36*
X4442D02*
X4437Y2933D01*
X4422Y2926D01*
X4408Y2916D01*
X4397Y2902D01*
X4391Y2886D01*
X4390Y2882D01*
X4442D01*
Y2933D01*
D02*
G37*
G36*
X4316D02*
Y2882D01*
X4368D01*
X4367Y2886D01*
X4361Y2902D01*
X4350Y2916D01*
X4336Y2926D01*
X4321Y2933D01*
X4316Y2933D01*
D02*
G37*
G36*
X6331Y2856D02*
X6279D01*
Y2805D01*
X6284Y2805D01*
X6299Y2812D01*
X6313Y2822D01*
X6324Y2836D01*
X6330Y2852D01*
X6331Y2856D01*
D02*
G37*
G36*
X6254D02*
X6202D01*
X6203Y2852D01*
X6209Y2836D01*
X6220Y2822D01*
X6234Y2812D01*
X6249Y2805D01*
X6254Y2805D01*
Y2856D01*
D02*
G37*
G36*
X6180D02*
X6128D01*
Y2805D01*
X6133Y2805D01*
X6148Y2812D01*
X6162Y2822D01*
X6173Y2836D01*
X6179Y2852D01*
X6180Y2856D01*
D02*
G37*
G36*
X6103D02*
X6051D01*
X6052Y2852D01*
X6058Y2836D01*
X6069Y2822D01*
X6083Y2812D01*
X6098Y2805D01*
X6103Y2805D01*
Y2856D01*
D02*
G37*
G36*
X6029D02*
X5977D01*
Y2805D01*
X5982Y2805D01*
X5997Y2812D01*
X6011Y2822D01*
X6022Y2836D01*
X6028Y2852D01*
X6029Y2856D01*
D02*
G37*
G36*
X5952D02*
X5900D01*
X5901Y2852D01*
X5907Y2836D01*
X5918Y2822D01*
X5932Y2812D01*
X5947Y2805D01*
X5952Y2805D01*
Y2856D01*
D02*
G37*
G36*
X5878D02*
X5826D01*
Y2805D01*
X5831Y2805D01*
X5846Y2812D01*
X5860Y2822D01*
X5871Y2836D01*
X5877Y2852D01*
X5878Y2856D01*
D02*
G37*
G36*
X5801D02*
X5749D01*
X5750Y2852D01*
X5756Y2836D01*
X5767Y2822D01*
X5781Y2812D01*
X5796Y2805D01*
X5801Y2805D01*
Y2856D01*
D02*
G37*
G36*
X5727D02*
X5675D01*
Y2805D01*
X5680Y2805D01*
X5695Y2812D01*
X5709Y2822D01*
X5720Y2836D01*
X5726Y2852D01*
X5727Y2856D01*
D02*
G37*
G36*
X5650D02*
X5598D01*
X5599Y2852D01*
X5605Y2836D01*
X5616Y2822D01*
X5630Y2812D01*
X5645Y2805D01*
X5650Y2805D01*
Y2856D01*
D02*
G37*
G36*
X5576D02*
X5524D01*
Y2805D01*
X5529Y2805D01*
X5544Y2812D01*
X5558Y2822D01*
X5569Y2836D01*
X5575Y2852D01*
X5576Y2856D01*
D02*
G37*
G36*
X5499D02*
X5447D01*
X5448Y2852D01*
X5454Y2836D01*
X5465Y2822D01*
X5479Y2812D01*
X5494Y2805D01*
X5499Y2805D01*
Y2856D01*
D02*
G37*
G36*
X5425D02*
X5373D01*
Y2805D01*
X5378Y2805D01*
X5393Y2812D01*
X5407Y2822D01*
X5418Y2836D01*
X5424Y2852D01*
X5425Y2856D01*
D02*
G37*
G36*
X5348D02*
X5296D01*
X5297Y2852D01*
X5303Y2836D01*
X5314Y2822D01*
X5328Y2812D01*
X5343Y2805D01*
X5348Y2805D01*
Y2856D01*
D02*
G37*
G36*
X5274D02*
X5222D01*
Y2805D01*
X5227Y2805D01*
X5242Y2812D01*
X5256Y2822D01*
X5267Y2836D01*
X5273Y2852D01*
X5274Y2856D01*
D02*
G37*
G36*
X4895D02*
X4843D01*
X4844Y2852D01*
X4850Y2836D01*
X4861Y2822D01*
X4875Y2812D01*
X4890Y2805D01*
X4895Y2805D01*
Y2856D01*
D02*
G37*
G36*
X4821D02*
X4769D01*
Y2805D01*
X4774Y2805D01*
X4789Y2812D01*
X4803Y2822D01*
X4814Y2836D01*
X4820Y2852D01*
X4821Y2856D01*
D02*
G37*
G36*
X4744D02*
X4692D01*
X4693Y2852D01*
X4699Y2836D01*
X4710Y2822D01*
X4724Y2812D01*
X4739Y2805D01*
X4744Y2805D01*
Y2856D01*
D02*
G37*
G36*
X4670D02*
X4618D01*
Y2805D01*
X4623Y2805D01*
X4638Y2812D01*
X4652Y2822D01*
X4663Y2836D01*
X4669Y2852D01*
X4670Y2856D01*
D02*
G37*
G36*
X4593D02*
X4541D01*
X4542Y2852D01*
X4548Y2836D01*
X4559Y2822D01*
X4573Y2812D01*
X4588Y2805D01*
X4593Y2805D01*
Y2856D01*
D02*
G37*
G36*
X4519D02*
X4467D01*
Y2805D01*
X4472Y2805D01*
X4487Y2812D01*
X4501Y2822D01*
X4512Y2836D01*
X4518Y2852D01*
X4519Y2856D01*
D02*
G37*
G36*
X4442D02*
X4390D01*
X4391Y2852D01*
X4397Y2836D01*
X4408Y2822D01*
X4422Y2812D01*
X4437Y2805D01*
X4442Y2805D01*
Y2856D01*
D02*
G37*
G36*
X4368D02*
X4316D01*
Y2805D01*
X4321Y2805D01*
X4336Y2812D01*
X4350Y2822D01*
X4361Y2836D01*
X4367Y2852D01*
X4368Y2856D01*
D02*
G37*
G36*
X6329Y2782D02*
X6325Y2782D01*
X6309Y2775D01*
X6295Y2765D01*
X6285Y2751D01*
X6278Y2735D01*
X6278Y2731D01*
X6329D01*
Y2782D01*
D02*
G37*
G36*
X6204D02*
Y2731D01*
X6255D01*
X6255Y2735D01*
X6248Y2751D01*
X6238Y2765D01*
X6224Y2775D01*
X6208Y2782D01*
X6204Y2782D01*
D02*
G37*
G36*
X6178D02*
X6174Y2782D01*
X6158Y2775D01*
X6144Y2765D01*
X6134Y2751D01*
X6127Y2735D01*
X6127Y2731D01*
X6178D01*
Y2782D01*
D02*
G37*
G36*
X6053D02*
Y2731D01*
X6104D01*
X6104Y2735D01*
X6097Y2751D01*
X6087Y2765D01*
X6073Y2775D01*
X6057Y2782D01*
X6053Y2782D01*
D02*
G37*
G36*
X6027D02*
X6023Y2782D01*
X6007Y2775D01*
X5993Y2765D01*
X5983Y2751D01*
X5976Y2735D01*
X5976Y2731D01*
X6027D01*
Y2782D01*
D02*
G37*
G36*
X5902D02*
Y2731D01*
X5953D01*
X5953Y2735D01*
X5946Y2751D01*
X5936Y2765D01*
X5922Y2775D01*
X5906Y2782D01*
X5902Y2782D01*
D02*
G37*
G36*
X5876D02*
X5872Y2782D01*
X5856Y2775D01*
X5842Y2765D01*
X5832Y2751D01*
X5825Y2735D01*
X5825Y2731D01*
X5876D01*
Y2782D01*
D02*
G37*
G36*
X5751D02*
Y2731D01*
X5802D01*
X5802Y2735D01*
X5795Y2751D01*
X5785Y2765D01*
X5771Y2775D01*
X5755Y2782D01*
X5751Y2782D01*
D02*
G37*
G36*
X5725D02*
X5721Y2782D01*
X5705Y2775D01*
X5691Y2765D01*
X5681Y2751D01*
X5674Y2735D01*
X5674Y2731D01*
X5725D01*
Y2782D01*
D02*
G37*
G36*
X5600D02*
Y2731D01*
X5651D01*
X5651Y2735D01*
X5644Y2751D01*
X5634Y2765D01*
X5620Y2775D01*
X5604Y2782D01*
X5600Y2782D01*
D02*
G37*
G36*
X5574D02*
X5570Y2782D01*
X5554Y2775D01*
X5540Y2765D01*
X5530Y2751D01*
X5523Y2735D01*
X5523Y2731D01*
X5574D01*
Y2782D01*
D02*
G37*
G36*
X5449D02*
Y2731D01*
X5500D01*
X5500Y2735D01*
X5493Y2751D01*
X5483Y2765D01*
X5469Y2775D01*
X5453Y2782D01*
X5449Y2782D01*
D02*
G37*
G36*
X5423D02*
X5419Y2782D01*
X5403Y2775D01*
X5389Y2765D01*
X5379Y2751D01*
X5372Y2735D01*
X5372Y2731D01*
X5423D01*
Y2782D01*
D02*
G37*
G36*
X5298D02*
Y2731D01*
X5349D01*
X5349Y2735D01*
X5342Y2751D01*
X5332Y2765D01*
X5318Y2775D01*
X5302Y2782D01*
X5298Y2782D01*
D02*
G37*
G36*
X5272D02*
X5268Y2782D01*
X5252Y2775D01*
X5238Y2765D01*
X5228Y2751D01*
X5221Y2735D01*
X5221Y2731D01*
X5272D01*
Y2782D01*
D02*
G37*
G36*
X5147D02*
Y2731D01*
X5198D01*
X5198Y2735D01*
X5191Y2751D01*
X5181Y2765D01*
X5167Y2775D01*
X5151Y2782D01*
X5147Y2782D01*
D02*
G37*
G36*
X5121D02*
X5117Y2782D01*
X5101Y2775D01*
X5087Y2765D01*
X5077Y2751D01*
X5070Y2735D01*
X5070Y2731D01*
X5121D01*
Y2782D01*
D02*
G37*
G36*
X4996D02*
Y2731D01*
X5047D01*
X5047Y2735D01*
X5040Y2751D01*
X5030Y2765D01*
X5016Y2775D01*
X5000Y2782D01*
X4996Y2782D01*
D02*
G37*
G36*
X4970D02*
X4966Y2782D01*
X4950Y2775D01*
X4936Y2765D01*
X4926Y2751D01*
X4919Y2735D01*
X4919Y2731D01*
X4970D01*
Y2782D01*
D02*
G37*
G36*
X4845D02*
Y2731D01*
X4896D01*
X4896Y2735D01*
X4889Y2751D01*
X4879Y2765D01*
X4865Y2775D01*
X4849Y2782D01*
X4845Y2782D01*
D02*
G37*
G36*
X4819D02*
X4815Y2782D01*
X4799Y2775D01*
X4785Y2765D01*
X4775Y2751D01*
X4768Y2735D01*
X4768Y2731D01*
X4819D01*
Y2782D01*
D02*
G37*
G36*
X4694D02*
Y2731D01*
X4745D01*
X4745Y2735D01*
X4738Y2751D01*
X4728Y2765D01*
X4714Y2775D01*
X4698Y2782D01*
X4694Y2782D01*
D02*
G37*
G36*
X4668D02*
X4664Y2782D01*
X4648Y2775D01*
X4634Y2765D01*
X4624Y2751D01*
X4617Y2735D01*
X4617Y2731D01*
X4668D01*
Y2782D01*
D02*
G37*
G36*
X4543D02*
Y2731D01*
X4594D01*
X4594Y2735D01*
X4587Y2751D01*
X4577Y2765D01*
X4563Y2775D01*
X4547Y2782D01*
X4543Y2782D01*
D02*
G37*
G36*
X4517D02*
X4513Y2782D01*
X4497Y2775D01*
X4483Y2765D01*
X4473Y2751D01*
X4466Y2735D01*
X4466Y2731D01*
X4517D01*
Y2782D01*
D02*
G37*
G36*
X4392D02*
Y2731D01*
X4443D01*
X4443Y2735D01*
X4436Y2751D01*
X4426Y2765D01*
X4412Y2775D01*
X4396Y2782D01*
X4392Y2782D01*
D02*
G37*
G36*
X4366D02*
X4362Y2782D01*
X4346Y2775D01*
X4332Y2765D01*
X4322Y2751D01*
X4315Y2735D01*
X4315Y2731D01*
X4366D01*
Y2782D01*
D02*
G37*
G36*
X6329Y2705D02*
X6278D01*
X6278Y2701D01*
X6285Y2685D01*
X6295Y2671D01*
X6309Y2661D01*
X6325Y2654D01*
X6329Y2654D01*
Y2705D01*
D02*
G37*
G36*
X6255D02*
X6204D01*
Y2654D01*
X6208Y2654D01*
X6224Y2661D01*
X6238Y2671D01*
X6248Y2685D01*
X6255Y2701D01*
X6255Y2705D01*
D02*
G37*
G36*
X6178D02*
X6127D01*
X6127Y2701D01*
X6134Y2685D01*
X6144Y2671D01*
X6158Y2661D01*
X6174Y2654D01*
X6178Y2654D01*
Y2705D01*
D02*
G37*
G36*
X6104D02*
X6053D01*
Y2654D01*
X6057Y2654D01*
X6073Y2661D01*
X6087Y2671D01*
X6097Y2685D01*
X6104Y2701D01*
X6104Y2705D01*
D02*
G37*
G36*
X6027D02*
X5976D01*
X5976Y2701D01*
X5983Y2685D01*
X5993Y2671D01*
X6007Y2661D01*
X6023Y2654D01*
X6027Y2654D01*
Y2705D01*
D02*
G37*
G36*
X5953D02*
X5902D01*
Y2654D01*
X5906Y2654D01*
X5922Y2661D01*
X5936Y2671D01*
X5946Y2685D01*
X5953Y2701D01*
X5953Y2705D01*
D02*
G37*
G36*
X5876D02*
X5825D01*
X5825Y2701D01*
X5832Y2685D01*
X5842Y2671D01*
X5856Y2661D01*
X5872Y2654D01*
X5876Y2654D01*
Y2705D01*
D02*
G37*
G36*
X5802D02*
X5751D01*
Y2654D01*
X5755Y2654D01*
X5771Y2661D01*
X5785Y2671D01*
X5795Y2685D01*
X5802Y2701D01*
X5802Y2705D01*
D02*
G37*
G36*
X5725D02*
X5674D01*
X5674Y2701D01*
X5681Y2685D01*
X5691Y2671D01*
X5705Y2661D01*
X5721Y2654D01*
X5725Y2654D01*
Y2705D01*
D02*
G37*
G36*
X5651D02*
X5600D01*
Y2654D01*
X5604Y2654D01*
X5620Y2661D01*
X5634Y2671D01*
X5644Y2685D01*
X5651Y2701D01*
X5651Y2705D01*
D02*
G37*
G36*
X5574D02*
X5523D01*
X5523Y2701D01*
X5530Y2685D01*
X5540Y2671D01*
X5554Y2661D01*
X5570Y2654D01*
X5574Y2654D01*
Y2705D01*
D02*
G37*
G36*
X5500D02*
X5449D01*
Y2654D01*
X5453Y2654D01*
X5469Y2661D01*
X5483Y2671D01*
X5493Y2685D01*
X5500Y2701D01*
X5500Y2705D01*
D02*
G37*
G36*
X5423D02*
X5372D01*
X5372Y2701D01*
X5379Y2685D01*
X5389Y2671D01*
X5403Y2661D01*
X5419Y2654D01*
X5423Y2654D01*
Y2705D01*
D02*
G37*
G36*
X5349D02*
X5298D01*
Y2654D01*
X5302Y2654D01*
X5318Y2661D01*
X5332Y2671D01*
X5342Y2685D01*
X5349Y2701D01*
X5349Y2705D01*
D02*
G37*
G36*
X5272D02*
X5221D01*
X5221Y2701D01*
X5228Y2685D01*
X5238Y2671D01*
X5252Y2661D01*
X5268Y2654D01*
X5272Y2654D01*
Y2705D01*
D02*
G37*
G36*
X5198D02*
X5147D01*
Y2654D01*
X5151Y2654D01*
X5167Y2661D01*
X5181Y2671D01*
X5191Y2685D01*
X5198Y2701D01*
X5198Y2705D01*
D02*
G37*
G36*
X5121D02*
X5070D01*
X5070Y2701D01*
X5077Y2685D01*
X5087Y2671D01*
X5101Y2661D01*
X5117Y2654D01*
X5121Y2654D01*
Y2705D01*
D02*
G37*
G36*
X5047D02*
X4996D01*
Y2654D01*
X5000Y2654D01*
X5016Y2661D01*
X5030Y2671D01*
X5040Y2685D01*
X5047Y2701D01*
X5047Y2705D01*
D02*
G37*
G36*
X4970D02*
X4919D01*
X4919Y2701D01*
X4926Y2685D01*
X4936Y2671D01*
X4950Y2661D01*
X4966Y2654D01*
X4970Y2654D01*
Y2705D01*
D02*
G37*
G36*
X4896D02*
X4845D01*
Y2654D01*
X4849Y2654D01*
X4865Y2661D01*
X4879Y2671D01*
X4889Y2685D01*
X4896Y2701D01*
X4896Y2705D01*
D02*
G37*
G36*
X4819D02*
X4768D01*
X4768Y2701D01*
X4775Y2685D01*
X4785Y2671D01*
X4799Y2661D01*
X4815Y2654D01*
X4819Y2654D01*
Y2705D01*
D02*
G37*
G36*
X4745D02*
X4694D01*
Y2654D01*
X4698Y2654D01*
X4714Y2661D01*
X4728Y2671D01*
X4738Y2685D01*
X4745Y2701D01*
X4745Y2705D01*
D02*
G37*
G36*
X4668D02*
X4617D01*
X4617Y2701D01*
X4624Y2685D01*
X4634Y2671D01*
X4648Y2661D01*
X4664Y2654D01*
X4668Y2654D01*
Y2705D01*
D02*
G37*
G36*
X4594D02*
X4543D01*
Y2654D01*
X4547Y2654D01*
X4563Y2661D01*
X4577Y2671D01*
X4587Y2685D01*
X4594Y2701D01*
X4594Y2705D01*
D02*
G37*
G36*
X4517D02*
X4466D01*
X4466Y2701D01*
X4473Y2685D01*
X4483Y2671D01*
X4497Y2661D01*
X4513Y2654D01*
X4517Y2654D01*
Y2705D01*
D02*
G37*
G36*
X4443D02*
X4392D01*
Y2654D01*
X4396Y2654D01*
X4412Y2661D01*
X4426Y2671D01*
X4436Y2685D01*
X4443Y2701D01*
X4443Y2705D01*
D02*
G37*
G36*
X4366D02*
X4315D01*
X4315Y2701D01*
X4322Y2685D01*
X4332Y2671D01*
X4346Y2661D01*
X4362Y2654D01*
X4366Y2654D01*
Y2705D01*
D02*
G37*
G36*
X4618Y4443D02*
Y4392D01*
X4670D01*
X4669Y4396D01*
X4663Y4412D01*
X4652Y4426D01*
X4638Y4436D01*
X4623Y4443D01*
X4618Y4443D01*
D02*
G37*
G36*
X4593D02*
X4588Y4443D01*
X4573Y4436D01*
X4559Y4426D01*
X4548Y4412D01*
X4542Y4396D01*
X4541Y4392D01*
X4593D01*
Y4443D01*
D02*
G37*
G36*
X4670Y4366D02*
X4618D01*
Y4315D01*
X4623Y4315D01*
X4638Y4322D01*
X4652Y4332D01*
X4663Y4346D01*
X4669Y4362D01*
X4670Y4366D01*
D02*
G37*
G36*
X4593D02*
X4541D01*
X4542Y4362D01*
X4548Y4346D01*
X4559Y4332D01*
X4573Y4322D01*
X4588Y4315D01*
X4593Y4315D01*
Y4366D01*
D02*
G37*
G36*
X4668Y4292D02*
X4664Y4292D01*
X4648Y4285D01*
X4634Y4275D01*
X4624Y4261D01*
X4617Y4245D01*
X4617Y4241D01*
X4668D01*
Y4292D01*
D02*
G37*
G36*
X4543D02*
Y4241D01*
X4594D01*
X4594Y4245D01*
X4587Y4261D01*
X4577Y4275D01*
X4563Y4285D01*
X4547Y4292D01*
X4543Y4292D01*
D02*
G37*
G36*
X4668Y4215D02*
X4617D01*
X4617Y4211D01*
X4624Y4195D01*
X4634Y4181D01*
X4648Y4171D01*
X4664Y4164D01*
X4668Y4164D01*
Y4215D01*
D02*
G37*
G36*
X4594D02*
X4543D01*
Y4164D01*
X4547Y4164D01*
X4563Y4171D01*
X4577Y4181D01*
X4587Y4195D01*
X4594Y4211D01*
X4594Y4215D01*
D02*
G37*
G36*
X4618Y4141D02*
Y4090D01*
X4670D01*
X4669Y4094D01*
X4663Y4110D01*
X4652Y4124D01*
X4638Y4134D01*
X4623Y4141D01*
X4618Y4141D01*
D02*
G37*
G36*
X4593D02*
X4588Y4141D01*
X4573Y4134D01*
X4559Y4124D01*
X4548Y4110D01*
X4542Y4094D01*
X4541Y4090D01*
X4593D01*
Y4141D01*
D02*
G37*
G36*
X4670Y4064D02*
X4618D01*
Y4013D01*
X4623Y4013D01*
X4638Y4020D01*
X4652Y4030D01*
X4663Y4044D01*
X4669Y4060D01*
X4670Y4064D01*
D02*
G37*
G36*
X4593D02*
X4541D01*
X4542Y4060D01*
X4548Y4044D01*
X4559Y4030D01*
X4573Y4020D01*
X4588Y4013D01*
X4593Y4013D01*
Y4064D01*
D02*
G37*
G36*
X4493Y4084D02*
X4436D01*
Y4002D01*
X4493D01*
Y4084D01*
D02*
G37*
G36*
X4410D02*
X4353D01*
Y4002D01*
X4410D01*
Y4084D01*
D02*
G37*
G36*
X4493Y3931D02*
X4436D01*
Y3848D01*
X4493D01*
Y3931D01*
D02*
G37*
G36*
X4410D02*
X4353D01*
Y3848D01*
X4410D01*
Y3931D01*
D02*
G37*
%LPD*%
D15*
X5880Y7671D02*
X5893D01*
X3848Y9639D02*
X4147Y9341D01*
Y8045D02*
Y9341D01*
X4496Y7963D02*
X4610D01*
X4140Y7785D02*
X4143Y7788D01*
X4645D01*
X4826Y7607D01*
X4737Y7303D02*
Y7557D01*
X4661Y7620D02*
X4674Y7633D01*
X4661Y7366D02*
Y7620D01*
X4674D02*
Y7633D01*
X4191Y8077D02*
Y8877D01*
X4254Y7938D02*
X4464D01*
X4147Y8045D02*
X4254Y7938D01*
X4191Y8877D02*
X4318Y9004D01*
X4191Y8077D02*
X4254Y8014D01*
X4599Y7884D02*
X5040D01*
X4575Y7909D02*
X4599Y7884D01*
X4493Y7909D02*
X4575D01*
X5040Y7884D02*
X5042Y7887D01*
X4464Y7938D02*
X4493Y7909D01*
X4522Y8026D02*
X4687D01*
X4458Y8090D02*
X4522Y8026D01*
X4572Y8077D02*
X4712D01*
X4483Y8166D02*
X4572Y8077D01*
X4597Y8128D02*
X4818D01*
X4433Y8292D02*
X4597Y8128D01*
X4254Y8115D02*
Y8623D01*
Y8115D02*
X4280Y8090D01*
X4788Y7925D02*
X4979D01*
X4687Y8026D02*
X4788Y7925D01*
X4915Y8039D02*
X4966Y7988D01*
X4712Y8077D02*
X4750Y8039D01*
X4915D01*
X4818Y8128D02*
X4843Y8102D01*
X4280Y8090D02*
X4458D01*
X4369Y8166D02*
X4483D01*
X5016Y7962D02*
Y7962D01*
X4979Y7925D02*
X5016Y7962D01*
X4953Y7988D02*
X4966D01*
X5016Y7962D02*
X5029Y7976D01*
X5080D01*
X5021Y8103D02*
X5385D01*
X4826Y7607D02*
X5118D01*
X5283Y7798D02*
X5296Y7811D01*
X5690Y7175D02*
Y7277D01*
X5664Y7303D02*
X5690Y7277D01*
X4610Y9843D02*
X4851Y10084D01*
X4610Y9779D02*
Y9843D01*
X4851Y10084D02*
X5283D01*
X9068Y7010D02*
Y7074D01*
X8979Y6922D02*
X9068Y7010D01*
X8928Y6096D02*
Y6972D01*
X8979Y6046D02*
Y6922D01*
X8585Y6515D02*
X8865D01*
X8839Y5906D02*
X8979Y6046D01*
X8585Y5906D02*
X8839D01*
X9042Y6210D02*
X9093D01*
X9157Y6274D01*
X8890Y6058D02*
X8928Y6096D01*
X8585Y6210D02*
X8865D01*
X8839Y7331D02*
X8874Y7366D01*
X8839Y7188D02*
Y7331D01*
X8585Y6363D02*
X8788D01*
X8585Y6668D02*
X8712D01*
X8585Y6058D02*
X8890D01*
X8798Y7074D02*
X9068D01*
X8506Y7366D02*
X8798Y7074D01*
X9004Y7366D02*
X9084D01*
X8928Y3747D02*
X8992D01*
X8852Y3670D02*
X8928Y3747D01*
X8572Y3721D02*
X8623Y3670D01*
X8572Y3721D02*
Y3899D01*
X8750Y4051D02*
Y4191D01*
X9169Y3530D02*
Y3886D01*
X9117Y3938D02*
X9169Y3886D01*
X8992Y3901D02*
X9091Y4001D01*
X8992Y3899D02*
Y3901D01*
X9094Y4001D02*
X9106Y4013D01*
X9091Y4001D02*
X9094D01*
X9106Y4280D02*
Y4376D01*
Y4013D02*
Y4280D01*
X5565Y5323D02*
X5904D01*
X5906Y5321D01*
X5563D02*
X5565Y5323D01*
X5842Y5220D02*
Y5245D01*
X5815Y5193D02*
X5842Y5220D01*
X6642Y8153D02*
Y8238D01*
X6584Y8096D02*
X6642Y8153D01*
X6245Y8096D02*
X6584D01*
X6213Y8128D02*
X6245Y8096D01*
X6185Y8128D02*
X6213D01*
X7510Y6744D02*
Y6921D01*
Y6477D02*
Y6744D01*
X7429D02*
X7510D01*
X7429Y4670D02*
Y4906D01*
X7420Y4661D02*
X7620D01*
X7518Y8395D02*
X7683Y8560D01*
X7518Y7376D02*
Y8395D01*
Y7376D02*
X7540Y7354D01*
X7404Y8712D02*
X7557Y8865D01*
X7404Y7395D02*
Y8712D01*
Y7395D02*
X7473Y7327D01*
X7729Y7277D02*
X7793D01*
X7595Y7143D02*
X7729Y7277D01*
X5347Y7219D02*
X5474Y7346D01*
X5601Y7595D02*
X5804D01*
X5474Y7346D02*
Y7468D01*
X5601Y7595D01*
X5290Y7219D02*
X5347D01*
X6401Y8210D02*
X6401D01*
Y8141D02*
Y8210D01*
X4597Y6045D02*
X5512D01*
X5537Y6121D02*
X5588Y6071D01*
Y6045D02*
Y6071D01*
X5982Y7976D02*
X6097Y7861D01*
X5982Y7976D02*
Y8623D01*
X4885Y5131D02*
X5093D01*
X5677Y5194D02*
X5715Y5232D01*
X4343Y4687D02*
X4850Y5194D01*
X5677D01*
X4343Y4497D02*
Y4687D01*
X4208Y4361D02*
X4343Y4497D01*
X6172Y6769D02*
X6236Y6833D01*
X6172Y6062D02*
Y6769D01*
X6137Y6027D02*
X6172Y6062D01*
X6137Y5934D02*
Y6027D01*
X6058Y5855D02*
X6137Y5934D01*
X4978Y5621D02*
Y5702D01*
X5626Y4851D02*
X5735D01*
X5815Y4932D01*
Y5127D02*
Y5193D01*
Y5062D02*
Y5127D01*
X4208Y4851D02*
X4978Y5621D01*
X4208Y4623D02*
Y4851D01*
X5677Y4115D02*
X5677Y4115D01*
X5887D01*
X4750Y4864D02*
Y4996D01*
Y4648D02*
Y4864D01*
Y4996D02*
X4885Y5131D01*
X4750Y4648D02*
X4801Y4597D01*
X5283Y10084D02*
X6160Y9207D01*
X5131Y10008D02*
X5194Y9944D01*
Y9423D02*
Y9944D01*
X5169Y9398D02*
X5194Y9423D01*
X4983Y10008D02*
X5131D01*
X4610Y9635D02*
X4983Y10008D01*
X5169Y8966D02*
Y9398D01*
X4318Y9004D02*
X4407D01*
X4381Y8776D02*
X4407D01*
X4369Y8763D02*
X4381Y8776D01*
X4254Y8014D02*
X4369D01*
Y8318D02*
Y8763D01*
X5613Y3327D02*
Y3361D01*
X6111Y3384D02*
Y4084D01*
Y3384D02*
X6134Y3361D01*
X6031Y4165D02*
X6111Y4084D01*
X4623Y5969D02*
X5727D01*
X4521Y5867D02*
X4623Y5969D01*
X5727D02*
X5727Y5969D01*
X5029Y9652D02*
X5118Y9741D01*
X5029Y9379D02*
Y9652D01*
X4532Y8881D02*
X5029Y9379D01*
X4532Y8354D02*
Y8881D01*
X4496Y8318D02*
X4532Y8354D01*
X5118Y9741D02*
Y9906D01*
X4572Y8255D02*
Y8865D01*
X5105Y9398D02*
Y9627D01*
X4572Y8865D02*
X5105Y9398D01*
X5169Y8966D02*
X5182Y8954D01*
X6083D01*
X6045Y8560D02*
X6071D01*
X6083Y8547D01*
X5563Y8166D02*
Y8509D01*
X6083Y8437D02*
Y8547D01*
Y8437D02*
X6088Y8433D01*
X5613Y8560D02*
X5664D01*
X5563Y8509D02*
X5613Y8560D01*
X6308Y8433D02*
Y8628D01*
X6223Y8712D02*
X6308Y8628D01*
X5550Y8712D02*
X6223D01*
X4915Y8208D02*
X5021Y8103D01*
X4915Y8429D02*
Y8484D01*
X4775Y8623D02*
X4915Y8484D01*
X6308Y8433D02*
X6456D01*
X5385Y8103D02*
X5486Y8204D01*
X4910Y8214D02*
X4915Y8208D01*
X4712Y8214D02*
X4910D01*
X4915Y8429D02*
X5118D01*
X5173Y7798D02*
X5283D01*
X5677Y8153D02*
Y8344D01*
X4433Y8292D02*
Y8293D01*
X4420Y8306D02*
X4433Y8293D01*
X4445Y8014D02*
X4496Y7963D01*
X4369Y8014D02*
X4445D01*
X4381Y8306D02*
X4420D01*
X4369Y8318D02*
X4381Y8306D01*
X4597Y7455D02*
Y7671D01*
X4369Y7709D02*
X4559D01*
X4597Y7671D01*
X6185Y8128D02*
Y8238D01*
X5804Y7595D02*
X5880Y7671D01*
X5791Y6820D02*
X5944D01*
X6020Y6896D01*
X6477D01*
X6282Y6604D02*
X6456D01*
X5766Y6794D02*
X5791Y6820D01*
X6477Y6896D02*
X6528Y6845D01*
X6236Y6833D02*
X6261D01*
X5766Y6739D02*
Y6794D01*
X5918Y6350D02*
X5969D01*
X5855Y6287D02*
X5918Y6350D01*
X6375Y7531D02*
Y7683D01*
X5855Y6045D02*
Y6287D01*
X5778Y6185D02*
Y6375D01*
X5753Y6160D02*
X5778Y6185D01*
X4763Y5842D02*
X5830D01*
X4483Y5563D02*
X4763Y5842D01*
X4369Y5563D02*
X4483D01*
X4699Y5918D02*
X5702D01*
X4496Y5715D02*
X4699Y5918D01*
X4369Y5715D02*
X4496D01*
X4369Y5867D02*
X4521D01*
X4806Y5283D02*
X5144Y5621D01*
X4788Y5283D02*
X4806D01*
X4508Y6121D02*
X5537D01*
X4407Y6020D02*
X4508Y6121D01*
X4369Y6020D02*
X4407D01*
X5144Y5621D02*
X5583D01*
X5626Y5664D01*
X5334Y4788D02*
X5360Y4762D01*
X5791D01*
X5804Y4775D01*
X5347Y4699D02*
X5715D01*
X5258Y4788D02*
X5347Y4699D01*
X5258Y5030D02*
X5259D01*
X5356Y5127D01*
X5258Y4788D02*
Y5030D01*
X5356Y5127D02*
X5437D01*
X5334Y5029D02*
X5367Y5062D01*
X5334Y4788D02*
Y5029D01*
X5367Y5062D02*
X5437D01*
X5931Y5855D02*
X6058D01*
X5868Y5918D02*
X5931Y5855D01*
X5792Y5918D02*
X5868D01*
X5741Y5969D02*
X5792Y5918D01*
X5727Y5969D02*
X5741D01*
X5702Y5918D02*
X5715Y5906D01*
X5830Y5842D02*
X5842Y5855D01*
X5158Y4112D02*
X5467D01*
X5131Y4140D02*
X5158Y4112D01*
X5131Y4140D02*
Y4254D01*
X5134Y6664D02*
X5299D01*
X5131Y6668D02*
X5134Y6664D01*
X5750Y7112D02*
X5766Y7128D01*
X5397Y7112D02*
X5750D01*
X5290Y7219D02*
X5397Y7112D01*
X5169Y4293D02*
X5308D01*
X5537Y4522D01*
Y4534D01*
X5131Y4254D02*
X5169Y4293D01*
X5467Y4112D02*
Y4115D01*
X5308Y4063D02*
X5465D01*
X5271Y4026D02*
X5308Y4063D01*
X5245Y4204D02*
X5284Y4165D01*
X5467D01*
X5385Y4115D02*
X5467D01*
X5334Y3416D02*
X5397Y3480D01*
X5334Y3361D02*
Y3416D01*
X5512Y3721D02*
X5537D01*
X5055Y3264D02*
X5512Y3721D01*
X5055Y3133D02*
Y3264D01*
X5887Y4165D02*
X6031D01*
X6019Y4065D02*
X6071Y4013D01*
X5887Y4065D02*
X6019D01*
X5980Y4015D02*
X6007Y3988D01*
X5887Y4015D02*
X5980D01*
X5874Y3361D02*
X6071Y3558D01*
Y4013D01*
X5893Y3899D02*
X5969D01*
X6007Y3937D01*
Y3988D01*
X5309Y3937D02*
X5563D01*
X5271Y3975D02*
X5309Y3937D01*
X5271Y3975D02*
Y4026D01*
X5563Y3937D02*
X5613Y3886D01*
Y2997D02*
Y3141D01*
X5690Y3251D02*
X6083D01*
X5613Y3327D02*
X5690Y3251D01*
X6083D02*
X6134Y3302D01*
Y3361D01*
X4805Y3967D02*
Y4051D01*
X4902Y3742D02*
Y3848D01*
X4792Y3632D02*
X4902Y3742D01*
X4051Y4623D02*
X4208D01*
X3924Y4496D02*
X4051Y4623D01*
X3924Y4381D02*
Y4496D01*
X4015Y4163D02*
X4208Y4356D01*
X3927Y4163D02*
X4015D01*
X4534Y3696D02*
X4805Y3967D01*
X4077Y3696D02*
X4534D01*
X4026Y3632D02*
X4792D01*
X3874Y3886D02*
X3931Y3943D01*
X3874Y3785D02*
Y3886D01*
X3939Y3833D02*
X4077Y3696D01*
X3874Y3785D02*
X4026Y3632D01*
X7645Y6960D02*
X7696Y7010D01*
X7645Y5228D02*
Y6960D01*
X7683Y8865D02*
X7836D01*
X7861Y8839D01*
Y8547D02*
Y8839D01*
X7540Y7248D02*
Y7354D01*
X7519Y7227D02*
X7540Y7248D01*
X7473Y7227D02*
X7519D01*
X7571Y8143D02*
X7683Y8255D01*
X7571Y7872D02*
Y8143D01*
Y7872D02*
X7793Y7650D01*
Y7327D02*
Y7650D01*
X7683Y7950D02*
X7874D01*
X7950Y7874D01*
Y7290D02*
Y7874D01*
X7887Y7227D02*
X7950Y7290D01*
X7793Y7227D02*
X7887D01*
X7557Y8865D02*
X7683D01*
X7378Y7277D02*
X7473D01*
X7303Y7201D02*
X7378Y7277D01*
X7506Y6921D02*
X7510D01*
X7730Y6354D02*
X7747Y6337D01*
X7730Y6354D02*
Y6477D01*
X7793Y7177D02*
X7823Y7147D01*
Y5380D02*
Y7147D01*
X7815Y5372D02*
X7823Y5380D01*
X7645Y5228D02*
X7747Y5126D01*
X7595Y5309D02*
Y7143D01*
X7250Y7327D02*
X7473D01*
X7210Y7286D02*
X7250Y7327D01*
X7210Y6194D02*
Y7286D01*
X7303Y7007D02*
X7473Y7177D01*
X7303Y4360D02*
Y7007D01*
X7420Y6387D02*
X7510Y6477D01*
X7420Y5372D02*
Y6387D01*
X7683Y9017D02*
X7963D01*
X8014Y8966D01*
Y7252D02*
Y8966D01*
X7939Y7177D02*
X8014Y7252D01*
X7793Y7177D02*
X7939D01*
X7210Y5372D02*
Y6194D01*
X8035Y5372D02*
Y5914D01*
X7531Y5245D02*
X7595Y5309D01*
X7785Y4678D02*
Y4906D01*
X7878D01*
X7747D02*
X7785D01*
X7815Y5292D02*
Y5372D01*
Y5292D02*
X7925Y5182D01*
Y4953D02*
Y5182D01*
X7878Y4906D02*
X7925Y4953D01*
X7480Y5126D02*
X7747D01*
X7404Y5245D02*
X7531D01*
X7366Y5207D02*
X7404Y5245D01*
X7366Y5021D02*
Y5207D01*
Y5021D02*
X7480Y4906D01*
X7420Y4661D02*
X7429Y4670D01*
X7785Y4678D02*
X7802Y4661D01*
X7420Y4242D02*
X7802D01*
X8026Y3696D02*
Y4661D01*
X7210D02*
Y5372D01*
Y4242D02*
Y4661D01*
Y4169D02*
Y4242D01*
Y4169D02*
X7353Y4026D01*
X7303Y4360D02*
X7420Y4242D01*
X7961Y3630D02*
X8026Y3696D01*
X9081Y3442D02*
X9169Y3530D01*
X9081Y4401D02*
X9106Y4376D01*
X8992Y3442D02*
X9081D01*
X9081Y4401D02*
Y4582D01*
X9097Y4597D01*
X8995Y4699D02*
X9097Y4597D01*
X8594Y4699D02*
X8995D01*
X8493Y4597D02*
X8594Y4699D01*
X8750Y4191D02*
Y4470D01*
X8887Y4607D01*
Y4610D01*
X8703D02*
X8887D01*
X9131Y3340D02*
X9144D01*
X9081Y3289D02*
X9131Y3340D01*
X8992Y3289D02*
X9081D01*
X8992Y3137D02*
X9119D01*
X9157Y6274D02*
Y7620D01*
X9042Y7734D02*
X9157Y7620D01*
X8661Y7420D02*
X8716Y7366D01*
X8661Y7420D02*
Y7607D01*
X8534D02*
Y7734D01*
X8506Y7579D02*
X8534Y7607D01*
X8506Y7366D02*
Y7579D01*
X8716Y7366D02*
X8874D01*
D50*
X5118Y8208D02*
D03*
Y8429D02*
D03*
X4915Y8208D02*
D03*
Y8429D02*
D03*
X6185Y8238D02*
D03*
Y8018D02*
D03*
X6642D02*
D03*
Y8238D02*
D03*
X5245Y4195D02*
D03*
Y4415D02*
D03*
X5055Y3133D02*
D03*
Y2913D02*
D03*
X5334Y3141D02*
D03*
Y3361D02*
D03*
X5601Y3141D02*
D03*
Y3361D02*
D03*
X6134D02*
D03*
Y3141D02*
D03*
X5867Y3361D02*
D03*
Y3141D02*
D03*
X7747Y5126D02*
D03*
Y4906D02*
D03*
X7480Y5126D02*
D03*
Y4906D02*
D03*
D51*
X5572Y8433D02*
D03*
X5782D02*
D03*
X5769Y7798D02*
D03*
X5559D02*
D03*
X4797Y6591D02*
D03*
X5007D02*
D03*
X4797Y6845D02*
D03*
X5007D02*
D03*
X6671Y6045D02*
D03*
X6461D02*
D03*
X6290Y5651D02*
D03*
X6080D02*
D03*
X6290Y5410D02*
D03*
X6080D02*
D03*
X5699Y4483D02*
D03*
X5909D02*
D03*
X6303Y4953D02*
D03*
X6093D02*
D03*
X6303Y4712D02*
D03*
X6093D02*
D03*
X6303Y4483D02*
D03*
X6093D02*
D03*
X6303Y4267D02*
D03*
X6093D02*
D03*
X4213Y4097D02*
D03*
X4423D02*
D03*
X4213Y3835D02*
D03*
X4423D02*
D03*
X7420Y5372D02*
D03*
X7210D02*
D03*
X7420Y4661D02*
D03*
X7210D02*
D03*
X7420Y4242D02*
D03*
X7210D02*
D03*
X8874Y7366D02*
D03*
X9084D02*
D03*
X8716D02*
D03*
X8506D02*
D03*
X8887Y4597D02*
D03*
X9097D02*
D03*
X8703D02*
D03*
X8493D02*
D03*
D53*
X6088Y8433D02*
D03*
X6308D02*
D03*
X6676D02*
D03*
X6456D02*
D03*
X5173Y7798D02*
D03*
X5393D02*
D03*
X5677Y8153D02*
D03*
X5897D02*
D03*
X6062Y6604D02*
D03*
X6282D02*
D03*
X6456D02*
D03*
X6676D02*
D03*
X4208Y4623D02*
D03*
X4428D02*
D03*
X4208Y4361D02*
D03*
X4428D02*
D03*
X4792Y3632D02*
D03*
X5012D02*
D03*
X4792Y4100D02*
D03*
X5012D02*
D03*
X7730Y6477D02*
D03*
X7510D02*
D03*
X8035Y5372D02*
D03*
X7815D02*
D03*
X8022Y4661D02*
D03*
X7802D02*
D03*
X8022Y4242D02*
D03*
X7802D02*
D03*
D54*
X6198Y9509D02*
D03*
Y9719D02*
D03*
X6414Y9509D02*
D03*
Y9719D02*
D03*
X5359Y7388D02*
D03*
Y7598D02*
D03*
X4712Y8214D02*
D03*
Y8424D02*
D03*
X6401Y8023D02*
D03*
Y8233D02*
D03*
X5144Y7509D02*
D03*
Y7299D02*
D03*
X5817Y7286D02*
D03*
Y7496D02*
D03*
Y7128D02*
D03*
Y6918D02*
D03*
D64*
X4369Y8318D02*
D03*
Y8166D02*
D03*
Y7861D02*
D03*
Y8014D02*
D03*
Y7557D02*
D03*
Y7709D02*
D03*
Y7252D02*
D03*
Y7404D02*
D03*
Y6325D02*
D03*
Y6172D02*
D03*
Y5867D02*
D03*
Y6020D02*
D03*
Y5563D02*
D03*
Y5715D02*
D03*
Y5258D02*
D03*
Y5410D02*
D03*
X8585Y6820D02*
D03*
Y6972D02*
D03*
Y6515D02*
D03*
Y6668D02*
D03*
Y6210D02*
D03*
Y6363D02*
D03*
Y6058D02*
D03*
Y5906D02*
D03*
X7683Y9017D02*
D03*
Y8865D02*
D03*
Y8560D02*
D03*
Y8712D02*
D03*
Y8255D02*
D03*
Y8407D02*
D03*
Y7950D02*
D03*
Y8103D02*
D03*
X8992Y4204D02*
D03*
Y4051D02*
D03*
Y3747D02*
D03*
Y3899D02*
D03*
Y3442D02*
D03*
Y3594D02*
D03*
Y3137D02*
D03*
Y3289D02*
D03*
D65*
X3950Y8534D02*
D03*
Y7036D02*
D03*
Y6540D02*
D03*
Y5042D02*
D03*
X9004Y7188D02*
D03*
Y5690D02*
D03*
X7264Y9233D02*
D03*
Y7734D02*
D03*
X8572Y4420D02*
D03*
Y2921D02*
D03*
D71*
X5817Y7496D02*
X5858D01*
X5931Y7569D01*
X5776Y7791D02*
X6298D01*
X3848Y9335D02*
X3899D01*
X5893Y7798D02*
Y8280D01*
X6646Y7328D02*
Y8022D01*
X5931Y7005D02*
Y7104D01*
X5701Y6818D02*
X5887Y7005D01*
X4213Y4089D02*
X4428Y4304D01*
X4099Y8341D02*
Y9135D01*
X3899Y9335D02*
X4099Y9135D01*
X4077Y8318D02*
X4099Y8341D01*
X4864Y7683D02*
X5385D01*
X4712Y7836D02*
X4864Y7683D01*
X4572Y7836D02*
X4712D01*
X4547Y7861D02*
X4572Y7836D01*
X5144Y7299D02*
Y7325D01*
Y7204D02*
Y7299D01*
X4039Y8280D02*
X4077Y8318D01*
X4039Y7861D02*
Y8280D01*
X4369Y7861D02*
X4547D01*
X5309Y7493D02*
X5374Y7558D01*
X5359Y7573D02*
X5374Y7558D01*
X5969Y6934D02*
Y7005D01*
X6185Y8238D02*
X6198Y8251D01*
X5480Y7285D02*
X5587Y7391D01*
X6012D01*
X5537Y4343D02*
X5906Y4712D01*
X4826Y3124D02*
Y3150D01*
Y3099D02*
Y3124D01*
X5680Y6540D02*
X5701Y6519D01*
X5058Y6540D02*
X5680D01*
X5007Y6591D02*
X5058Y6540D01*
X5769Y7798D02*
X5776Y7791D01*
X3797Y6794D02*
Y7620D01*
Y6401D02*
Y6794D01*
X5901Y6519D02*
X6039Y6381D01*
X6004Y6128D02*
X6039Y6163D01*
Y6381D01*
X6289Y6033D02*
X6461D01*
X4496Y5258D02*
X4908Y5670D01*
X6185Y6007D02*
X6210Y6033D01*
X6185Y5906D02*
Y6007D01*
X6064Y5784D02*
X6185Y5906D01*
X5831Y6519D02*
X5901D01*
X4908Y5731D02*
X4961Y5784D01*
X4908Y5670D02*
Y5731D01*
X4801Y4060D02*
Y4305D01*
X6210Y3988D02*
Y4835D01*
X4826Y3099D02*
X5012Y2913D01*
X4826Y3150D02*
X5461Y3785D01*
X4961Y5784D02*
X6064D01*
X4369Y5258D02*
X4496D01*
X6414Y9627D02*
Y9719D01*
X6198D02*
X6414D01*
X6010D02*
X6198D01*
X6007Y9715D02*
X6010Y9719D01*
X6401Y7805D02*
X6415Y7791D01*
X6401Y7805D02*
Y8023D01*
X6298Y7791D02*
X6415D01*
X6642Y8018D01*
Y8031D02*
X6646Y8027D01*
X6298Y7454D02*
Y7791D01*
X6646Y8022D02*
Y8027D01*
Y8022D02*
X6782Y8158D01*
X6642Y8018D02*
X6646Y8022D01*
X6676Y8433D02*
X6782Y8327D01*
Y8158D02*
Y8327D01*
X3797Y6401D02*
X3874Y6325D01*
X3797Y4182D02*
Y6401D01*
X3874Y6325D02*
X4166D01*
X4915Y8318D02*
X5055D01*
X5118Y8255D01*
Y8208D02*
Y8255D01*
X5385Y7683D02*
X5715D01*
X5385Y7789D02*
X5393Y7798D01*
X5385Y7683D02*
Y7789D01*
X5893Y8280D02*
Y8623D01*
X6401Y8023D02*
X6409Y8015D01*
X5480Y7219D02*
Y7285D01*
X5715Y7683D02*
X5769Y7738D01*
X5887Y7005D02*
X5931D01*
X5701Y6739D02*
Y6818D01*
X5769Y7738D02*
Y7798D01*
X6012Y7391D02*
X6076Y7328D01*
X5931Y7104D02*
X5969D01*
X5931Y7109D02*
Y7214D01*
X5858Y7286D02*
X5931Y7214D01*
Y7005D02*
X5969D01*
X6322D01*
X5817Y7286D02*
X5858D01*
X5766D02*
X5817D01*
X5012Y2913D02*
X5055D01*
X6282Y6135D02*
Y6604D01*
X5343Y5410D02*
X6080D01*
X6322Y7005D02*
X6646Y7328D01*
X5474Y6655D02*
X5664D01*
X4039Y7861D02*
X4369D01*
X3797Y7620D02*
X4039Y7861D01*
X5701Y6691D02*
Y6739D01*
X5664Y6655D02*
X5701Y6691D01*
X5702Y6337D02*
Y6518D01*
X5701Y6519D02*
X5702Y6518D01*
X5470Y6329D02*
X5833Y5965D01*
X5321Y6329D02*
X5470D01*
X5833Y5965D02*
X5888D01*
X5916Y5938D02*
X6004D01*
X5888Y5965D02*
X5916Y5938D01*
X6282Y6135D02*
X6289Y6128D01*
X3797Y4182D02*
X3926Y4053D01*
X5480Y6915D02*
Y6954D01*
X5410Y6845D02*
X5480Y6915D01*
X5181Y6845D02*
X5410D01*
X5181D02*
X5290Y6954D01*
X5007Y6845D02*
X5181D01*
X5906Y4712D02*
Y4997D01*
X5467Y4343D02*
X5537D01*
X5007Y6591D02*
Y6845D01*
X6289Y5832D02*
Y5938D01*
X6109Y5651D02*
X6289Y5832D01*
X6080Y5651D02*
X6109D01*
X6676Y6384D02*
Y6604D01*
X6461Y6169D02*
X6676Y6384D01*
X6461Y6045D02*
Y6169D01*
X6210Y6033D02*
X6289D01*
X5321Y5432D02*
X5343Y5410D01*
X6080D02*
Y5651D01*
Y5356D02*
Y5410D01*
X5906Y5182D02*
X6080Y5356D01*
X5906Y4997D02*
Y5182D01*
X5815Y4997D02*
X5906D01*
X5467Y4215D02*
Y4343D01*
X5791Y3505D02*
X5944Y3658D01*
X5550Y3505D02*
X5791D01*
X6045Y4220D02*
X6093Y4267D01*
X5887Y4220D02*
X6045D01*
X6093Y4953D02*
X6210Y4835D01*
X5461Y3785D02*
Y3861D01*
X5055Y2913D02*
X5105D01*
X5334Y3141D01*
X5376D01*
X5474Y3238D01*
Y3429D01*
X5550Y3505D01*
X6093Y4267D02*
Y4483D01*
Y4712D01*
Y4953D01*
X5012Y4100D02*
Y4221D01*
Y4051D02*
Y4100D01*
X4610Y4623D02*
X5012Y4221D01*
X4428Y4623D02*
X4610D01*
X4792Y4051D02*
X4801Y4060D01*
X4208Y4623D02*
Y4623D01*
X5012Y4039D02*
X5025Y4051D01*
X4428Y4361D02*
Y4623D01*
X5012Y3632D02*
Y4039D01*
X4428Y4304D02*
Y4356D01*
X4213Y3835D02*
Y4089D01*
X4144Y3835D02*
X4213D01*
X3926Y4053D02*
X4144Y3835D01*
D72*
X5940Y3658D02*
D03*
X5740D02*
D03*
D73*
X6706Y3404D02*
D03*
D74*
Y3950D02*
D03*
D75*
X6401Y3924D02*
D03*
Y3442D02*
D03*
D76*
X9042Y7607D02*
D03*
X8788D02*
D03*
X8661D02*
D03*
X8534D02*
D03*
X9042Y7734D02*
D03*
X8915D02*
D03*
X8788D02*
D03*
X8661D02*
D03*
X8534D02*
D03*
X8915Y7607D02*
D03*
D77*
X5664Y7772D02*
D03*
X5893Y7671D02*
D03*
X5931Y7569D02*
D03*
X4610Y7963D02*
D03*
X4140Y7785D02*
D03*
X4737Y7557D02*
D03*
X4674Y7620D02*
D03*
X4077Y8318D02*
D03*
X4254Y8623D02*
D03*
X5042Y7887D02*
D03*
X4953Y7988D02*
D03*
X5080Y7976D02*
D03*
X5118Y7607D02*
D03*
X5296Y7811D02*
D03*
X5309Y7493D02*
D03*
X5664Y7303D02*
D03*
X5969Y6934D02*
D03*
X8928Y6972D02*
D03*
X8865Y6515D02*
D03*
X9042Y6210D02*
D03*
X8865D02*
D03*
X8788Y6363D02*
D03*
X8712Y6668D02*
D03*
X8839Y7188D02*
D03*
X9068Y7074D02*
D03*
X8979Y7366D02*
D03*
X8852Y3670D02*
D03*
X8623D02*
D03*
X8750Y4051D02*
D03*
X8572Y3899D02*
D03*
X9117Y3938D02*
D03*
X5512Y6045D02*
D03*
X5588D02*
D03*
X4813Y7239D02*
D03*
X6097Y7861D02*
D03*
X5093Y5131D02*
D03*
X5715Y5232D02*
D03*
X4978Y5702D02*
D03*
X6160Y9207D02*
D03*
X5118Y9906D02*
D03*
X5105Y9627D02*
D03*
X5169Y8966D02*
D03*
X6083Y8954D02*
D03*
X6414Y9627D02*
D03*
X6007Y9715D02*
D03*
X6045Y8560D02*
D03*
X5982Y8623D02*
D03*
X5893D02*
D03*
X5664Y8560D02*
D03*
X5550Y8712D02*
D03*
X4775Y8623D02*
D03*
X4915Y8318D02*
D03*
X5677Y8344D02*
D03*
X5893Y8280D02*
D03*
X5486Y8204D02*
D03*
X5563Y8166D02*
D03*
X4843Y8102D02*
D03*
X4572Y8255D02*
D03*
X4496Y8318D02*
D03*
X4737Y7303D02*
D03*
X4661Y7366D02*
D03*
X4597Y7455D02*
D03*
X6298Y7454D02*
D03*
X5690Y7175D02*
D03*
X5144Y7204D02*
D03*
X6185Y8128D02*
D03*
X5969Y7104D02*
D03*
X6261Y6833D02*
D03*
X6528Y6845D02*
D03*
X5969Y6350D02*
D03*
X6375Y7531D02*
D03*
X5906Y5321D02*
D03*
X5474Y6655D02*
D03*
X5702Y6337D02*
D03*
X5778Y6375D02*
D03*
X4788Y5283D02*
D03*
X4597Y6045D02*
D03*
X5804Y4775D02*
D03*
X5715Y4699D02*
D03*
X5563Y5321D02*
D03*
X5715Y5906D02*
D03*
X5855Y6045D02*
D03*
X5753Y6160D02*
D03*
X6375Y7683D02*
D03*
X5842Y5855D02*
D03*
X4166Y6325D02*
D03*
X5626Y5664D02*
D03*
X5299Y6664D02*
D03*
X4801Y4597D02*
D03*
X5131Y6668D02*
D03*
X6289Y5832D02*
D03*
X5467Y4343D02*
D03*
X5576Y4979D02*
D03*
X5676D02*
D03*
X5576Y5079D02*
D03*
X5676D02*
D03*
X5537Y4534D02*
D03*
X5397Y3480D02*
D03*
X5537Y3721D02*
D03*
X5893Y3899D02*
D03*
X5613Y3886D02*
D03*
Y2997D02*
D03*
X5461Y3861D02*
D03*
X4801Y4305D02*
D03*
X4902Y3848D02*
D03*
X3924Y4381D02*
D03*
X3927Y4163D02*
D03*
X3931Y3943D02*
D03*
X3939Y3833D02*
D03*
X3926Y4053D02*
D03*
X7696Y7010D02*
D03*
X7861Y8547D02*
D03*
X7303Y7201D02*
D03*
X7506Y6921D02*
D03*
X7747Y6337D02*
D03*
X7210Y6194D02*
D03*
X8035Y5914D02*
D03*
X7353Y4026D02*
D03*
X7961Y3630D02*
D03*
X9106Y4280D02*
D03*
X9144Y3340D02*
D03*
X9119Y3137D02*
D03*
D78*
X6644Y8758D02*
D03*
X6719Y8607D02*
D03*
Y5285D02*
D03*
X6644Y5134D02*
D03*
X6719Y4983D02*
D03*
X6644Y4832D02*
D03*
X6719Y4681D02*
D03*
X6644Y4530D02*
D03*
X6719Y4379D02*
D03*
X6644Y4228D02*
D03*
X6719Y3775D02*
D03*
X6644Y3624D02*
D03*
X6719Y3171D02*
D03*
X6493Y9966D02*
D03*
Y9362D02*
D03*
Y8758D02*
D03*
X6568Y8607D02*
D03*
X6493Y5134D02*
D03*
X6568Y4983D02*
D03*
X6493Y4832D02*
D03*
X6568Y4681D02*
D03*
X6493Y4530D02*
D03*
X6568Y4379D02*
D03*
X6493Y4228D02*
D03*
X6568Y3775D02*
D03*
Y3171D02*
D03*
X6417Y10117D02*
D03*
X6342Y9966D02*
D03*
Y9362D02*
D03*
Y8758D02*
D03*
X6417Y8607D02*
D03*
Y5587D02*
D03*
Y4983D02*
D03*
Y4681D02*
D03*
Y4379D02*
D03*
Y4077D02*
D03*
X6342Y3322D02*
D03*
X6417Y3171D02*
D03*
X6342Y3020D02*
D03*
Y2718D02*
D03*
X6266Y10117D02*
D03*
X6191Y9966D02*
D03*
Y9362D02*
D03*
Y3020D02*
D03*
X6266Y2869D02*
D03*
X6191Y2718D02*
D03*
X6115Y10117D02*
D03*
X6040Y9966D02*
D03*
Y5134D02*
D03*
Y3020D02*
D03*
X6115Y2869D02*
D03*
X6040Y2718D02*
D03*
X5889Y9966D02*
D03*
X5964Y9815D02*
D03*
X5889Y3020D02*
D03*
X5964Y2869D02*
D03*
X5889Y2718D02*
D03*
X5738Y9966D02*
D03*
X5813Y9815D02*
D03*
X5738Y9362D02*
D03*
Y9060D02*
D03*
Y3926D02*
D03*
X5813Y3775D02*
D03*
X5738Y3020D02*
D03*
X5813Y2869D02*
D03*
X5738Y2718D02*
D03*
X5587Y9966D02*
D03*
Y9664D02*
D03*
X5662Y9513D02*
D03*
X5587Y9362D02*
D03*
X5662Y9211D02*
D03*
X5587Y9060D02*
D03*
X5662Y2869D02*
D03*
X5587Y2718D02*
D03*
X5436Y9664D02*
D03*
X5511Y9513D02*
D03*
X5436Y9362D02*
D03*
X5511Y9211D02*
D03*
X5436Y9060D02*
D03*
Y3020D02*
D03*
X5511Y2869D02*
D03*
X5436Y2718D02*
D03*
X5285Y9966D02*
D03*
X5360Y9815D02*
D03*
X5285Y9664D02*
D03*
X5360Y9513D02*
D03*
Y2869D02*
D03*
X5285Y2718D02*
D03*
X5209Y7097D02*
D03*
X5134Y4832D02*
D03*
Y4530D02*
D03*
Y3624D02*
D03*
X5209Y2869D02*
D03*
X5134Y2718D02*
D03*
X5058Y5285D02*
D03*
Y4983D02*
D03*
X4983Y4832D02*
D03*
X5058Y4681D02*
D03*
X4983Y4530D02*
D03*
X5058Y4379D02*
D03*
X4983Y2718D02*
D03*
X4907Y3473D02*
D03*
X4832Y3322D02*
D03*
X4907Y2869D02*
D03*
X4832Y2718D02*
D03*
X4681Y6644D02*
D03*
Y4228D02*
D03*
X4756Y3473D02*
D03*
X4681Y3322D02*
D03*
Y3020D02*
D03*
X4756Y2869D02*
D03*
X4681Y2718D02*
D03*
X4605Y10117D02*
D03*
X4530Y9966D02*
D03*
Y9060D02*
D03*
X4605Y6795D02*
D03*
X4530Y6644D02*
D03*
X4605Y6493D02*
D03*
X4530Y6342D02*
D03*
X4605Y4379D02*
D03*
X4530Y4228D02*
D03*
X4605Y4077D02*
D03*
Y3473D02*
D03*
X4530Y3322D02*
D03*
X4605Y3171D02*
D03*
X4530Y3020D02*
D03*
X4605Y2869D02*
D03*
X4530Y2718D02*
D03*
X4454Y10117D02*
D03*
X4379Y9966D02*
D03*
X4454Y9815D02*
D03*
X4379Y9664D02*
D03*
X4454Y9513D02*
D03*
X4379Y9362D02*
D03*
X4454Y9211D02*
D03*
Y7097D02*
D03*
X4379Y6946D02*
D03*
X4454Y6493D02*
D03*
Y3473D02*
D03*
X4379Y3322D02*
D03*
Y3020D02*
D03*
X4454Y2869D02*
D03*
X4379Y2718D02*
D03*
X4303Y10117D02*
D03*
Y9815D02*
D03*
X4228Y9664D02*
D03*
X4303Y9513D02*
D03*
X4228Y7550D02*
D03*
Y7248D02*
D03*
X4303Y7097D02*
D03*
X4228Y6946D02*
D03*
X4303Y6795D02*
D03*
Y6493D02*
D03*
X4228Y6040D02*
D03*
Y5738D02*
D03*
Y5436D02*
D03*
Y5134D02*
D03*
X4303Y3473D02*
D03*
Y2869D02*
D03*
X4152Y9815D02*
D03*
X4077Y7550D02*
D03*
X4152Y7399D02*
D03*
X4077Y7248D02*
D03*
X4152Y7097D02*
D03*
Y6795D02*
D03*
Y4983D02*
D03*
Y3473D02*
D03*
Y3171D02*
D03*
X4001Y9815D02*
D03*
X3926Y9060D02*
D03*
X4001Y8909D02*
D03*
X3926Y8758D02*
D03*
X4001Y7701D02*
D03*
X3926Y7550D02*
D03*
X4001Y7399D02*
D03*
X3926Y7248D02*
D03*
X4001Y6795D02*
D03*
Y6191D02*
D03*
X3926Y6040D02*
D03*
X4001Y5889D02*
D03*
X3926Y5738D02*
D03*
X4001Y5587D02*
D03*
X3926Y5436D02*
D03*
X4001Y5285D02*
D03*
X3926Y4832D02*
D03*
X4001Y3473D02*
D03*
X3926Y3322D02*
D03*
X4001Y3171D02*
D03*
X5842Y5245D02*
D03*
X5664Y7023D02*
D03*
X5169Y8814D02*
D03*
X5626Y4851D02*
D03*
D79*
X3848Y9500D02*
D03*
Y9195D02*
D03*
Y9347D02*
D03*
Y9652D02*
D03*
Y9804D02*
D03*
X8509Y5550D02*
D03*
Y5702D02*
D03*
X4902Y5017D02*
D03*
X4280Y4928D02*
D03*
X7518Y7544D02*
D03*
X7620Y4661D02*
D03*
X7899Y7925D02*
D03*
X7620Y4242D02*
D03*
X7793Y7650D02*
D03*
X7429Y6744D02*
D03*
X4407Y9004D02*
D03*
Y8776D02*
D03*
X6642Y5575D02*
D03*
Y5397D02*
D03*
X6210Y3988D02*
D03*
X4826Y3124D02*
D03*
X3797Y6794D02*
D03*
X4381Y3150D02*
D03*
X4724Y5499D02*
D03*
X4559Y4902D02*
D03*
X4750Y4864D02*
D03*
X4610Y9779D02*
D03*
Y9635D02*
D03*
Y9491D02*
D03*
Y9347D02*
D03*
D80*
X7912Y9271D02*
D03*
X7620Y2959D02*
D03*
X6604Y2819D02*
D03*
X4001Y2832D02*
D03*
X3988Y10160D02*
D03*
D81*
X8788Y5486D02*
D03*
Y4864D02*
D03*
X8776Y2731D02*
D03*
D82*
X5480Y6954D02*
D03*
X5385D02*
D03*
X5290D02*
D03*
Y7219D02*
D03*
X5480D02*
D03*
D83*
X6646Y7328D02*
D03*
X6076D02*
D03*
D84*
X5701Y6519D02*
D03*
X5831D02*
D03*
Y6739D02*
D03*
X5766D02*
D03*
X5701D02*
D03*
D85*
X6004Y5938D02*
D03*
Y6033D02*
D03*
Y6128D02*
D03*
X6289D02*
D03*
Y6033D02*
D03*
Y5938D02*
D03*
D86*
X5321Y6329D02*
D03*
Y5432D02*
D03*
D87*
X5626Y5029D02*
D03*
D88*
X5437Y4932D02*
D03*
Y4997D02*
D03*
Y5062D02*
D03*
Y5127D02*
D03*
X5815Y4932D02*
D03*
Y4997D02*
D03*
Y5062D02*
D03*
Y5127D02*
D03*
D89*
X5677Y4115D02*
D03*
D90*
X5887Y4215D02*
D03*
D91*
Y4165D02*
D03*
Y4115D02*
D03*
Y4065D02*
D03*
Y4015D02*
D03*
X5467Y4215D02*
D03*
Y4165D02*
D03*
Y4115D02*
D03*
Y4065D02*
D03*
Y4015D02*
D03*
D92*
X7473Y7177D02*
D03*
Y7227D02*
D03*
Y7277D02*
D03*
Y7327D02*
D03*
X7793Y7177D02*
D03*
Y7227D02*
D03*
Y7277D02*
D03*
Y7327D02*
D03*
D93*
X8836Y3594D02*
X8992D01*
X8703Y3727D02*
Y4597D01*
Y3727D02*
X8836Y3594D01*
X8703Y4597D02*
Y4610D01*
M02*
