G04*
G04 #@! TF.GenerationSoftware,Altium Limited,Altium Designer,18.0.7 (293)*
G04*
G04 Layer_Color=16711935*
%FSLAX42Y42*%
%MOMM*%
G71*
G01*
G75*
%ADD15C,0.25*%
D15*
X6871Y10185D02*
G03*
X6604Y10452I-267J-0D01*
G01*
X3950Y10452D02*
G03*
X3683Y10185I0J-267D01*
G01*
X3683Y2807D02*
G03*
X3950Y2540I267J0D01*
G01*
X8166Y7277D02*
G03*
X8369Y7277I102J0D01*
G01*
X8166Y9271D02*
G03*
X7899Y9538I-267J-0D01*
G01*
X7341Y9538D02*
G03*
X7074Y9271I0J-267D01*
G01*
X8636Y8001D02*
G03*
X8369Y7734I0J-267D01*
G01*
X7074Y5283D02*
G03*
X6871Y5283I-102J0D01*
G01*
Y6312D02*
G03*
X7074Y6312I102J0D01*
G01*
X9207Y7734D02*
G03*
X8940Y8001I-267J-0D01*
G01*
X8940Y5283D02*
G03*
X9207Y5550I-0J267D01*
G01*
X8369Y5550D02*
G03*
X8636Y5283I267J0D01*
G01*
X8369Y6248D02*
G03*
X8166Y6248I-102J0D01*
G01*
Y4534D02*
G03*
X8369Y4534I102J0D01*
G01*
X8636Y5030D02*
G03*
X8369Y4762I0J-267D01*
G01*
X9208Y4762D02*
G03*
X8941Y5030I-267J-0D01*
G01*
X8940Y2540D02*
G03*
X9207Y2807I-0J267D01*
G01*
X8369Y2807D02*
G03*
X8636Y2540I267J0D01*
G01*
X8369Y3505D02*
G03*
X8166Y3505I-102J0D01*
G01*
X7899Y2540D02*
G03*
X8166Y2807I-0J267D01*
G01*
X7074Y2807D02*
G03*
X7341Y2540I267J0D01*
G01*
X6604Y2540D02*
G03*
X6871Y2807I-0J267D01*
G01*
X6871Y10185D02*
X6871Y6312D01*
X7341Y9538D02*
X7899D01*
X8166Y7277D02*
Y9271D01*
X8369Y7277D02*
Y7734D01*
X7074Y9271D02*
X7074Y6312D01*
X8636Y8001D02*
X8940D01*
X9207Y7734D02*
X9207Y5550D01*
X8636Y5283D02*
X8940D01*
X8369Y6248D02*
X8369Y5550D01*
X8166Y4534D02*
Y6248D01*
X8369Y4534D02*
Y4762D01*
X8636Y5029D02*
X8941D01*
X9207Y4762D02*
X9207Y2807D01*
X8636Y2540D02*
X8940D01*
X8369Y3505D02*
X8369Y2807D01*
X8166D02*
Y3505D01*
X7341Y2540D02*
X7899D01*
X7074Y5283D02*
X7074Y2807D01*
X6871D02*
Y5283D01*
X3950Y2540D02*
X6604Y2540D01*
X3683Y10185D02*
X3683Y2807D01*
X3950Y10452D02*
X6604Y10452D01*
M02*
