G04*
G04 #@! TF.GenerationSoftware,Altium Limited,Altium Designer,18.0.7 (293)*
G04*
G04 Layer_Color=16711935*
%FSLAX42Y42*%
%MOMM*%
G71*
G01*
G75*
%ADD13C,0.10*%
%ADD104R,16.50X4.00*%
%ADD105R,2.00X7.00*%
%ADD106R,2.50X7.00*%
D13*
X5786Y5089D02*
G03*
X5786Y5089I-50J0D01*
G01*
X8904Y3833D02*
G03*
X8904Y3833I-50J0D01*
G01*
X7633Y7227D02*
G03*
X7633Y7227I-40J0D01*
G01*
X4890Y11595D02*
X6668D01*
X4890Y8801D02*
Y11595D01*
X6668Y8801D02*
Y11595D01*
X4890Y8801D02*
X6668D01*
X6135Y9514D02*
X6260D01*
X6135Y9714D02*
X6260D01*
Y9514D02*
Y9714D01*
X6135Y9514D02*
Y9714D01*
X6351Y9514D02*
X6476D01*
X6351Y9714D02*
X6476D01*
Y9514D02*
Y9714D01*
X6351Y9514D02*
Y9714D01*
X6098Y8370D02*
X6298D01*
X6098Y8495D02*
X6298D01*
X6098Y8370D02*
Y8495D01*
X6298Y8370D02*
Y8495D01*
X6466D02*
X6666D01*
X6466Y8370D02*
X6666D01*
Y8495D01*
X6466Y8370D02*
Y8495D01*
X5577Y8370D02*
Y8495D01*
X5777Y8370D02*
Y8495D01*
X5577Y8370D02*
X5777D01*
X5577Y8495D02*
X5777D01*
X5297Y7393D02*
X5422D01*
X5297Y7593D02*
X5422D01*
Y7393D02*
Y7593D01*
X5297Y7393D02*
Y7593D01*
X5564Y7860D02*
X5764D01*
X5564Y7735D02*
X5764D01*
Y7860D01*
X5564Y7735D02*
Y7860D01*
X5181Y8218D02*
Y8418D01*
X5056Y8218D02*
Y8418D01*
Y8218D02*
X5181D01*
X5056Y8418D02*
X5181D01*
X5156Y8698D02*
X5448D01*
X5156Y8548D02*
X5448D01*
X5156D02*
Y8698D01*
X5448Y8548D02*
Y8698D01*
X4977Y8218D02*
Y8418D01*
X4852Y8218D02*
Y8418D01*
Y8218D02*
X4977D01*
X4852Y8418D02*
X4977D01*
X4649Y8218D02*
X4774D01*
X4649Y8418D02*
X4774D01*
Y8218D02*
Y8418D01*
X4649Y8218D02*
Y8418D01*
X5183Y7735D02*
X5383D01*
X5183Y7860D02*
X5383D01*
X5183Y7735D02*
Y7860D01*
X5383Y7735D02*
Y7860D01*
X5687Y8091D02*
X5887D01*
X5687Y8216D02*
X5887D01*
X5687Y8091D02*
Y8216D01*
X5887Y8091D02*
Y8216D01*
X4927Y8548D02*
Y8698D01*
X4635Y8548D02*
Y8698D01*
Y8548D02*
X4927D01*
X4635Y8698D02*
X4927D01*
X4852Y8218D02*
Y8418D01*
X4977Y8218D02*
Y8418D01*
X4852Y8218D02*
X4977D01*
X4852Y8418D02*
X4977D01*
X4649Y8218D02*
Y8418D01*
X4774Y8218D02*
Y8418D01*
X4649Y8218D02*
X4774D01*
X4649Y8418D02*
X4774D01*
X6338Y8028D02*
X6463D01*
X6338Y8228D02*
X6463D01*
Y8028D02*
Y8228D01*
X6338Y8028D02*
Y8228D01*
X5081Y7504D02*
X5206D01*
X5081Y7304D02*
X5206D01*
X5081D02*
Y7504D01*
X5206Y7304D02*
Y7504D01*
X5980Y8091D02*
Y8216D01*
X5780Y8091D02*
Y8216D01*
Y8091D02*
X5980D01*
X5780Y8216D02*
X5980D01*
X5754Y7291D02*
X5879D01*
X5754Y7491D02*
X5879D01*
Y7291D02*
Y7491D01*
X5754Y7291D02*
Y7491D01*
X6461Y7065D02*
Y7235D01*
X6366Y7065D02*
Y7235D01*
X6461D01*
X6366Y7065D02*
X6461D01*
X6327D02*
Y7235D01*
X6232Y7065D02*
Y7235D01*
X6327D01*
X6232Y7065D02*
X6327D01*
X5094Y5551D02*
X5294D01*
X5094Y5676D02*
X5294D01*
Y5551D02*
Y5676D01*
X5094Y5551D02*
Y5676D01*
X5373Y6475D02*
X5498D01*
X5373Y6275D02*
X5498D01*
Y6475D01*
X5373Y6275D02*
Y6475D01*
X5155Y5877D02*
Y6077D01*
X5030Y5877D02*
Y6077D01*
X5155D01*
X5030Y5877D02*
X5155D01*
X5233Y5864D02*
X5358D01*
X5233Y6064D02*
X5358D01*
X5233Y5864D02*
Y6064D01*
X5358Y5864D02*
Y6064D01*
X5240Y7007D02*
X5530D01*
X5240Y7167D02*
X5530D01*
Y7007D02*
Y7167D01*
X5240Y7007D02*
Y7167D01*
X6122Y8028D02*
Y8228D01*
X6247Y8028D02*
Y8228D01*
X6122D02*
X6247D01*
X6122Y8028D02*
X6247D01*
X6705D02*
Y8228D01*
X6580Y8028D02*
Y8228D01*
Y8028D02*
X6705D01*
X6580Y8228D02*
X6705D01*
X5754Y7123D02*
X5879D01*
X5754Y6923D02*
X5879D01*
X5754D02*
Y7123D01*
X5879Y6923D02*
Y7123D01*
X5983Y7493D02*
X6743D01*
X5983Y7163D02*
X6743D01*
Y7493D01*
X5983Y7163D02*
Y7493D01*
X4802Y6529D02*
Y6654D01*
X5002Y6529D02*
Y6654D01*
X4802Y6529D02*
X5002D01*
X4802Y6654D02*
X5002D01*
X4802Y6783D02*
Y6908D01*
X5002Y6783D02*
Y6908D01*
X4802Y6783D02*
X5002D01*
X4802Y6908D02*
X5002D01*
X6501Y6483D02*
Y6683D01*
X6376Y6483D02*
Y6683D01*
X6501D01*
X6376Y6483D02*
X6501D01*
X5878Y6562D02*
Y6697D01*
X5653Y6562D02*
Y6697D01*
Y6562D02*
X5878D01*
X5653Y6697D02*
X5878D01*
X6057Y5878D02*
Y6188D01*
X6237Y5878D02*
Y6188D01*
X6057Y5878D02*
X6237D01*
X6057Y6188D02*
X6237D01*
X6666Y5983D02*
Y6108D01*
X6466Y5983D02*
Y6108D01*
X6666D01*
X6466Y5983D02*
X6666D01*
X5156Y6455D02*
X5486D01*
X5156Y5305D02*
X5486D01*
X5156D02*
Y6455D01*
X5486Y5305D02*
Y6455D01*
X6285Y5589D02*
Y5714D01*
X6085Y5589D02*
Y5714D01*
X6285D01*
X6085Y5589D02*
X6285D01*
Y5348D02*
Y5473D01*
X6085Y5348D02*
Y5473D01*
X6285D01*
X6085Y5348D02*
X6285D01*
X6072Y6542D02*
X6272D01*
X6072Y6667D02*
X6272D01*
X6072Y6542D02*
Y6667D01*
X6272Y6542D02*
Y6667D01*
X6466Y6542D02*
X6666D01*
X6466Y6667D02*
X6666D01*
X6466Y6542D02*
Y6667D01*
X6666Y6542D02*
Y6667D01*
X5704Y4421D02*
X5904D01*
X5704Y4546D02*
X5904D01*
X5704Y4421D02*
Y4546D01*
X5904Y4421D02*
Y4546D01*
X5426Y4879D02*
X5826D01*
X5426Y5179D02*
X5826D01*
X5426Y4879D02*
Y5179D01*
X5826Y4879D02*
Y5179D01*
X5308Y4205D02*
Y4405D01*
X5183Y4205D02*
Y4405D01*
Y4205D02*
X5308D01*
X5183Y4405D02*
X5308D01*
X4992Y2923D02*
Y3123D01*
X5117Y2923D02*
Y3123D01*
X4992D02*
X5117D01*
X4992Y2923D02*
X5117D01*
X5397Y3151D02*
Y3351D01*
X5272Y3151D02*
Y3351D01*
Y3151D02*
X5397D01*
X5272Y3351D02*
X5397D01*
X5663Y3151D02*
Y3351D01*
X5538Y3151D02*
Y3351D01*
Y3151D02*
X5663D01*
X5538Y3351D02*
X5663D01*
X5465Y4588D02*
X5635D01*
X5465Y4683D02*
X5635D01*
Y4588D02*
Y4683D01*
X5465Y4588D02*
Y4683D01*
Y4169D02*
X5635D01*
X5465Y4264D02*
X5635D01*
Y4169D02*
Y4264D01*
X5465Y4169D02*
Y4264D01*
X6072Y3151D02*
Y3351D01*
X6197Y3151D02*
Y3351D01*
X6072D02*
X6197D01*
X6072Y3151D02*
X6197D01*
X5805D02*
Y3351D01*
X5930Y3151D02*
Y3351D01*
X5805D02*
X5930D01*
X5805Y3151D02*
X5930D01*
X6298Y4890D02*
Y5015D01*
X6098Y4890D02*
Y5015D01*
X6298D01*
X6098Y4890D02*
X6298D01*
Y4649D02*
Y4774D01*
X6098Y4649D02*
Y4774D01*
X6298D01*
X6098Y4649D02*
X6298D01*
Y4421D02*
Y4546D01*
X6098Y4421D02*
Y4546D01*
X6298D01*
X6098Y4421D02*
X6298D01*
Y4205D02*
Y4330D01*
X6098Y4205D02*
Y4330D01*
X6298D01*
X6098Y4205D02*
X6298D01*
X4218Y4560D02*
X4418D01*
X4218Y4685D02*
X4418D01*
X4218Y4560D02*
Y4685D01*
X4418Y4560D02*
Y4685D01*
X4218Y4299D02*
X4418D01*
X4218Y4424D02*
X4418D01*
X4218Y4299D02*
Y4424D01*
X4418Y4299D02*
Y4424D01*
X4218Y4035D02*
Y4160D01*
X4418Y4035D02*
Y4160D01*
X4218Y4035D02*
X4418D01*
X4218Y4160D02*
X4418D01*
X4802Y3570D02*
X5002D01*
X4802Y3695D02*
X5002D01*
X4802Y3570D02*
Y3695D01*
X5002Y3570D02*
Y3695D01*
X4802Y4037D02*
X5002D01*
X4802Y4162D02*
X5002D01*
X4802Y4037D02*
Y4162D01*
X5002Y4037D02*
Y4162D01*
X4218Y3773D02*
Y3898D01*
X4418Y3773D02*
Y3898D01*
X4218Y3773D02*
X4418D01*
X4218Y3898D02*
X4418D01*
X7720Y6414D02*
Y6539D01*
X7520Y6414D02*
Y6539D01*
X7720D01*
X7520Y6414D02*
X7720D01*
X8025Y5310D02*
Y5435D01*
X7825Y5310D02*
Y5435D01*
X8025D01*
X7825Y5310D02*
X8025D01*
X7415D02*
Y5435D01*
X7215Y5310D02*
Y5435D01*
X7415D01*
X7215Y5310D02*
X7415D01*
X7685Y5117D02*
X7810D01*
X7685Y4917D02*
X7810D01*
X7685D02*
Y5117D01*
X7810Y4917D02*
Y5117D01*
X7418D02*
X7543D01*
X7418Y4917D02*
X7543D01*
X7418D02*
Y5117D01*
X7543Y4917D02*
Y5117D01*
X8012Y4598D02*
Y4723D01*
X7812Y4598D02*
Y4723D01*
X8012D01*
X7812Y4598D02*
X8012D01*
X7415D02*
Y4723D01*
X7215Y4598D02*
Y4723D01*
X7415D01*
X7215Y4598D02*
X7415D01*
X8012Y4179D02*
Y4304D01*
X7812Y4179D02*
Y4304D01*
X8012D01*
X7812Y4179D02*
X8012D01*
X7415D02*
Y4304D01*
X7215Y4179D02*
Y4304D01*
X7415D01*
X7215Y4179D02*
X7415D01*
X8879Y7304D02*
X9079D01*
X8879Y7429D02*
X9079D01*
X8879Y7304D02*
Y7429D01*
X9079Y7304D02*
Y7429D01*
X8511D02*
X8711D01*
X8511Y7304D02*
X8711D01*
Y7429D01*
X8511Y7304D02*
Y7429D01*
X8892Y4535D02*
X9092D01*
X8892Y4660D02*
X9092D01*
X8892Y4535D02*
Y4660D01*
X9092Y4535D02*
Y4660D01*
X8498D02*
X8698D01*
X8498Y4535D02*
X8698D01*
Y4660D01*
X8498Y4535D02*
Y4660D01*
X8944Y3744D02*
Y4003D01*
X8684Y3744D02*
Y4003D01*
Y3744D02*
X8944D01*
X8684Y4003D02*
X8944D01*
X7513Y7147D02*
Y7357D01*
X7753Y7147D02*
Y7357D01*
X7513Y7147D02*
X7753D01*
X7513Y7357D02*
X7753D01*
X7695Y8205D02*
Y8496D01*
X7545Y8205D02*
Y8496D01*
X7695D01*
X7545Y8205D02*
X7695D01*
Y5906D02*
Y6198D01*
X7545Y5906D02*
Y6198D01*
X7695D01*
X7545Y5906D02*
X7695D01*
Y3620D02*
Y3912D01*
X7545Y3620D02*
Y3912D01*
X7695D01*
X7545Y3620D02*
X7695D01*
X6148Y6483D02*
Y6683D01*
X6273Y6483D02*
Y6683D01*
X6148Y6483D02*
X6273D01*
X6148Y6683D02*
X6273D01*
D104*
X5778Y11301D02*
D03*
D105*
X5053Y10751D02*
D03*
X6504D02*
D03*
D106*
X5778D02*
D03*
M02*
