M48
;Layer_Color=9474304
;FILE_FORMAT=4:4
METRIC
;TYPE=PLATED
T1F00S00C0.2000
T2F00S00C0.3000
T3F00S00C0.3000
T4F00S00C0.5000
T5F00S00C0.5000
T6F00S00C0.6500
T9F00S00C0.8000
T10F00S00C0.8000
T11F00S00C2.0000
T12F00S00C3.0000
%
T01
X00557610Y00497920
X00567610
Y00507920
X00557610
T02
X00481330Y00723900
X00566420Y00702310
Y00777240
X00593090Y00756920
X00516890Y00881380
T03
X00393920Y00383320
X00393050Y00394320
X00490220Y00384810
X00546100Y00386080
X00561340Y00388620
X00553720Y00372110
X00539750Y00347980
X00561340Y00299720
X00589280Y00389890
X00796070Y00363000
X00862330Y00367030
X00885190
X00857250Y00389890
X00911740Y00393780
X00914400Y00334010
X00911860Y00313690
X00910590Y00427990
X00875030Y00405130
X00886460Y00621030
X00904240
X00878840Y00636270
X00886460Y00651510
X00871220Y00666750
X00892810Y00697230
X00906780Y00707390
X00883920Y00718820
X00897890Y00736600
X00803480Y00591390
X00774700Y00633730
X00721020Y00619420
X00750570Y00692150
X00769620Y00701040
X00730250Y00720090
X00652780Y00684530
X00626110Y00683260
X00596900Y00693420
Y00710370
X00568960Y00717550
X00566420Y00730250
X00530860Y00749300
X00511810Y00760730
X00504190Y00788670
X00529590Y00781050
X00589280Y00767080
X00609659Y00786130
X00637540Y00768350
Y00753110
X00629800Y00745370
X00514350Y00720370
X00473710Y00730250
X00466090Y00736600
X00459740Y00745490
X00473710Y00755650
X00467360Y00762000
X00414020Y00778510
X00416560Y00632460
X00459740Y00604520
X00497840Y00570230
X00478790Y00528320
X00509270Y00513080
X00556260Y00532130
X00571500Y00523240
X00590550Y00532130
X00584200Y00585470
X00571500Y00590550
X00558800Y00604520
X00551180
X00585470
X00575310Y00615950
X00570230Y00633730
X00577850Y00637460
X00596900Y00635000
X00547370Y00665480
X00529950Y00666390
X00513080Y00666750
X00562610Y00566420
X00628930Y00583210
X00580390Y00477520
X00571500Y00469900
X00553720Y00453390
X00546690Y00434340
X00480060Y00430530
Y00459740
X00735330Y00402590
X00392620Y00405320
X00392670Y00416320
X00392430Y00438150
X00407670Y00831850
X00449580
X00457200Y00825500
X00461010Y00796290
X00495300Y00798830
X00508000Y00797560
X00484330Y00810230
X00491490Y00831850
X00477520Y00862330
X00425450
X00516890Y00896620
X00554990Y00871220
X00566420Y00855980
X00567690Y00834390
X00589280Y00828040
Y00862330
X00598170
X00604520Y00855980
X00608330Y00895350
X00615950Y00920750
X00600710Y00971550
X00641350Y00962660
X00510540
X00511810Y00990600
X00548640Y00820420
X00556260Y00816610
X00618490Y00812800
X00786130Y00854710
T04
X00562610Y00485140
X00584200Y00524510
T05
X00392600Y00332200
X00400150Y00347300
X00415250
X00430350
X00445450
X00460550
X00475650
X00490750
X00483200Y00332200
X00468100
X00453000
X00437900
Y00302000
X00453000
X00468100
X00475650Y00286900
X00490750
X00498300Y00271800
X00513400
X00528500
X00543600
X00558700
X00573800
X00588900
X00604000
X00619100
X00634200
X00626650Y00286900
X00611550
X00596450
X00581350
X00566250
X00551150
X00536050
X00520950
X00543600Y00302000
X00573800
X00588900
X00604000
X00619100
X00634200
X00641750Y00317100
X00656850
X00671950
X00664400Y00362400
X00671950Y00377500
X00656850
X00634200Y00332200
X00581350Y00377500
X00573800Y00392600
X00513400Y00362400
X00460550Y00317100
Y00286900
X00445450
X00430350
X00437900Y00271800
X00453000
X00468100
X00483200
X00415250Y00317100
X00400150
X00460550Y00407700
X00468100Y00422800
X00453000
X00460550Y00437900
X00505850
X00513400Y00453000
X00498300
X00505850Y00468100
X00513400Y00483200
X00498300
X00505850Y00498300
Y00528500
X00422800Y00543600
Y00573800
Y00604000
X00400150Y00619100
Y00588900
Y00558700
Y00528500
X00422800Y00513400
X00415250Y00498300
X00430350Y00649300
X00445450
X00460550
X00468100Y00664400
X00453000
X00460550Y00679500
X00430350
X00415250
X00400150
X00422800Y00694600
X00437900
X00445450Y00709700
X00430350
X00415250
X00422800Y00724800
X00407700
X00415250Y00739900
X00400150
X00407700Y00755000
X00422800
X00400150Y00770100
X00520950Y00709700
X00453000Y00634200
X00641750Y00558700
X00649300Y00513400
X00664400
X00671950Y00528500
Y00498300
X00656850
X00641750
X00649300Y00483200
X00664400
X00671950Y00468100
X00656850
X00641750
X00649300Y00453000
X00664400
X00671950Y00437900
X00656850
X00641750
X00649300Y00422800
X00664400
X00641750Y00407700
X00604000Y00513400
X00392600Y00543600
Y00573800
Y00604000
Y00724800
Y00755000
Y00483200
Y00875800
Y00906000
X00400150Y00890900
X00453000Y00906000
X00445450Y00921100
X00437900Y00936200
X00445450Y00951300
X00430350
X00437900Y00966400
X00422800
X00430350Y00981500
X00445450
X00453000Y00996600
X00437900
X00445450Y01011700
X00460550
X00430350
X00415250Y00981500
X00400150
X00536050
X00543600Y00966400
X00558700
X00566250Y00951300
X00551150
X00536050
X00543600Y00936200
X00558700
X00573800
X00566250Y00921100
X00551150
X00558700Y00906000
X00573800
X00543600
X00528500Y00966400
Y00996600
X00558700
X00573800
X00588900
X00604000
X00619100
X00634200
X00649300
X00641750Y01011700
X00626650
X00611550
X00596450Y00981500
X00581350
X00619100Y00936200
X00634200
X00649300
Y00875800
X00664400
X00671950Y00860700
X00656850
X00641750
X00634200Y00875800
T06
X00853440Y00760730
X00866140
X00878840
Y00773430
X00891540
X00904240
Y00760730
X00891540
X00866140Y00773430
X00853440
T09
X00438150Y00314960
X00482600Y00312420
X00850900Y00554990
Y00570230
X00762000Y00466090
Y00424180
X00621030Y00398780
X00664210Y00539750
Y00557530
X00742950Y00674370
X00751840Y00754380
X00779270Y00765050
X00789940Y00792480
X00472440Y00549910
X00490220Y00501650
X00474980Y00486410
X00455930Y00490220
X00427990Y00492760
X00379730Y00679450
X00384810Y00919480
Y00934720
Y00949960
Y00965200
Y00980440
X00461010Y00977900
Y00963507
Y00949113
Y00934720
X00440690Y00900430
Y00877570
T10
X00574040Y00365760
X00594040
T11
X00877570Y00273050
X00878840Y00486410
Y00548640
T12
X00400050Y00283210
X00660400Y00281940
X00762000Y00295910
X00791210Y00927100
X00398780Y01016000
M30
