G04*
G04 #@! TF.GenerationSoftware,Altium Limited,Altium Designer,18.0.7 (293)*
G04*
G04 Layer_Color=32896*
%FSLAX42Y42*%
%MOMM*%
G71*
G01*
G75*
%ADD10C,0.25*%
%ADD12C,0.20*%
%ADD13C,0.10*%
%ADD15C,0.25*%
D10*
X5575Y6954D02*
G03*
X5575Y6954I-12J0D01*
G01*
X5638Y6739D02*
G03*
X5638Y6739I-12J0D01*
G01*
X6017Y5853D02*
G03*
X6017Y5853I-12J0D01*
G01*
X7485Y7107D02*
G03*
X7485Y7107I-12J0D01*
G01*
D12*
X5664Y4240D02*
G03*
X5689Y4240I12J0D01*
G01*
X6258Y9594D02*
Y9634D01*
X6138Y9594D02*
Y9634D01*
X6474Y9594D02*
Y9634D01*
X6353Y9594D02*
Y9634D01*
X6168Y8373D02*
X6228D01*
X6168Y8493D02*
X6228D01*
X6536Y8493D02*
X6596D01*
X6536Y8373D02*
X6596D01*
X5657D02*
X5697D01*
X5657Y8493D02*
X5697D01*
X5419Y7473D02*
Y7513D01*
X5299Y7473D02*
Y7513D01*
X5644Y7858D02*
X5684D01*
X5644Y7738D02*
X5684D01*
X5178Y8289D02*
Y8349D01*
X5058Y8289D02*
Y8349D01*
X4975Y8289D02*
Y8349D01*
X4855Y8289D02*
Y8349D01*
X4772Y8299D02*
Y8339D01*
X4652Y8299D02*
Y8339D01*
X5253Y7738D02*
X5313D01*
X5253Y7858D02*
X5313D01*
X5757Y8093D02*
X5817D01*
X5757Y8213D02*
X5817D01*
X6461Y8108D02*
Y8148D01*
X6341Y8108D02*
Y8148D01*
X5083Y7384D02*
Y7424D01*
X5203Y7384D02*
Y7424D01*
X5877Y7371D02*
Y7411D01*
X5757Y7371D02*
Y7411D01*
X5530Y7047D02*
Y7127D01*
X5240Y7047D02*
Y7127D01*
Y7047D02*
X5530D01*
X5240Y7127D02*
X5530D01*
X6125Y8098D02*
Y8158D01*
X6245Y8098D02*
Y8158D01*
X6702Y8098D02*
Y8158D01*
X6582Y8098D02*
Y8158D01*
X5757Y7003D02*
Y7043D01*
X5877Y7003D02*
Y7043D01*
X6243Y7484D02*
X6483D01*
X6243Y7172D02*
X6483D01*
X4882Y6531D02*
X4922D01*
X4882Y6651D02*
X4922D01*
X4882Y6785D02*
X4922D01*
X4882Y6905D02*
X4922D01*
X5651Y6599D02*
X5881D01*
X5651Y6659D02*
X5881D01*
Y6599D02*
Y6659D01*
X5651Y6599D02*
Y6659D01*
X6097Y5878D02*
X6197D01*
X6097Y6188D02*
X6197D01*
X6097Y5878D02*
Y6188D01*
X6197Y5878D02*
Y6188D01*
X6546Y6105D02*
X6586D01*
X6546Y5985D02*
X6586D01*
X5165Y5630D02*
Y6130D01*
X5477Y5630D02*
Y6130D01*
X6165Y5712D02*
X6205D01*
X6165Y5592D02*
X6205D01*
X6165Y5470D02*
X6205D01*
X6165Y5350D02*
X6205D01*
X6142Y6544D02*
X6202D01*
X6142Y6664D02*
X6202D01*
X6536Y6544D02*
X6596D01*
X6536Y6664D02*
X6596D01*
X5784Y4423D02*
X5824D01*
X5784Y4543D02*
X5824D01*
X5411Y4864D02*
X5472D01*
X5780D02*
X5841D01*
X5411Y5194D02*
X5472D01*
X5780D02*
X5841D01*
X5411Y4864D02*
Y4879D01*
Y5179D02*
Y5194D01*
X5841Y4864D02*
Y4879D01*
Y5179D02*
Y5194D01*
X5305Y4275D02*
Y4335D01*
X5185Y4275D02*
Y4335D01*
X5689Y4240D02*
X5785D01*
X5569D02*
X5664D01*
X5569Y3999D02*
Y4240D01*
Y3999D02*
X5785D01*
Y4240D01*
X4995Y2993D02*
Y3053D01*
X5115Y2993D02*
Y3053D01*
X5394Y3221D02*
Y3281D01*
X5274Y3221D02*
Y3281D01*
X5661Y3221D02*
Y3281D01*
X5541Y3221D02*
Y3281D01*
X6074Y3221D02*
Y3281D01*
X6194Y3221D02*
Y3281D01*
X5807Y3221D02*
Y3281D01*
X5927Y3221D02*
Y3281D01*
X6178Y5013D02*
X6218D01*
X6178Y4893D02*
X6218D01*
X6178Y4772D02*
X6218D01*
X6178Y4652D02*
X6218D01*
X6178Y4543D02*
X6218D01*
X6178Y4423D02*
X6218D01*
X6178Y4327D02*
X6218D01*
X6178Y4207D02*
X6218D01*
X4288Y4563D02*
X4348D01*
X4288Y4683D02*
X4348D01*
X4288Y4301D02*
X4348D01*
X4288Y4421D02*
X4348D01*
X4298Y4037D02*
X4338D01*
X4298Y4157D02*
X4338D01*
X4872Y3572D02*
X4932D01*
X4872Y3692D02*
X4932D01*
X4872Y4040D02*
X4932D01*
X4872Y4160D02*
X4932D01*
X4298Y3775D02*
X4338D01*
X4298Y3895D02*
X4338D01*
X7590Y6537D02*
X7650D01*
X7590Y6417D02*
X7650D01*
X7895Y5432D02*
X7955D01*
X7895Y5312D02*
X7955D01*
X7295Y5432D02*
X7335D01*
X7295Y5312D02*
X7335D01*
X7687Y4987D02*
Y5047D01*
X7807Y4987D02*
Y5047D01*
X7420Y4987D02*
Y5047D01*
X7540Y4987D02*
Y5047D01*
X7882Y4721D02*
X7942D01*
X7882Y4601D02*
X7942D01*
X7295Y4721D02*
X7335D01*
X7295Y4601D02*
X7335D01*
X7882Y4302D02*
X7942D01*
X7882Y4182D02*
X7942D01*
X7295Y4302D02*
X7335D01*
X7295Y4182D02*
X7335D01*
X8959Y7306D02*
X8999D01*
X8959Y7426D02*
X8999D01*
X8591Y7426D02*
X8631D01*
X8591Y7306D02*
X8631D01*
X8972Y4537D02*
X9012D01*
X8972Y4657D02*
X9012D01*
X8578Y4657D02*
X8618D01*
X8578Y4537D02*
X8618D01*
X7553Y7147D02*
Y7357D01*
X7713Y7147D02*
Y7357D01*
X7553Y7147D02*
X7713D01*
X7553Y7357D02*
X7713D01*
D13*
X5886Y5194D02*
G03*
X5886Y5194I-5J0D01*
G01*
D15*
X4102Y9068D02*
X4128Y9093D01*
X4178D01*
X4204Y9068D01*
Y8966D01*
X4178Y8941D01*
X4128D01*
X4102Y8966D01*
Y9017D01*
X4153D01*
X4051Y8941D02*
Y9093D01*
X3950Y8941D01*
Y9093D01*
X3899D02*
Y8941D01*
X3823D01*
X3797Y8966D01*
Y9068D01*
X3823Y9093D01*
X3899D01*
X4445Y9296D02*
X4420Y9322D01*
X4369D01*
X4343Y9296D01*
Y9271D01*
X4369Y9246D01*
X4394D01*
X4369D01*
X4343Y9220D01*
Y9195D01*
X4369Y9169D01*
X4420D01*
X4445Y9195D01*
X4293Y9322D02*
Y9220D01*
X4242Y9169D01*
X4191Y9220D01*
Y9322D01*
X4140Y9296D02*
X4115Y9322D01*
X4064D01*
X4039Y9296D01*
Y9271D01*
X4064Y9246D01*
X4090D01*
X4064D01*
X4039Y9220D01*
Y9195D01*
X4064Y9169D01*
X4115D01*
X4140Y9195D01*
X4331Y9500D02*
X4356Y9525D01*
X4407D01*
X4432Y9500D01*
Y9398D01*
X4407Y9373D01*
X4356D01*
X4331Y9398D01*
X4280Y9525D02*
Y9373D01*
X4178D01*
X4128D02*
Y9525D01*
X4051D01*
X4026Y9500D01*
Y9449D01*
X4051Y9423D01*
X4128D01*
X4077D02*
X4026Y9373D01*
X4420Y9589D02*
Y9741D01*
X4343D01*
X4318Y9715D01*
Y9665D01*
X4343Y9639D01*
X4420D01*
X4267Y9563D02*
X4166D01*
X4013Y9715D02*
X4039Y9741D01*
X4090D01*
X4115Y9715D01*
Y9614D01*
X4090Y9589D01*
X4039D01*
X4013Y9614D01*
X4420Y9792D02*
Y9944D01*
X4343D01*
X4318Y9919D01*
Y9868D01*
X4343Y9842D01*
X4420D01*
X4267Y9766D02*
X4166D01*
X4115Y9944D02*
Y9792D01*
X4039D01*
X4013Y9817D01*
Y9919D01*
X4039Y9944D01*
X4115D01*
X4178Y4775D02*
Y4928D01*
X4128Y4877D01*
X4077Y4928D01*
Y4775D01*
X4026Y4928D02*
X3975D01*
X4001D01*
Y4775D01*
X4026D01*
X3975D01*
X3899Y4902D02*
X3874Y4928D01*
X3823D01*
X3797Y4902D01*
Y4877D01*
X3823Y4851D01*
X3848D01*
X3823D01*
X3797Y4826D01*
Y4801D01*
X3823Y4775D01*
X3874D01*
X3899Y4801D01*
X5067Y4737D02*
X4915D01*
X4966Y4686D01*
X4915Y4636D01*
X5067D01*
X4915Y4509D02*
Y4559D01*
X4940Y4585D01*
X5042D01*
X5067Y4559D01*
Y4509D01*
X5042Y4483D01*
X4940D01*
X4915Y4509D01*
X4940Y4432D02*
X4915Y4407D01*
Y4356D01*
X4940Y4331D01*
X4966D01*
X4991Y4356D01*
Y4382D01*
Y4356D01*
X5017Y4331D01*
X5042D01*
X5067Y4356D01*
Y4407D01*
X5042Y4432D01*
X4737Y4636D02*
X4712Y4661D01*
Y4712D01*
X4737Y4737D01*
X4839D01*
X4864Y4712D01*
Y4661D01*
X4839Y4636D01*
X4737Y4483D02*
X4712Y4509D01*
Y4559D01*
X4737Y4585D01*
X4763D01*
X4788Y4559D01*
Y4509D01*
X4813Y4483D01*
X4839D01*
X4864Y4509D01*
Y4559D01*
X4839Y4585D01*
X4737Y4432D02*
X4712Y4407D01*
Y4356D01*
X4737Y4331D01*
X4763D01*
X4788Y4356D01*
Y4382D01*
Y4356D01*
X4813Y4331D01*
X4839D01*
X4864Y4356D01*
Y4407D01*
X4839Y4432D01*
X4547Y4636D02*
X4521Y4661D01*
Y4712D01*
X4547Y4737D01*
X4648D01*
X4674Y4712D01*
Y4661D01*
X4648Y4636D01*
X4521Y4585D02*
X4674D01*
Y4483D01*
X4521Y4432D02*
X4674D01*
X4623D01*
X4521Y4331D01*
X4597Y4407D01*
X4674Y4331D01*
X4547Y4280D02*
X4521Y4255D01*
Y4204D01*
X4547Y4178D01*
X4572D01*
X4597Y4204D01*
Y4229D01*
Y4204D01*
X4623Y4178D01*
X4648D01*
X4674Y4204D01*
Y4255D01*
X4648Y4280D01*
X6794Y5270D02*
Y5118D01*
X6693D01*
X6541Y5245D02*
X6566Y5270D01*
X6617D01*
X6642Y5245D01*
Y5143D01*
X6617Y5118D01*
X6566D01*
X6541Y5143D01*
X6490Y5270D02*
X6388D01*
Y5245D01*
X6490Y5143D01*
Y5118D01*
X6337Y5245D02*
X6312Y5270D01*
X6261D01*
X6236Y5245D01*
Y5143D01*
X6261Y5118D01*
X6312D01*
X6337Y5143D01*
Y5245D01*
X6185Y5143D02*
X6160Y5118D01*
X6109D01*
X6084Y5143D01*
Y5245D01*
X6109Y5270D01*
X6160D01*
X6185Y5245D01*
Y5220D01*
X6160Y5194D01*
X6084D01*
X5931Y5118D02*
X6033D01*
X5931Y5220D01*
Y5245D01*
X5957Y5270D01*
X6007D01*
X6033Y5245D01*
X5855Y4775D02*
X5880Y4801D01*
X5931D01*
X5956Y4775D01*
Y4674D01*
X5931Y4648D01*
X5880D01*
X5855Y4674D01*
X5804Y4648D02*
X5753D01*
X5779D01*
Y4801D01*
X5804Y4775D01*
X5677Y4648D02*
X5626D01*
X5652D01*
Y4801D01*
X5677Y4775D01*
X5207Y7188D02*
X5105D01*
X5055Y7137D01*
X5105Y7087D01*
X5207D01*
X5131D01*
Y7188D01*
X5207Y7036D02*
X5055D01*
Y6960D01*
X5080Y6934D01*
X5131D01*
X5156Y6960D01*
Y7036D01*
X4013Y3899D02*
X4039Y3924D01*
X4089D01*
X4115Y3899D01*
Y3797D01*
X4089Y3772D01*
X4039D01*
X4013Y3797D01*
X3962Y3899D02*
X3937Y3924D01*
X3886D01*
X3861Y3899D01*
Y3873D01*
X3886Y3848D01*
X3912D01*
X3886D01*
X3861Y3823D01*
Y3797D01*
X3886Y3772D01*
X3937D01*
X3962Y3797D01*
X3709Y3924D02*
X3810D01*
Y3848D01*
X3759Y3873D01*
X3734D01*
X3709Y3848D01*
Y3797D01*
X3734Y3772D01*
X3785D01*
X3810Y3797D01*
X4013Y4153D02*
X4039Y4178D01*
X4089D01*
X4115Y4153D01*
Y4051D01*
X4089Y4026D01*
X4039D01*
X4013Y4051D01*
X3962Y4153D02*
X3937Y4178D01*
X3886D01*
X3861Y4153D01*
Y4127D01*
X3886Y4102D01*
X3912D01*
X3886D01*
X3861Y4077D01*
Y4051D01*
X3886Y4026D01*
X3937D01*
X3962Y4051D01*
X3734Y4026D02*
Y4178D01*
X3810Y4102D01*
X3709D01*
X8712Y6960D02*
X8687Y6985D01*
Y7036D01*
X8712Y7061D01*
X8814D01*
X8839Y7036D01*
Y6985D01*
X8814Y6960D01*
X8712Y6909D02*
X8687Y6883D01*
Y6833D01*
X8712Y6807D01*
X8738D01*
X8763Y6833D01*
Y6858D01*
Y6833D01*
X8788Y6807D01*
X8814D01*
X8839Y6833D01*
Y6883D01*
X8814Y6909D01*
X8712Y6756D02*
X8687Y6731D01*
Y6680D01*
X8712Y6655D01*
X8738D01*
X8763Y6680D01*
Y6706D01*
Y6680D01*
X8788Y6655D01*
X8814D01*
X8839Y6680D01*
Y6731D01*
X8814Y6756D01*
X8954Y6985D02*
X8928Y7010D01*
Y7061D01*
X8954Y7087D01*
X9055D01*
X9081Y7061D01*
Y7010D01*
X9055Y6985D01*
X8954Y6934D02*
X8928Y6909D01*
Y6858D01*
X8954Y6833D01*
X8979D01*
X9004Y6858D01*
Y6883D01*
Y6858D01*
X9030Y6833D01*
X9055D01*
X9081Y6858D01*
Y6909D01*
X9055Y6934D01*
X9081Y6680D02*
Y6782D01*
X8979Y6680D01*
X8954D01*
X8928Y6706D01*
Y6757D01*
X8954Y6782D01*
X8611Y3670D02*
X8636Y3645D01*
Y3594D01*
X8611Y3569D01*
X8509D01*
X8484Y3594D01*
Y3645D01*
X8509Y3670D01*
X8611Y3721D02*
X8636Y3746D01*
Y3797D01*
X8611Y3823D01*
X8585D01*
X8560Y3797D01*
Y3772D01*
Y3797D01*
X8534Y3823D01*
X8509D01*
X8484Y3797D01*
Y3746D01*
X8509Y3721D01*
X8484Y3873D02*
Y3924D01*
Y3899D01*
X8636D01*
X8611Y3873D01*
X6363Y10135D02*
X6337Y10160D01*
Y10211D01*
X6363Y10236D01*
X6464D01*
X6490Y10211D01*
Y10160D01*
X6464Y10135D01*
X6490Y9982D02*
Y10084D01*
X6388Y9982D01*
X6363D01*
X6337Y10008D01*
Y10058D01*
X6363Y10084D01*
X6464Y9931D02*
X6490Y9906D01*
Y9855D01*
X6464Y9830D01*
X6363D01*
X6337Y9855D01*
Y9906D01*
X6363Y9931D01*
X6388D01*
X6414Y9906D01*
Y9830D01*
X6134Y10135D02*
X6109Y10160D01*
Y10211D01*
X6134Y10236D01*
X6236D01*
X6261Y10211D01*
Y10160D01*
X6236Y10135D01*
X6134Y10084D02*
X6109Y10058D01*
Y10008D01*
X6134Y9982D01*
X6160D01*
X6185Y10008D01*
Y10033D01*
Y10008D01*
X6210Y9982D01*
X6236D01*
X6261Y10008D01*
Y10058D01*
X6236Y10084D01*
X6134Y9931D02*
X6109Y9906D01*
Y9855D01*
X6134Y9830D01*
X6236D01*
X6261Y9855D01*
Y9906D01*
X6236Y9931D01*
X6134D01*
X7894Y7036D02*
X7920Y7062D01*
X7971D01*
X7996Y7036D01*
Y7011D01*
X7971Y6985D01*
X7920D01*
X7894Y6960D01*
Y6935D01*
X7920Y6909D01*
X7971D01*
X7996Y6935D01*
X7844Y6909D02*
Y7062D01*
X7742Y6909D01*
Y7062D01*
X7691D02*
X7590D01*
Y7036D01*
X7691Y6935D01*
Y6909D01*
X7463D02*
Y7062D01*
X7539Y6985D01*
X7437D01*
X7386Y6909D02*
Y7011D01*
X7336Y7062D01*
X7285Y7011D01*
Y6909D01*
Y6985D01*
X7386D01*
X4509Y7988D02*
X4483Y8014D01*
Y8065D01*
X4509Y8090D01*
X4534D01*
X4559Y8065D01*
Y8014D01*
X4585Y7988D01*
X4610D01*
X4635Y8014D01*
Y8065D01*
X4610Y8090D01*
X4483Y7836D02*
Y7938D01*
X4635D01*
Y7836D01*
X4559Y7938D02*
Y7887D01*
X4635Y7785D02*
X4483D01*
X4635Y7684D01*
X4483D01*
X4509Y7531D02*
X4483Y7557D01*
Y7607D01*
X4509Y7633D01*
X4534D01*
X4559Y7607D01*
Y7557D01*
X4585Y7531D01*
X4610D01*
X4635Y7557D01*
Y7607D01*
X4610Y7633D01*
X4483Y7404D02*
Y7455D01*
X4509Y7480D01*
X4610D01*
X4635Y7455D01*
Y7404D01*
X4610Y7379D01*
X4509D01*
X4483Y7404D01*
X4635Y7328D02*
X4483D01*
Y7252D01*
X4509Y7227D01*
X4559D01*
X4585Y7252D01*
Y7328D01*
Y7277D02*
X4635Y7227D01*
X8014Y6579D02*
Y6731D01*
X7938D01*
X7912Y6706D01*
Y6655D01*
X7938Y6629D01*
X8014D01*
X7963D02*
X7912Y6579D01*
X7861Y6731D02*
X7760D01*
Y6706D01*
X7861Y6604D01*
Y6579D01*
X5613Y8115D02*
Y8268D01*
X5537D01*
X5512Y8242D01*
Y8191D01*
X5537Y8166D01*
X5613D01*
X5563D02*
X5512Y8115D01*
X5359D02*
X5461D01*
X5359Y8217D01*
Y8242D01*
X5385Y8268D01*
X5436D01*
X5461Y8242D01*
X5207Y8268D02*
X5309D01*
Y8191D01*
X5258Y8217D01*
X5233D01*
X5207Y8191D01*
Y8141D01*
X5233Y8115D01*
X5283D01*
X5309Y8141D01*
X8052Y5524D02*
Y5677D01*
X7976D01*
X7950Y5651D01*
Y5601D01*
X7976Y5575D01*
X8052D01*
X8001D02*
X7950Y5524D01*
X7899Y5550D02*
X7874Y5524D01*
X7823D01*
X7798Y5550D01*
Y5651D01*
X7823Y5677D01*
X7874D01*
X7899Y5651D01*
Y5626D01*
X7874Y5601D01*
X7798D01*
X8026Y3937D02*
Y4089D01*
X7950D01*
X7925Y4064D01*
Y4013D01*
X7950Y3988D01*
X8026D01*
X7976D02*
X7925Y3937D01*
X7874Y4064D02*
X7849Y4089D01*
X7798D01*
X7772Y4064D01*
Y4039D01*
X7798Y4013D01*
X7823D01*
X7798D01*
X7772Y3988D01*
Y3962D01*
X7798Y3937D01*
X7849D01*
X7874Y3962D01*
X8039Y4369D02*
Y4521D01*
X7963D01*
X7938Y4496D01*
Y4445D01*
X7963Y4420D01*
X8039D01*
X7988D02*
X7938Y4369D01*
X7811D02*
Y4521D01*
X7887Y4445D01*
X7785D01*
X5093Y7722D02*
Y7874D01*
X5017D01*
X4991Y7849D01*
Y7798D01*
X5017Y7772D01*
X5093D01*
X5042D02*
X4991Y7722D01*
X4839D02*
X4940D01*
X4839Y7823D01*
Y7849D01*
X4864Y7874D01*
X4915D01*
X4940Y7849D01*
X4712Y7722D02*
Y7874D01*
X4788Y7798D01*
X4686D01*
X8064Y5207D02*
X7912D01*
Y5131D01*
X7938Y5105D01*
X7988D01*
X8014Y5131D01*
Y5207D01*
Y5156D02*
X8064Y5105D01*
Y5055D02*
Y5004D01*
Y5029D01*
X7912D01*
X7938Y5055D01*
X8064Y4852D02*
X7912D01*
X7988Y4928D01*
Y4826D01*
X6820Y8572D02*
Y8725D01*
X6744D01*
X6718Y8699D01*
Y8649D01*
X6744Y8623D01*
X6820D01*
X6769D02*
X6718Y8572D01*
X6668D02*
X6617D01*
X6642D01*
Y8725D01*
X6668Y8699D01*
X6439Y8725D02*
X6490Y8699D01*
X6541Y8649D01*
Y8598D01*
X6515Y8572D01*
X6464D01*
X6439Y8598D01*
Y8623D01*
X6464Y8649D01*
X6541D01*
X6325Y6779D02*
Y6932D01*
X6248D01*
X6223Y6906D01*
Y6855D01*
X6248Y6830D01*
X6325D01*
X6274D02*
X6223Y6779D01*
X6172D02*
X6121D01*
X6147D01*
Y6932D01*
X6172Y6906D01*
X6045Y6779D02*
X5995D01*
X6020D01*
Y6932D01*
X6045Y6906D01*
X6718Y6779D02*
Y6932D01*
X6642D01*
X6617Y6906D01*
Y6855D01*
X6642Y6830D01*
X6718D01*
X6668D02*
X6617Y6779D01*
X6464Y6932D02*
X6515Y6906D01*
X6566Y6855D01*
Y6805D01*
X6541Y6779D01*
X6490D01*
X6464Y6805D01*
Y6830D01*
X6490Y6855D01*
X6566D01*
X5677Y3010D02*
X5525D01*
Y2934D01*
X5550Y2908D01*
X5601D01*
X5626Y2934D01*
Y3010D01*
Y2959D02*
X5677Y2908D01*
Y2858D02*
Y2807D01*
Y2832D01*
X5525D01*
X5550Y2858D01*
Y2731D02*
X5525Y2705D01*
Y2654D01*
X5550Y2629D01*
X5575D01*
X5601Y2654D01*
Y2680D01*
Y2654D01*
X5626Y2629D01*
X5652D01*
X5677Y2654D01*
Y2705D01*
X5652Y2731D01*
X5410Y3010D02*
X5258D01*
Y2934D01*
X5283Y2908D01*
X5334D01*
X5359Y2934D01*
Y3010D01*
Y2959D02*
X5410Y2908D01*
Y2756D02*
Y2858D01*
X5309Y2756D01*
X5283D01*
X5258Y2781D01*
Y2832D01*
X5283Y2858D01*
X5131Y2807D02*
X4978D01*
Y2731D01*
X5004Y2705D01*
X5055D01*
X5080Y2731D01*
Y2807D01*
Y2756D02*
X5131Y2705D01*
Y2654D02*
Y2604D01*
Y2629D01*
X4978D01*
X5004Y2654D01*
X5321Y4762D02*
X5169D01*
Y4686D01*
X5194Y4661D01*
X5245D01*
X5271Y4686D01*
Y4762D01*
Y4712D02*
X5321Y4661D01*
X5169Y4509D02*
Y4610D01*
X5245D01*
X5220Y4559D01*
Y4534D01*
X5245Y4509D01*
X5296D01*
X5321Y4534D01*
Y4585D01*
X5296Y4610D01*
X5944Y3010D02*
X5791D01*
Y2934D01*
X5817Y2908D01*
X5867D01*
X5893Y2934D01*
Y3010D01*
Y2959D02*
X5944Y2908D01*
Y2858D02*
Y2807D01*
Y2832D01*
X5791D01*
X5817Y2858D01*
Y2731D02*
X5791Y2705D01*
Y2654D01*
X5817Y2629D01*
X5918D01*
X5944Y2654D01*
Y2705D01*
X5918Y2731D01*
X5817D01*
X6083Y8039D02*
X5931D01*
Y7963D01*
X5956Y7938D01*
X6007D01*
X6033Y7963D01*
Y8039D01*
Y7988D02*
X6083Y7938D01*
Y7887D02*
Y7836D01*
Y7861D01*
X5931D01*
X5956Y7887D01*
X6058Y7760D02*
X6083Y7734D01*
Y7684D01*
X6058Y7658D01*
X5956D01*
X5931Y7684D01*
Y7734D01*
X5956Y7760D01*
X5982D01*
X6007Y7734D01*
Y7658D01*
X6210Y3010D02*
X6058D01*
Y2934D01*
X6083Y2908D01*
X6134D01*
X6160Y2934D01*
Y3010D01*
Y2959D02*
X6210Y2908D01*
X6083Y2858D02*
X6058Y2832D01*
Y2781D01*
X6083Y2756D01*
X6109D01*
X6134Y2781D01*
X6160Y2756D01*
X6185D01*
X6210Y2781D01*
Y2832D01*
X6185Y2858D01*
X6160D01*
X6134Y2832D01*
X6109Y2858D01*
X6083D01*
X6134Y2832D02*
Y2781D01*
X4115Y4559D02*
Y4712D01*
X4039D01*
X4013Y4686D01*
Y4635D01*
X4039Y4610D01*
X4115D01*
X4064D02*
X4013Y4559D01*
X3962Y4686D02*
X3937Y4712D01*
X3886D01*
X3861Y4686D01*
Y4661D01*
X3886Y4635D01*
X3912D01*
X3886D01*
X3861Y4610D01*
Y4585D01*
X3886Y4559D01*
X3937D01*
X3962Y4585D01*
X3734Y4559D02*
Y4712D01*
X3810Y4635D01*
X3709D01*
X6718Y8826D02*
Y8979D01*
X6642D01*
X6617Y8953D01*
Y8903D01*
X6642Y8877D01*
X6718D01*
X6668D02*
X6617Y8826D01*
X6566Y8953D02*
X6541Y8979D01*
X6490D01*
X6464Y8953D01*
Y8928D01*
X6490Y8903D01*
X6515D01*
X6490D01*
X6464Y8877D01*
Y8852D01*
X6490Y8826D01*
X6541D01*
X6566Y8852D01*
X6414Y8826D02*
X6363D01*
X6388D01*
Y8979D01*
X6414Y8953D01*
X5105Y3340D02*
Y3492D01*
X5029D01*
X5004Y3467D01*
Y3416D01*
X5029Y3391D01*
X5105D01*
X5055D02*
X5004Y3340D01*
X4953Y3467D02*
X4928Y3492D01*
X4877D01*
X4851Y3467D01*
Y3442D01*
X4877Y3416D01*
X4902D01*
X4877D01*
X4851Y3391D01*
Y3365D01*
X4877Y3340D01*
X4928D01*
X4953Y3365D01*
X4801Y3467D02*
X4775Y3492D01*
X4725D01*
X4699Y3467D01*
Y3442D01*
X4725Y3416D01*
X4750D01*
X4725D01*
X4699Y3391D01*
Y3365D01*
X4725Y3340D01*
X4775D01*
X4801Y3365D01*
X5194Y8915D02*
X5042D01*
Y8839D01*
X5067Y8814D01*
X5118D01*
X5144Y8839D01*
Y8915D01*
Y8865D02*
X5194Y8814D01*
Y8661D02*
Y8763D01*
X5093Y8661D01*
X5067D01*
X5042Y8687D01*
Y8738D01*
X5067Y8763D01*
X5042Y8611D02*
Y8509D01*
X5067D01*
X5169Y8611D01*
X5194D01*
X6287Y8826D02*
Y8979D01*
X6210D01*
X6185Y8953D01*
Y8903D01*
X6210Y8877D01*
X6287D01*
X6236D02*
X6185Y8826D01*
X6033D02*
X6134D01*
X6033Y8928D01*
Y8953D01*
X6058Y8979D01*
X6109D01*
X6134Y8953D01*
X5982Y8852D02*
X5956Y8826D01*
X5906D01*
X5880Y8852D01*
Y8953D01*
X5906Y8979D01*
X5956D01*
X5982Y8953D01*
Y8928D01*
X5956Y8903D01*
X5880D01*
X4115Y4280D02*
Y4432D01*
X4039D01*
X4013Y4407D01*
Y4356D01*
X4039Y4331D01*
X4115D01*
X4064D02*
X4013Y4280D01*
X3962Y4407D02*
X3937Y4432D01*
X3886D01*
X3861Y4407D01*
Y4381D01*
X3886Y4356D01*
X3912D01*
X3886D01*
X3861Y4331D01*
Y4305D01*
X3886Y4280D01*
X3937D01*
X3962Y4305D01*
X3709Y4432D02*
X3810D01*
Y4356D01*
X3759Y4381D01*
X3734D01*
X3709Y4356D01*
Y4305D01*
X3734Y4280D01*
X3785D01*
X3810Y4305D01*
X7315Y5207D02*
X7163D01*
Y5131D01*
X7188Y5105D01*
X7239D01*
X7264Y5131D01*
Y5207D01*
Y5156D02*
X7315Y5105D01*
Y5055D02*
Y5004D01*
Y5029D01*
X7163D01*
X7188Y5055D01*
X7315Y4826D02*
Y4928D01*
X7214Y4826D01*
X7188D01*
X7163Y4852D01*
Y4902D01*
X7188Y4928D01*
X4978Y8915D02*
X4826D01*
Y8839D01*
X4851Y8814D01*
X4902D01*
X4928Y8839D01*
Y8915D01*
Y8865D02*
X4978Y8814D01*
Y8661D02*
Y8763D01*
X4877Y8661D01*
X4851D01*
X4826Y8687D01*
Y8738D01*
X4851Y8763D01*
X4826Y8509D02*
X4851Y8560D01*
X4902Y8611D01*
X4953D01*
X4978Y8585D01*
Y8535D01*
X4953Y8509D01*
X4928D01*
X4902Y8535D01*
Y8611D01*
X5105Y3810D02*
Y3962D01*
X5029D01*
X5004Y3937D01*
Y3886D01*
X5029Y3861D01*
X5105D01*
X5055D02*
X5004Y3810D01*
X4953Y3937D02*
X4928Y3962D01*
X4877D01*
X4851Y3937D01*
Y3912D01*
X4877Y3886D01*
X4902D01*
X4877D01*
X4851Y3861D01*
Y3835D01*
X4877Y3810D01*
X4928D01*
X4953Y3835D01*
X4699Y3810D02*
X4801D01*
X4699Y3912D01*
Y3937D01*
X4725Y3962D01*
X4775D01*
X4801Y3937D01*
X4635Y6299D02*
X4483D01*
Y6223D01*
X4509Y6198D01*
X4559D01*
X4585Y6223D01*
Y6299D01*
X4635Y6147D02*
X4483D01*
X4534Y6096D01*
X4483Y6045D01*
X4635D01*
X4509Y5893D02*
X4483Y5918D01*
Y5969D01*
X4509Y5994D01*
X4534D01*
X4559Y5969D01*
Y5918D01*
X4585Y5893D01*
X4610D01*
X4635Y5918D01*
Y5969D01*
X4610Y5994D01*
X4483Y5842D02*
Y5741D01*
X4509D01*
X4610Y5842D01*
X4635D01*
X4509Y5690D02*
X4483Y5664D01*
Y5614D01*
X4509Y5588D01*
X4610D01*
X4635Y5614D01*
Y5664D01*
X4610Y5690D01*
X4509D01*
Y5537D02*
X4483Y5512D01*
Y5461D01*
X4509Y5436D01*
X4610D01*
X4635Y5461D01*
Y5512D01*
X4610Y5537D01*
X4509D01*
Y5385D02*
X4483Y5360D01*
Y5309D01*
X4509Y5284D01*
X4534D01*
X4559Y5309D01*
Y5334D01*
Y5309D01*
X4585Y5284D01*
X4610D01*
X4635Y5309D01*
Y5360D01*
X4610Y5385D01*
X8725Y6033D02*
X8877D01*
Y6109D01*
X8852Y6134D01*
X8801D01*
X8776Y6109D01*
Y6033D01*
X8725Y6185D02*
X8877D01*
X8826Y6236D01*
X8877Y6286D01*
X8725D01*
X8852Y6439D02*
X8877Y6413D01*
Y6363D01*
X8852Y6337D01*
X8826D01*
X8801Y6363D01*
Y6413D01*
X8776Y6439D01*
X8750D01*
X8725Y6413D01*
Y6363D01*
X8750Y6337D01*
X8725Y6490D02*
Y6540D01*
Y6515D01*
X8877D01*
X8852Y6490D01*
X6820Y3721D02*
Y3645D01*
X6795Y3619D01*
X6718D01*
Y3721D01*
X6668Y3772D02*
Y3645D01*
X6642Y3619D01*
X6591D01*
X6566Y3645D01*
Y3772D01*
X6414Y3746D02*
X6439Y3772D01*
X6490D01*
X6515Y3746D01*
Y3721D01*
X6490Y3696D01*
X6439D01*
X6414Y3670D01*
Y3645D01*
X6439Y3619D01*
X6490D01*
X6515Y3645D01*
X6363Y3772D02*
Y3619D01*
X6287D01*
X6261Y3645D01*
Y3670D01*
X6287Y3696D01*
X6363D01*
X6287D01*
X6261Y3721D01*
Y3746D01*
X6287Y3772D01*
X6363D01*
X6566Y6236D02*
Y6388D01*
X6515Y6337D01*
X6464Y6388D01*
Y6236D01*
X6312Y6363D02*
X6337Y6388D01*
X6388D01*
X6414Y6363D01*
Y6261D01*
X6388Y6236D01*
X6337D01*
X6312Y6261D01*
X6261Y6236D02*
Y6388D01*
X6185D01*
X6160Y6363D01*
Y6312D01*
X6185Y6286D01*
X6261D01*
X6109Y6236D02*
X6058D01*
X6083D01*
Y6388D01*
X6109Y6363D01*
X5880Y6388D02*
X5931Y6363D01*
X5982Y6312D01*
Y6261D01*
X5956Y6236D01*
X5906D01*
X5880Y6261D01*
Y6286D01*
X5906Y6312D01*
X5982D01*
X5423Y6718D02*
Y6566D01*
X5321D01*
X5271D02*
X5220D01*
X5245D01*
Y6718D01*
X5271Y6693D01*
X6502Y7849D02*
Y7696D01*
X6401D01*
X6248D02*
X6350D01*
X6248Y7798D01*
Y7823D01*
X6274Y7849D01*
X6325D01*
X6350Y7823D01*
X4724Y7366D02*
X4699Y7391D01*
Y7442D01*
X4724Y7468D01*
X4826D01*
X4851Y7442D01*
Y7391D01*
X4826Y7366D01*
X4851Y7315D02*
Y7264D01*
Y7290D01*
X4699D01*
X4724Y7315D01*
Y7188D02*
X4699Y7163D01*
Y7112D01*
X4724Y7087D01*
X4750D01*
X4775Y7112D01*
X4801Y7087D01*
X4826D01*
X4851Y7112D01*
Y7163D01*
X4826Y7188D01*
X4801D01*
X4775Y7163D01*
X4750Y7188D01*
X4724D01*
X4775Y7163D02*
Y7112D01*
X4915Y7506D02*
X4890Y7531D01*
Y7582D01*
X4915Y7607D01*
X5017D01*
X5042Y7582D01*
Y7531D01*
X5017Y7506D01*
X5042Y7353D02*
Y7455D01*
X4940Y7353D01*
X4915D01*
X4890Y7379D01*
Y7430D01*
X4915Y7455D01*
X5042Y7303D02*
Y7252D01*
Y7277D01*
X4890D01*
X4915Y7303D01*
X5588Y7074D02*
X5563Y7099D01*
Y7150D01*
X5588Y7175D01*
X5690D01*
X5715Y7150D01*
Y7099D01*
X5690Y7074D01*
X5715Y7023D02*
Y6972D01*
Y6998D01*
X5563D01*
X5588Y7023D01*
X5715Y6820D02*
X5563D01*
X5639Y6896D01*
Y6795D01*
X5740Y8039D02*
X5766Y8064D01*
X5817D01*
X5842Y8039D01*
Y7937D01*
X5817Y7912D01*
X5766D01*
X5740Y7937D01*
X5690Y7912D02*
X5639D01*
X5664D01*
Y8064D01*
X5690Y8039D01*
X5563D02*
X5537Y8064D01*
X5487D01*
X5461Y8039D01*
Y8014D01*
X5487Y7988D01*
X5512D01*
X5487D01*
X5461Y7963D01*
Y7937D01*
X5487Y7912D01*
X5537D01*
X5563Y7937D01*
X7341Y5651D02*
X7366Y5677D01*
X7417D01*
X7442Y5651D01*
Y5550D01*
X7417Y5524D01*
X7366D01*
X7341Y5550D01*
X7290Y5677D02*
X7188D01*
Y5651D01*
X7290Y5550D01*
Y5524D01*
X7341Y4508D02*
X7366Y4534D01*
X7417D01*
X7442Y4508D01*
Y4407D01*
X7417Y4381D01*
X7366D01*
X7341Y4407D01*
X7290Y4508D02*
X7264Y4534D01*
X7214D01*
X7188Y4508D01*
Y4483D01*
X7214Y4458D01*
X7188Y4432D01*
Y4407D01*
X7214Y4381D01*
X7264D01*
X7290Y4407D01*
Y4432D01*
X7264Y4458D01*
X7290Y4483D01*
Y4508D01*
X7264Y4458D02*
X7214D01*
X7341Y4064D02*
X7366Y4089D01*
X7417D01*
X7442Y4064D01*
Y3962D01*
X7417Y3937D01*
X7366D01*
X7341Y3962D01*
X7290Y4064D02*
X7264Y4089D01*
X7214D01*
X7188Y4064D01*
Y4039D01*
X7214Y4013D01*
X7239D01*
X7214D01*
X7188Y3988D01*
Y3962D01*
X7214Y3937D01*
X7264D01*
X7290Y3962D01*
X4648Y8814D02*
X4623Y8839D01*
Y8890D01*
X4648Y8915D01*
X4750D01*
X4775Y8890D01*
Y8839D01*
X4750Y8814D01*
X4775Y8661D02*
Y8763D01*
X4674Y8661D01*
X4648D01*
X4623Y8687D01*
Y8738D01*
X4648Y8763D01*
X4623Y8509D02*
Y8611D01*
X4699D01*
X4674Y8560D01*
Y8535D01*
X4699Y8509D01*
X4750D01*
X4775Y8535D01*
Y8585D01*
X4750Y8611D01*
X5728Y8661D02*
X5753Y8687D01*
X5804D01*
X5829Y8661D01*
Y8560D01*
X5804Y8534D01*
X5753D01*
X5728Y8560D01*
X5575Y8534D02*
X5677D01*
X5575Y8636D01*
Y8661D01*
X5601Y8687D01*
X5652D01*
X5677Y8661D01*
X5423Y8687D02*
X5474Y8661D01*
X5525Y8611D01*
Y8560D01*
X5499Y8534D01*
X5448D01*
X5423Y8560D01*
Y8585D01*
X5448Y8611D01*
X5525D01*
X6274Y8699D02*
X6299Y8725D01*
X6350D01*
X6375Y8699D01*
Y8598D01*
X6350Y8572D01*
X6299D01*
X6274Y8598D01*
X6121Y8572D02*
X6223D01*
X6121Y8674D01*
Y8699D01*
X6147Y8725D01*
X6198D01*
X6223Y8699D01*
X6071D02*
X6045Y8725D01*
X5995D01*
X5969Y8699D01*
Y8674D01*
X5995Y8649D01*
X6020D01*
X5995D01*
X5969Y8623D01*
Y8598D01*
X5995Y8572D01*
X6045D01*
X6071Y8598D01*
X5588Y7582D02*
X5563Y7607D01*
Y7658D01*
X5588Y7683D01*
X5690D01*
X5715Y7658D01*
Y7607D01*
X5690Y7582D01*
X5715Y7430D02*
Y7531D01*
X5613Y7430D01*
X5588D01*
X5563Y7455D01*
Y7506D01*
X5588Y7531D01*
X5715Y7277D02*
Y7379D01*
X5613Y7277D01*
X5588D01*
X5563Y7303D01*
Y7353D01*
X5588Y7379D01*
X8839Y3658D02*
X8865Y3632D01*
Y3581D01*
X8839Y3556D01*
X8738D01*
X8712Y3581D01*
Y3632D01*
X8738Y3658D01*
X8712Y3708D02*
Y3759D01*
Y3734D01*
X8865D01*
X8839Y3708D01*
X8865Y3835D02*
Y3937D01*
X8839D01*
X8738Y3835D01*
X8712D01*
X4585Y6642D02*
X4610Y6667D01*
X4661D01*
X4686Y6642D01*
Y6540D01*
X4661Y6515D01*
X4610D01*
X4585Y6540D01*
X4534D02*
X4509Y6515D01*
X4458D01*
X4432Y6540D01*
Y6642D01*
X4458Y6667D01*
X4509D01*
X4534Y6642D01*
Y6617D01*
X4509Y6591D01*
X4432D01*
X6591Y4305D02*
X6617Y4331D01*
X6668D01*
X6693Y4305D01*
Y4204D01*
X6668Y4178D01*
X6617D01*
X6591Y4204D01*
X6439Y4331D02*
X6490Y4305D01*
X6541Y4254D01*
Y4204D01*
X6515Y4178D01*
X6464D01*
X6439Y4204D01*
Y4229D01*
X6464Y4254D01*
X6541D01*
X6706Y5004D02*
X6731Y5029D01*
X6782D01*
X6807Y5004D01*
Y4902D01*
X6782Y4877D01*
X6731D01*
X6706Y4902D01*
X6553Y4877D02*
X6655D01*
X6553Y4978D01*
Y5004D01*
X6579Y5029D01*
X6629D01*
X6655Y5004D01*
X6502Y5029D02*
X6401D01*
Y5004D01*
X6502Y4902D01*
Y4877D01*
X6718Y4775D02*
X6744Y4801D01*
X6795D01*
X6820Y4775D01*
Y4674D01*
X6795Y4648D01*
X6744D01*
X6718Y4674D01*
X6566Y4648D02*
X6668D01*
X6566Y4750D01*
Y4775D01*
X6591Y4801D01*
X6642D01*
X6668Y4775D01*
X6515D02*
X6490Y4801D01*
X6439D01*
X6414Y4775D01*
Y4750D01*
X6439Y4724D01*
X6414Y4699D01*
Y4674D01*
X6439Y4648D01*
X6490D01*
X6515Y4674D01*
Y4699D01*
X6490Y4724D01*
X6515Y4750D01*
Y4775D01*
X6490Y4724D02*
X6439D01*
X4585Y6896D02*
X4610Y6921D01*
X4661D01*
X4686Y6896D01*
Y6794D01*
X4661Y6769D01*
X4610D01*
X4585Y6794D01*
X4534Y6769D02*
X4483D01*
X4509D01*
Y6921D01*
X4534Y6896D01*
X4407D02*
X4382Y6921D01*
X4331D01*
X4305Y6896D01*
Y6794D01*
X4331Y6769D01*
X4382D01*
X4407Y6794D01*
Y6896D01*
X6579Y5905D02*
X6604Y5931D01*
X6655D01*
X6680Y5905D01*
Y5804D01*
X6655Y5778D01*
X6604D01*
X6579Y5804D01*
X6452Y5778D02*
Y5931D01*
X6528Y5855D01*
X6426D01*
X5880Y5702D02*
X5855Y5728D01*
Y5779D01*
X5880Y5804D01*
X5982D01*
X6007Y5779D01*
Y5728D01*
X5982Y5702D01*
X6007Y5550D02*
Y5652D01*
X5906Y5550D01*
X5880D01*
X5855Y5575D01*
Y5626D01*
X5880Y5652D01*
Y5410D02*
X5855Y5436D01*
Y5486D01*
X5880Y5512D01*
X5982D01*
X6007Y5486D01*
Y5436D01*
X5982Y5410D01*
X6007Y5359D02*
Y5309D01*
Y5334D01*
X5855D01*
X5880Y5359D01*
X6579Y4534D02*
X6604Y4559D01*
X6655D01*
X6680Y4534D01*
Y4432D01*
X6655Y4407D01*
X6604D01*
X6579Y4432D01*
X6426Y4559D02*
X6528D01*
Y4483D01*
X6477Y4508D01*
X6452D01*
X6426Y4483D01*
Y4432D01*
X6452Y4407D01*
X6502D01*
X6528Y4432D01*
X8039Y8153D02*
X8064Y8128D01*
Y8077D01*
X8039Y8052D01*
X8014D01*
X7988Y8077D01*
Y8128D01*
X7963Y8153D01*
X7937D01*
X7912Y8128D01*
Y8077D01*
X7937Y8052D01*
X8064Y8280D02*
Y8230D01*
X8039Y8204D01*
X7937D01*
X7912Y8230D01*
Y8280D01*
X7937Y8306D01*
X8039D01*
X8064Y8280D01*
X8039Y8458D02*
X8064Y8433D01*
Y8382D01*
X8039Y8357D01*
X7937D01*
X7912Y8382D01*
Y8433D01*
X7937Y8458D01*
X8064Y8509D02*
X7912D01*
X7963D01*
X8064Y8610D01*
X7988Y8534D01*
X7912Y8610D01*
X8064Y8763D02*
Y8661D01*
X7912D01*
Y8763D01*
X7988Y8661D02*
Y8712D01*
X8064Y8814D02*
Y8915D01*
Y8864D01*
X7912D01*
Y8966D02*
Y9017D01*
Y8991D01*
X8064D01*
X8039Y8966D01*
X5804Y3937D02*
Y3785D01*
X5728D01*
X5702Y3810D01*
Y3835D01*
Y3861D01*
X5728Y3886D01*
X5804D01*
X5550Y3734D02*
Y3886D01*
X5626D01*
X5652Y3861D01*
Y3810D01*
X5626Y3785D01*
X5550D01*
M02*
